{"glyphs":{"0":{"ha":286,"x_min":15,"x_max":324,"o":"m 235 364 q 79 256 140 331 q 15 79 15 179 q 85 0 15 0 q 194 44 121 0 q 288 154 249 75 q 324 294 324 229 q 323 313 324 304 q 321 329 322 322 q 298 357 319 346 q 257 368 276 368 q 235 364 247 368 m 232 335 q 279 304 275 335 q 244 156 279 233 q 97 25 186 25 q 65 88 65 44 q 86 179 65 110 q 142 278 126 258 q 232 335 178 328 z "},"1":{"ha":182,"x_min":7,"x_max":276,"o":"m 160 278 q 171 282 161 278 q 185 283 181 286 l 92 140 q 47 70 68 104 q 7 1 26 36 l 64 0 q 83 46 83 13 q 179 203 122 93 q 276 361 239 315 q 260 365 268 365 q 207 328 238 365 q 160 278 172 286 m 32 203 q 156 275 133 254 q 78 233 111 251 q 21 204 44 215 l 32 203 z "},"2":{"ha":367,"x_min":17,"x_max":400,"o":"m 203 314 q 167 250 167 269 q 221 203 167 203 q 301 281 278 203 q 290 272 297 278 q 276 257 283 265 q 263 242 269 249 q 250 233 256 235 q 203 253 215 229 q 219 310 199 282 q 293 358 256 358 q 360 311 335 358 q 308 193 360 243 q 193 118 271 154 q 131 90 161 104 q 68 63 100 76 l 35 38 q 19 4 17 24 q 43 22 33 4 q 75 42 54 42 q 200 4 181 4 q 319 60 256 4 q 335 78 319 65 q 343 92 343 83 q 339 101 343 97 q 314 67 314 85 q 250 32 292 32 q 178 49 228 32 q 106 67 129 67 l 260 133 q 389 235 347 176 q 400 292 400 265 q 385 346 400 322 q 317 365 354 365 q 203 314 246 365 z "},"3":{"ha":331,"x_min":19,"x_max":372,"o":"m 282 365 q 365 321 338 365 q 342 258 372 285 q 306 235 332 244 q 265 217 276 225 q 304 149 304 192 q 246 44 304 88 q 138 0 189 0 q 26 43 68 0 q 96 13 47 13 q 115 14 103 13 q 143 18 128 15 q 183 38 164 24 q 217 69 201 51 q 244 109 232 88 q 260 151 256 131 q 217 213 260 192 q 138 196 164 213 q 171 218 146 217 l 231 225 q 318 283 294 225 q 324 304 324 293 q 308 338 324 325 q 272 351 293 351 q 221 333 247 351 q 217 319 221 329 q 213 306 213 310 q 218 293 213 299 q 267 268 228 263 l 275 276 q 286 279 279 281 q 228 244 260 244 q 188 288 188 244 q 196 317 188 300 q 233 347 204 333 q 258 356 246 351 q 282 365 271 360 m 39 136 l 28 115 q 19 82 19 99 q 25 47 19 64 q 24 57 24 50 l 24 69 q 64 124 24 124 q 126 99 93 124 q 139 118 133 110 q 150 133 144 126 q 79 154 101 154 q 39 136 53 154 z "},"4":{"ha":343,"x_min":15,"x_max":328,"o":"m 282 361 q 99 124 233 261 q 265 263 201 182 q 322 363 322 319 q 313 364 319 364 q 308 363 311 364 q 297 361 304 363 q 282 361 289 358 m 104 119 q 154 107 133 107 q 239 163 185 107 q 321 219 293 219 q 290 167 306 193 q 258 114 274 140 q 272 110 267 110 q 299 124 281 110 q 328 138 317 138 q 292 106 328 106 l 271 106 q 247 103 256 106 q 219 56 243 92 q 196 4 200 25 q 171 0 189 0 l 138 0 l 197 92 q 154 104 192 97 q 104 119 117 111 m 15 92 l 15 71 q 56 100 21 89 q 96 119 88 111 l 15 92 z "},"5":{"ha":346,"x_min":31,"x_max":378,"o":"m 249 365 q 135 183 210 274 l 138 178 q 235 225 200 231 q 275 168 269 218 q 182 26 254 90 q 108 10 142 10 q 54 29 75 10 q 39 82 33 49 q 72 121 49 121 q 107 110 81 121 q 143 99 133 99 q 172 124 164 99 q 158 139 169 133 q 110 150 133 150 q 68 140 86 150 q 31 81 31 121 q 43 28 31 53 q 126 0 75 6 q 239 40 190 0 q 319 171 319 107 q 307 211 319 192 q 250 251 279 251 q 218 246 240 251 q 188 244 200 242 q 218 293 204 264 q 251 318 224 318 q 283 314 263 318 q 315 310 304 310 q 342 317 325 310 q 378 349 378 332 q 375 361 378 353 l 343 357 q 327 355 336 356 q 307 354 318 354 q 249 365 278 354 z "},"6":{"ha":313,"x_min":18,"x_max":357,"o":"m 151 318 q 18 88 18 206 q 22 43 18 65 q 61 3 33 11 q 83 1 68 1 q 122 0 99 0 q 203 47 163 11 q 258 124 244 85 q 271 181 271 163 q 264 215 271 197 q 217 246 250 246 q 194 242 206 243 q 172 239 183 240 q 106 140 117 208 q 119 163 113 143 q 136 190 126 182 q 186 210 163 210 q 200 208 196 210 q 225 164 225 197 q 224 153 224 158 q 224 142 224 147 q 224 122 221 129 q 199 76 210 94 q 179 47 189 58 q 103 11 147 11 q 61 75 61 24 q 118 233 72 163 q 148 272 132 253 q 183 307 164 290 q 269 351 232 351 q 296 314 285 351 q 324 276 306 276 q 356 286 338 276 q 357 296 357 289 q 349 322 357 306 q 342 342 342 338 q 276 367 314 367 q 151 318 221 367 z "},"7":{"ha":199,"x_min":15,"x_max":307,"o":"m 57 286 l 122 340 q 242 306 211 303 q 125 175 181 253 l 15 25 l 15 0 l 44 0 q 64 4 57 0 q 307 357 150 200 q 261 333 286 333 q 211 349 250 333 q 157 365 174 365 q 119 351 138 365 q 108 360 119 351 q 108 365 106 363 q 81 328 94 361 q 57 286 67 296 z "},"8":{"ha":286,"x_min":15,"x_max":332,"o":"m 235 363 q 147 285 147 363 q 161 228 147 257 q 118 190 161 204 q 74 174 90 181 q 54 164 58 167 q 15 92 15 129 q 22 63 15 88 q 63 17 31 33 q 122 0 89 0 q 203 22 168 0 q 261 111 261 57 q 231 207 261 142 l 282 228 q 332 294 332 249 q 235 363 332 372 m 181 300 q 231 349 181 349 q 289 314 272 349 q 292 297 292 300 q 267 240 292 261 q 249 230 261 239 q 228 221 238 221 q 224 221 225 221 q 219 224 222 221 q 210 235 215 226 q 194 260 204 243 q 181 300 181 283 m 168 193 q 219 99 219 140 q 211 67 214 79 q 207 51 208 54 q 131 14 190 14 q 81 36 94 14 q 57 92 57 68 q 71 133 57 115 q 168 193 94 188 z "},"9":{"ha":340,"x_min":18,"x_max":354,"o":"m 267 365 q 149 301 203 356 q 99 182 99 249 q 111 131 99 146 q 160 117 124 117 q 196 124 175 117 q 269 217 269 168 l 253 192 q 186 146 213 146 q 169 151 175 146 q 142 206 142 167 q 149 243 142 208 q 162 274 153 258 q 183 305 171 290 q 211 331 196 319 q 242 346 226 342 q 258 351 247 351 q 300 328 285 351 q 315 278 315 306 q 290 197 315 243 q 263 145 272 164 q 251 122 253 126 q 108 11 169 11 q 100 12 106 11 q 88 14 94 13 q 61 61 61 31 q 63 75 61 71 l 19 78 q 18 65 18 75 q 25 40 18 53 q 44 19 32 28 q 69 3 56 10 q 96 -3 83 -3 q 210 39 132 -3 q 313 138 271 71 q 354 272 354 204 q 349 324 354 303 q 267 365 332 365 z "},">":{"ha":694,"x_min":88,"x_max":608,"o":"m 88 0 l 608 0 l 608 956 l 88 956 l 88 0 m 174 88 l 174 869 l 521 869 l 521 88 l 174 88 z "},"\u0006":{"ha":344,"x_min":-56,"x_max":347,"o":"m 290 608 l -56 1 l -8 0 q 55 115 32 75 q 81 163 78 156 q 219 269 146 269 q 254 247 254 269 q 217 165 254 224 q 167 83 174 100 q 149 35 149 38 q 181 4 149 4 q 249 19 207 4 q 347 104 324 47 q 301 54 319 68 q 211 19 254 19 q 193 28 194 19 q 247 138 200 65 q 303 242 296 208 q 250 283 296 283 q 204 276 229 283 q 168 260 196 274 q 135 250 143 249 q 228 418 176 329 q 342 607 279 507 l 290 608 z "},"\u001a":{"ha":335,"x_min":-231,"x_max":886,"o":"m 293 271 q 240 297 250 297 q 233 295 240 297 q 211 290 226 293 q 203 289 206 290 q 183 304 190 289 l 256 431 q 335 560 311 528 q 718 776 497 776 q 753 774 733 776 q 794 769 772 772 l 836 744 q 856 703 858 729 q 881 713 867 700 q 886 733 886 722 q 876 768 886 747 q 790 803 850 801 q 742 803 767 803 q 694 804 718 803 q 329 583 458 738 q 50 144 226 457 q -231 -275 -111 -147 l -176 -278 q -2 -24 -79 -149 q 133 224 75 101 q 203 289 150 278 q 211 290 207 289 l 217 290 q 289 264 228 290 l 213 129 q 78 18 163 71 q 160 65 117 28 q 199 104 183 85 l 165 46 q 161 33 161 42 q 188 0 161 4 q 201 -2 194 -1 q 214 -3 208 -3 q 303 33 258 -3 q 369 108 313 43 l 276 29 q 236 14 243 14 q 214 31 219 14 l 333 269 l 293 271 m 365 389 q 339 365 339 389 q 342 357 339 363 q 361 342 349 342 q 374 344 365 342 q 390 369 392 354 q 365 389 390 389 z "},"\u001b":{"ha":358,"x_min":-231,"x_max":886,"o":"m 694 804 q 329 583 458 738 q 50 144 226 457 q -231 -275 -111 -147 l -176 -278 q -2 -24 -79 -149 q 133 224 75 101 q 203 289 150 278 q 211 290 207 289 l 217 290 q 253 282 233 290 l 253 293 q 240 297 246 297 q 233 295 240 297 q 211 290 226 293 q 203 289 206 290 q 183 304 190 289 l 256 431 q 335 560 311 528 q 718 776 497 776 q 753 774 733 776 q 794 769 772 772 l 836 744 q 856 703 858 729 q 881 713 867 700 q 886 733 886 722 q 876 768 886 747 q 790 803 850 801 q 742 803 767 803 q 694 804 718 803 m 474 579 q 430 498 456 543 q 371 396 404 453 q 267 225 307 292 q 211 128 228 158 q 78 18 167 74 q 160 65 117 28 q 199 104 183 85 q 176 61 186 81 q 158 26 165 42 q 186 0 146 0 q 239 8 210 0 q 326 64 301 28 l 357 108 q 222 14 265 21 q 204 22 211 14 q 203 40 197 31 q 238 100 217 64 q 289 185 260 136 l 378 329 q 423 406 397 363 q 481 506 449 450 q 524 581 518 556 q 510 581 518 581 q 490 583 501 582 q 474 579 479 583 z "},"\u001c":{"ha":783,"x_min":46,"x_max":1033,"o":"m 124 92 q 224 101 164 101 q 328 90 286 101 q 176 43 250 43 q 108 54 138 43 q 111 73 104 58 q 124 92 118 88 m 342 247 l 350 228 l 467 275 q 390 125 440 176 l 347 125 q 50 68 140 125 q 75 15 46 31 q 131 10 99 10 q 289 53 213 10 q 367 89 321 89 q 446 72 397 89 q 494 57 475 63 q 524 50 514 51 q 590 26 542 54 q 647 0 638 0 q 689 36 672 0 q 550 90 628 68 q 496 104 532 96 q 403 125 460 113 q 518 296 486 192 l 635 343 l 626 363 l 525 321 l 526 325 q 554 621 554 447 q 633 761 578 701 q 769 842 693 826 q 819 849 808 849 q 967 776 911 849 q 992 672 992 701 q 981 626 992 651 q 925 513 964 557 q 819 447 883 463 l 799 447 q 742 456 764 447 q 700 511 700 469 q 731 543 700 529 q 765 568 764 558 l 747 588 q 728 592 739 592 q 688 581 707 592 q 660 499 660 557 q 719 436 660 471 q 760 432 740 432 q 939 506 853 432 q 1033 703 1033 607 q 1021 776 1033 739 q 849 868 972 868 q 707 832 772 868 q 568 729 615 794 q 518 588 532 676 q 506 499 511 543 q 494 411 500 456 q 474 300 486 349 l 342 247 z "},"\u001d":{"ha":178,"x_min":-37,"x_max":339,"o":"m 7 211 l 14 192 l 81 219 l 60 182 q 8 92 29 132 q -25 25 -12 53 q 1 0 -37 0 q 54 7 22 0 q 142 63 117 26 l 172 107 q 38 13 81 19 q 19 21 26 13 q 18 39 13 29 q 55 101 33 65 q 104 183 76 136 l 140 243 l 233 281 l 225 300 l 158 272 l 193 328 q 240 407 214 363 q 296 504 265 451 q 339 579 333 554 q 325 580 333 579 q 306 582 317 581 q 289 578 294 582 q 245 497 271 542 q 186 394 219 451 l 99 249 l 7 211 z "},"\u001e":{"ha":960,"x_min":56,"x_max":1158,"o":"m 1142 863 l 1125 868 l 1103 868 q 908 742 1018 868 l 736 817 q 531 861 631 861 l 514 861 q 341 812 418 861 q 226 675 264 763 q 219 617 219 640 q 233 553 219 581 q 304 489 251 513 q 400 469 350 469 q 500 494 454 469 q 610 653 610 567 l 594 682 q 576 701 583 699 q 553 711 575 703 l 531 711 q 431 667 468 711 q 469 676 439 665 q 513 689 499 689 q 540 683 524 689 q 572 610 572 672 l 572 582 q 428 492 529 501 q 329 522 374 492 q 302 541 313 532 q 284 559 292 550 q 271 581 276 568 q 258 613 265 593 l 258 635 q 275 706 258 669 q 285 724 276 708 q 313 771 294 740 q 492 856 385 856 q 692 801 575 856 q 786 757 739 779 q 882 713 833 735 q 801 594 842 653 q 719 476 760 536 q 696 481 706 479 q 679 483 686 482 q 653 442 658 468 l 682 442 q 704 432 694 442 l 599 240 q 525 142 558 169 q 411 106 481 106 q 368 108 393 106 q 308 117 343 111 q 250 125 275 122 q 207 128 225 128 q 94 101 139 128 q 56 57 56 93 q 57 44 56 49 q 194 0 114 0 q 417 50 267 0 q 646 13 543 13 q 879 78 785 13 q 978 253 978 185 q 974 288 978 267 q 904 331 964 331 q 872 326 886 331 q 822 285 844 311 q 799 225 799 253 l 842 282 q 883 294 860 294 q 930 274 911 294 q 949 225 949 253 q 910 131 949 174 q 881 99 893 113 q 860 78 868 86 q 710 39 799 39 q 474 89 604 39 q 761 436 619 194 q 764 436 757 436 q 789 435 771 436 q 833 464 825 432 l 776 482 l 893 711 q 904 710 899 710 q 917 710 910 710 l 940 710 q 968 713 954 710 q 1089 761 993 717 q 1158 842 1147 788 l 1142 863 m 117 83 q 140 94 129 92 q 172 96 151 96 q 371 57 221 96 q 243 29 311 29 q 114 64 167 29 q 117 83 103 71 m 928 742 q 1074 825 996 825 q 1115 817 1094 825 q 1044 753 1101 769 l 946 736 q 928 742 944 742 m 890 1033 q 778 989 886 1033 q 718 1033 726 1031 l 714 1032 l 711 1026 q 717 1015 713 1024 q 731 992 721 1006 q 758 957 750 963 q 782 956 760 956 q 803 964 790 956 q 897 1024 894 1019 l 899 1026 q 890 1033 899 1033 z "},"\u001f":{"ha":267,"x_min":-4,"x_max":322,"o":"m 219 231 q 194 229 214 229 q 126 263 144 229 q 57 177 86 214 q 8 114 28 140 l 11 108 l 101 221 q 199 201 144 201 l 199 196 q 146 160 186 171 q 89 136 97 144 q 92 126 88 129 q 102 122 96 124 q 114 119 108 119 q 119 117 119 118 q -4 6 44 38 l 6 -3 q 57 29 31 29 q 101 14 67 29 q 151 0 135 0 q 189 14 167 0 q 265 119 242 46 l 251 114 q 204 47 251 86 q 167 38 186 38 l 75 58 l 133 122 q 147 126 139 126 q 158 126 151 126 q 176 124 165 125 q 206 147 199 124 l 179 158 l 288 265 q 272 274 279 274 q 249 251 265 274 q 219 231 233 231 m 315 422 q 322 415 322 422 l 322 413 q 228 353 318 408 q 206 344 215 344 q 182 346 183 344 q 171 358 178 350 q 154 381 164 367 q 140 403 144 394 q 135 415 136 413 l 138 421 l 142 422 q 160 410 144 421 q 201 378 175 400 q 315 422 311 422 z "}," ":{"ha":211,"x_min":0,"x_max":0,"o":""},"!":{"ha":272,"x_min":50,"x_max":399,"o":"m 399 615 q 360 635 399 635 q 301 583 322 635 l 238 399 q 154 178 181 233 l 163 178 q 242 321 201 253 q 325 451 282 389 q 399 615 399 557 m 110 85 q 57 39 63 85 q 94 -6 50 -6 q 147 39 140 -6 q 110 85 153 85 z "},"\"":{"ha":171,"x_min":15,"x_max":169,"o":"m 61 635 q 94 601 94 635 q 75 561 94 593 q 15 494 40 506 q 53 560 53 521 q 47 572 53 571 q 28 601 28 581 q 61 635 28 635 m 136 635 q 169 601 169 635 q 150 561 169 593 q 90 494 115 506 q 122 544 121 518 q 121 572 124 569 q 103 601 103 582 q 136 635 103 635 z "},"#":{"ha":504,"x_min":21,"x_max":457,"o":"m 449 700 l 442 689 l 449 694 q 451 686 453 688 q 439 679 451 681 l 442 669 q 422 615 442 619 l 433 615 q 432 601 436 607 q 440 604 440 604 q 450 597 447 604 l 433 586 q 436 581 436 581 q 429 567 436 576 q 422 553 422 557 q 424 546 422 550 l 413 547 q 369 508 400 526 q 315 483 357 501 q 296 493 307 490 q 324 449 324 465 q 303 443 318 443 q 286 445 299 443 q 269 447 274 447 l 268 438 q 292 442 283 440 q 303 443 301 443 q 322 435 314 443 l 311 426 l 303 426 q 242 410 283 426 q 238 408 239 408 q 238 407 238 407 q 233 408 236 407 q 228 410 229 410 l 225 407 l 222 411 q 264 436 243 428 q 235 424 247 429 q 214 417 222 419 q 211 424 211 419 q 225 443 211 433 q 219 442 224 442 q 206 451 210 442 q 232 478 211 464 q 251 486 242 482 q 267 493 260 490 l 279 493 l 257 469 q 275 488 268 481 q 288 501 282 496 q 311 542 307 524 q 367 575 317 556 q 413 606 411 592 q 367 575 407 588 q 322 553 329 565 q 315 556 317 556 q 304 549 311 556 l 310 549 q 315 546 313 549 q 303 539 308 539 q 290 543 301 539 q 274 546 278 547 q 271 556 271 557 q 289 593 271 567 q 321 615 294 611 l 361 618 q 342 603 351 610 q 322 592 332 597 l 332 582 l 311 568 l 313 567 q 319 568 317 568 l 317 571 q 342 597 328 575 q 365 624 356 618 q 339 618 344 618 q 325 621 333 618 q 268 547 281 608 q 235 518 243 519 q 229 528 229 519 q 232 536 229 528 q 238 542 233 536 q 249 553 243 547 q 260 563 254 558 q 269 568 265 568 q 269 583 272 572 q 267 594 268 590 q 267 599 267 597 l 269 601 q 278 597 271 599 l 271 632 q 238 665 249 654 q 225 676 226 675 q 233 668 226 675 q 250 650 239 661 q 268 624 268 632 q 254 631 260 621 q 250 636 251 633 q 247 642 249 639 q 254 624 251 626 l 258 625 q 268 608 271 617 q 261 613 263 611 q 229 604 244 607 l 225 608 q 235 615 232 607 q 242 624 238 624 l 244 624 q 235 641 238 626 q 228 657 232 656 l 225 656 l 210 667 q 232 624 232 639 q 229 614 232 622 l 225 614 q 217 628 226 621 q 206 639 207 636 q 207 640 207 640 q 208 640 208 640 q 216 635 211 640 q 222 631 221 631 l 211 646 q 171 660 196 660 q 158 658 164 660 l 174 651 l 167 647 q 218 607 211 636 l 213 607 q 228 589 228 592 l 208 589 q 222 576 208 582 q 236 563 236 571 l 239 575 q 246 572 242 575 q 250 565 250 568 q 242 553 250 558 q 224 531 235 549 q 203 510 213 514 q 192 508 199 511 q 178 501 185 506 q 165 494 171 497 q 157 490 158 490 q 121 510 157 490 q 101 536 104 521 l 101 546 q 95 581 101 557 q 89 618 89 606 q 95 628 89 621 q 101 638 101 635 l 101 640 q 113 642 108 640 l 96 653 q 118 665 104 660 l 115 671 q 128 678 115 678 q 143 676 138 678 q 164 682 158 676 q 176 678 169 678 q 190 681 179 678 q 206 685 201 685 q 218 679 213 685 q 203 688 211 688 q 190 685 200 688 q 176 682 179 682 q 164 688 168 682 q 129 679 160 685 q 94 657 104 674 q 76 611 76 631 l 76 597 q 69 578 67 590 l 79 579 q 85 572 85 578 q 76 558 76 561 q 79 553 76 556 l 93 565 q 99 546 99 558 q 97 536 97 544 l 97 525 q 71 529 85 529 l 57 529 l 43 529 q 33 529 39 529 q 21 531 28 529 l 21 526 l 36 526 q 138 494 114 526 q 125 476 131 483 q 115 463 119 468 q 83 446 100 446 q 111 482 104 478 l 101 482 q 94 488 96 482 q 101 492 100 490 q 99 501 99 500 l 99 507 l 86 510 l 94 501 q 86 497 92 499 l 82 494 l 94 492 q 67 475 75 475 q 53 481 58 475 l 53 475 l 65 475 l 64 456 l 74 457 l 76 444 q 85 440 81 440 q 92 443 86 440 q 101 446 99 446 q 102 445 101 446 q 106 443 103 444 q 100 433 103 440 q 95 418 97 426 q 91 402 93 410 q 88 393 89 394 l 107 433 q 128 458 115 451 q 140 489 132 483 q 150 490 143 490 l 163 489 q 178 488 174 488 q 181 488 183 488 q 196 490 185 488 l 186 490 l 179 490 q 224 521 206 515 q 238 514 231 514 q 245 519 240 514 q 256 528 250 524 q 266 538 261 533 q 275 543 271 543 q 304 536 294 543 q 293 518 301 525 q 274 506 285 511 q 253 499 264 501 q 238 494 243 496 q 264 500 247 500 l 276 500 l 244 485 q 208 463 221 475 q 228 492 207 471 q 171 453 189 453 q 160 456 168 453 q 106 410 153 426 q 113 408 107 408 q 149 432 122 408 q 186 456 176 456 l 196 456 l 193 449 l 197 449 q 214 433 217 440 q 207 426 207 431 q 208 417 207 421 q 206 410 208 413 q 171 392 196 392 q 164 393 165 392 q 165 386 165 389 q 161 374 165 379 l 160 369 q 157 361 157 361 q 111 339 147 339 q 82 375 82 364 l 82 364 q 121 333 107 333 q 131 335 126 333 q 132 329 132 333 q 121 303 132 318 q 113 297 119 301 q 108 289 107 293 q 111 288 110 288 q 131 308 131 307 q 128 313 131 310 q 132 328 129 315 q 138 340 135 340 q 144 336 140 340 q 143 331 143 333 q 142 325 143 328 l 154 332 q 156 326 156 332 q 154 319 156 322 q 154 311 151 315 q 160 290 160 300 q 144 243 160 278 q 131 196 131 214 q 133 181 131 192 q 135 165 135 169 q 126 126 135 151 q 118 89 118 101 l 118 76 q 125 57 125 67 q 122 40 125 54 q 118 22 118 26 q 135 0 118 0 q 146 2 138 0 q 156 4 154 4 q 164 0 160 4 q 174 24 174 18 q 199 94 174 46 l 199 106 q 226 167 199 128 q 264 225 260 210 q 283 203 279 221 q 291 182 289 189 q 293 175 293 175 q 291 167 292 169 q 290 164 290 164 l 290 154 q 292 128 290 149 q 294 103 294 108 q 290 76 294 90 q 286 69 286 74 q 290 58 286 64 q 349 21 328 21 l 358 21 q 368 31 358 22 q 375 44 378 40 q 354 72 354 57 q 357 83 354 76 q 364 99 360 90 q 371 115 368 107 q 374 128 374 124 q 371 144 371 142 q 393 247 393 190 q 368 368 393 303 q 339 419 351 385 q 325 478 339 424 q 408 536 393 513 q 417 540 414 540 q 428 525 422 533 q 433 514 433 517 l 433 504 q 429 489 433 494 q 422 500 425 492 l 422 497 q 414 489 419 489 q 411 490 413 489 l 417 518 q 410 479 407 489 l 424 490 q 427 483 425 490 q 433 476 429 475 q 429 542 433 521 q 451 581 444 557 q 442 567 446 574 q 436 556 439 561 q 432 561 432 557 q 434 569 432 563 q 436 578 436 576 l 436 585 q 450 594 444 594 q 456 592 450 594 q 457 601 457 596 q 443 626 457 618 q 442 633 442 628 q 443 643 442 636 q 447 658 444 650 q 451 673 449 667 q 453 682 453 679 q 449 700 453 692 m 157 669 q 168 672 164 671 q 175 672 172 672 q 164 671 168 671 q 157 669 160 671 m 118 650 q 126 656 119 656 q 138 643 138 656 q 208 608 196 636 l 206 607 q 189 620 203 618 q 163 624 175 622 l 169 614 q 133 642 138 618 l 133 651 l 118 650 m 297 594 l 283 549 l 300 593 l 297 594 m 164 582 l 151 575 q 154 574 154 575 q 161 575 160 575 l 164 575 l 164 563 l 172 563 q 181 565 178 563 q 173 573 182 571 q 164 578 164 575 l 164 582 m 131 575 l 118 575 l 131 569 l 131 575 m 108 558 l 121 558 q 135 557 131 558 q 118 565 131 565 q 108 558 111 565 m 132 540 q 131 536 131 539 q 142 526 131 540 l 136 519 q 147 514 142 511 l 143 517 l 157 524 q 143 529 144 524 q 151 536 147 532 l 140 536 q 132 540 132 536 m 24 521 q 48 509 38 514 q 68 501 58 504 l 56 488 l 69 490 l 75 494 l 69 493 l 69 510 q 43 517 54 514 q 24 521 32 519 m 238 450 l 238 449 l 253 461 l 251 463 l 238 450 m 333 425 l 339 406 l 331 400 q 389 264 389 358 q 383 210 389 233 q 368 146 375 199 q 346 85 364 99 l 342 79 q 356 64 344 76 q 368 44 368 51 q 365 35 368 40 l 351 40 l 351 24 q 319 40 338 22 q 293 60 303 60 l 290 68 q 296 72 292 72 q 300 69 297 71 q 308 63 303 67 l 313 75 q 297 89 297 75 q 300 104 297 92 q 303 121 303 117 q 301 125 303 125 q 294 151 294 136 q 303 193 294 168 l 293 189 q 283 215 283 200 q 311 260 283 228 q 343 303 340 293 q 310 266 331 289 q 275 235 290 243 l 197 271 l 193 267 q 204 262 196 265 q 228 251 213 258 q 258 232 251 243 q 247 200 258 219 l 243 210 q 218 164 232 178 l 215 179 q 203 149 213 171 q 194 115 194 128 q 196 101 194 108 q 191 90 194 97 q 181 71 188 82 q 167 38 167 49 q 169 24 167 32 l 164 10 q 154 15 160 15 q 145 9 153 15 q 135 3 138 3 q 125 11 131 3 q 121 18 121 15 q 125 31 121 26 l 132 43 l 143 44 q 125 67 128 47 q 124 99 124 68 q 121 107 121 107 q 131 128 121 113 q 140 147 140 143 q 138 154 140 149 q 143 167 143 160 q 140 180 143 169 q 138 196 138 190 q 167 275 138 225 q 163 299 167 281 q 160 322 160 317 q 164 344 160 333 l 189 368 l 183 368 q 164 361 171 368 q 172 381 161 374 q 217 400 207 399 q 265 417 229 403 q 315 426 293 426 q 322 426 318 426 q 333 425 326 426 m 229 582 l 222 585 l 224 588 l 232 585 l 229 582 m 199 647 l 203 643 l 194 647 l 199 647 m 142 638 q 147 625 147 628 q 142 638 142 625 m 443 617 q 453 606 454 615 l 442 606 l 443 617 m 69 461 q 106 481 76 476 q 89 467 99 475 q 69 461 79 458 m 239 592 q 247 588 247 592 l 247 582 l 239 592 m 258 586 q 265 583 264 583 l 265 578 q 262 581 264 578 q 258 586 260 585 m 147 335 q 146 339 147 338 q 157 349 146 349 q 150 335 157 342 l 147 335 m 232 349 q 247 358 243 351 l 243 358 q 232 349 233 358 m 358 164 l 343 144 l 339 144 q 325 154 333 144 q 339 143 332 140 q 358 164 354 150 m 154 142 q 164 132 153 132 q 168 133 167 132 q 154 142 161 131 z "},"$":{"ha":510,"x_min":28,"x_max":483,"o":"m 117 219 q 100 221 106 222 q 28 135 28 207 q 31 110 28 124 q 149 8 46 28 q 129 -50 129 -46 l 129 -51 q 135 -53 131 -53 q 151 -22 144 -37 q 163 8 157 -7 q 214 13 192 10 q 325 81 278 29 q 374 197 374 133 q 340 285 374 247 q 317 308 331 296 q 286 336 304 321 l 375 568 q 431 460 442 538 q 428 432 426 435 q 438 428 429 426 q 483 496 483 436 q 382 590 483 569 l 386 601 q 399 636 394 624 q 406 654 404 649 q 400 656 401 657 q 385 633 394 654 q 371 590 376 611 q 243 546 300 590 q 183 428 183 499 q 211 340 183 376 q 257 290 238 307 l 158 33 q 85 106 96 49 q 81 136 81 124 q 92 181 81 161 q 117 219 104 200 m 338 569 q 363 569 347 571 l 278 344 q 235 418 243 381 q 231 463 231 440 q 317 567 231 547 q 329 569 324 568 q 338 569 335 569 m 267 281 q 331 154 331 221 q 285 59 331 94 q 171 29 239 24 l 267 281 z "},"%":{"ha":365,"x_min":11,"x_max":363,"o":"m 19 -6 q 58 33 39 0 q 94 106 79 75 q 121 160 110 138 q 175 259 144 204 q 243 378 206 314 q 299 482 272 428 q 350 594 326 536 q 357 610 354 604 q 363 621 360 617 l 360 625 q 325 574 347 617 q 273 481 300 526 q 218 390 246 435 q 81 135 161 301 q 22 13 22 15 q 22 4 22 8 q 19 -6 21 0 l 19 3 l 19 -6 m 304 213 q 199 156 249 213 q 150 43 150 99 q 196 0 150 0 q 257 22 214 0 q 291 48 275 31 q 319 88 307 65 q 338 133 331 110 q 344 178 344 157 q 304 213 344 213 m 292 194 q 318 174 318 194 q 285 72 318 126 q 204 14 247 13 l 197 14 q 181 49 181 26 q 217 140 181 88 q 292 194 251 194 m 165 636 q 60 579 110 636 q 11 467 11 522 q 56 424 11 424 q 117 444 72 424 q 179 511 154 463 q 206 601 206 558 q 165 636 206 636 m 151 618 q 179 597 179 618 q 144 496 179 549 q 64 438 108 435 l 58 438 q 42 471 42 447 q 78 564 42 511 q 151 618 113 618 z "},"&":{"ha":636,"x_min":43,"x_max":683,"o":"m 547 604 q 488 654 538 635 q 449 660 471 660 q 406 656 435 660 q 303 547 342 644 q 281 439 281 497 q 281 418 281 429 q 282 394 281 408 l 235 379 q 100 285 160 354 q 43 138 43 215 q 72 56 43 90 q 196 -7 124 -7 q 347 65 263 -7 q 458 0 401 0 q 482 3 467 0 q 515 14 497 6 q 554 38 533 22 q 596 78 575 53 q 646 172 633 125 q 617 135 635 158 q 574 81 599 113 q 479 31 525 31 q 449 35 471 31 q 410 68 426 39 q 403 83 408 71 q 390 118 399 96 l 489 294 q 531 363 517 347 q 596 401 560 401 q 607 394 607 401 q 604 382 607 390 q 598 364 601 374 q 592 344 594 354 q 589 329 589 335 q 594 310 589 315 q 628 290 606 290 q 634 291 631 290 q 644 293 638 292 q 683 358 683 301 q 675 401 683 393 q 638 417 669 407 l 615 417 q 514 360 563 417 q 440 246 488 329 q 406 187 421 210 q 381 154 390 164 q 357 400 357 261 q 478 463 469 456 q 553 564 547 508 q 547 604 553 588 m 149 271 q 278 372 178 343 q 290 225 288 249 q 331 85 300 139 q 244 26 292 33 q 151 75 186 19 q 129 178 129 129 q 149 271 129 221 m 431 643 q 444 644 435 644 q 493 621 476 644 q 510 564 510 597 q 453 476 510 521 q 357 426 407 440 l 357 479 q 431 643 357 628 z "},"'":{"ha":122,"x_min":200,"x_max":279,"o":"m 247 635 q 214 601 214 635 q 232 572 214 582 q 232 540 239 568 q 200 494 226 514 q 229 519 213 500 q 279 601 279 578 q 247 635 279 635 z "},"(":{"ha":207,"x_min":6,"x_max":379,"o":"m 379 769 q 197 599 278 704 q 6 103 6 350 q 101 -206 6 -85 l 113 -206 q 67 -76 68 -104 q 379 769 67 407 z "},")":{"ha":275,"x_min":-87,"x_max":282,"o":"m 254 286 q 282 481 282 390 q 178 785 282 657 q 190 758 185 769 q 199 736 194 746 q 224 549 224 675 q -87 -187 224 161 q 254 286 174 -10 z "},"*":{"ha":269,"x_min":18,"x_max":254,"o":"m 67 614 q 119 533 67 603 q 40 546 42 546 q 18 524 18 546 q 38 501 18 501 l 119 515 q 67 433 67 446 q 89 413 67 413 q 115 446 104 413 l 136 514 l 157 446 q 183 413 167 413 q 206 433 206 413 q 151 515 206 450 q 213 505 192 508 q 236 501 235 501 q 254 524 254 501 q 236 546 254 546 q 151 533 231 546 q 206 614 206 596 q 183 635 206 635 q 157 604 167 635 l 136 536 l 115 604 q 89 635 106 635 q 67 614 67 635 z "},"+":{"ha":471,"x_min":38,"x_max":433,"o":"m 38 213 l 38 183 l 221 183 l 221 0 l 251 0 l 251 183 l 433 183 l 433 213 l 251 213 l 251 394 l 221 394 l 221 213 l 38 213 z "},",":{"ha":122,"x_min":-3,"x_max":75,"o":"m 42 72 q 8 39 8 72 q 26 10 8 19 q 29 0 29 7 q 28 -8 29 -3 q 26 -21 28 -14 q -3 -67 19 -50 q 29 -36 11 -60 q 75 39 75 19 q 42 72 75 72 z "},"-":{"ha":197,"x_min":65,"x_max":199,"o":"m 189 150 q 199 182 196 181 l 75 182 q 69 163 72 171 q 65 150 67 156 l 189 150 z "},".":{"ha":122,"x_min":33,"x_max":99,"o":"m 67 72 q 33 39 33 72 q 67 6 33 6 q 99 39 99 6 q 67 72 99 72 z "},"/":{"ha":325,"x_min":60,"x_max":458,"o":"m 75 -11 q 283 283 143 122 q 378 404 335 343 q 456 529 421 465 q 458 539 457 536 q 458 543 458 542 q 457 544 457 544 q 456 547 457 546 q 424 500 453 547 l 390 446 q 315 355 347 393 q 264 293 283 317 q 206 224 236 261 q 144 142 176 186 q 60 -24 60 19 q 61 -26 60 -25 q 75 -11 67 -26 z "},":":{"ha":178,"x_min":19,"x_max":167,"o":"m 53 72 q 19 39 19 72 q 53 6 19 6 q 86 39 86 6 q 53 72 86 72 m 133 275 q 101 242 101 275 q 135 210 101 210 q 167 242 167 210 q 133 275 167 275 z "},";":{"ha":154,"x_min":15,"x_max":165,"o":"m 132 275 q 99 242 99 275 q 133 210 99 210 q 165 242 165 210 q 132 275 165 275 m 60 72 q 28 39 28 72 q 38 13 28 21 q 49 -1 49 6 q 15 -67 49 -44 q 51 -33 31 -60 q 66 -12 58 -22 q 81 7 74 -3 q 88 22 83 14 q 94 39 92 31 q 60 72 94 72 z "},"=":{"ha":414,"x_min":38,"x_max":378,"o":"m 38 226 l 38 200 l 378 200 l 378 226 l 38 226 m 38 106 l 38 79 l 378 79 l 378 106 l 38 106 z "},"?":{"ha":447,"x_min":126,"x_max":539,"o":"m 535 540 q 476 610 518 585 q 386 635 435 635 q 299 615 346 635 q 218 561 251 596 q 179 474 179 522 q 183 418 179 436 q 233 386 190 386 q 294 436 294 386 q 282 465 294 451 q 254 478 269 478 q 214 461 239 478 q 212 474 213 468 q 211 482 211 479 q 263 581 211 535 q 367 626 314 626 q 418 618 390 626 q 483 547 483 597 q 410 376 483 454 q 272 267 396 363 q 200 165 197 210 q 238 132 201 132 q 281 151 260 132 q 307 193 301 171 q 279 161 297 183 q 246 144 263 144 q 230 149 242 144 q 218 171 218 154 q 236 210 218 188 q 344 278 250 229 q 474 369 440 325 q 539 511 539 456 q 535 540 539 525 m 185 92 q 149 78 165 92 q 129 46 132 64 q 138 13 126 26 q 168 0 149 0 q 203 13 188 0 q 222 46 219 26 q 185 92 228 92 z "},"A":{"ha":1160,"x_min":71,"x_max":1494,"o":"m 1494 851 q 1461 867 1475 865 q 1432 868 1447 868 q 1301 828 1354 868 q 1244 778 1275 808 q 1178 706 1214 747 q 1109 627 1138 658 q 1061 579 1081 596 q 1015 631 1032 613 q 992 656 997 650 q 924 676 963 676 q 840 638 879 676 q 810 500 810 578 q 863 307 810 389 q 604 53 810 154 q 439 26 525 26 q 210 108 292 26 q 114 310 114 204 q 126 397 114 339 q 206 522 140 456 q 332 610 272 589 q 439 624 386 624 q 635 549 574 624 q 676 431 676 496 l 676 415 q 621 301 676 363 q 479 240 564 240 q 404 256 442 240 q 335 329 335 283 q 349 366 335 349 q 382 388 363 383 q 338 406 364 410 q 290 340 290 392 q 300 301 290 321 q 331 265 310 282 q 383 238 351 249 q 457 228 414 228 q 675 325 582 228 q 721 460 721 381 q 703 536 721 501 q 644 594 675 571 q 479 643 579 643 q 178 518 340 643 q 71 290 71 411 q 73 269 71 285 q 78 226 75 253 q 151 97 86 163 q 276 15 210 39 q 397 0 325 0 q 888 279 656 0 q 1007 226 953 226 l 1008 261 q 906 304 935 261 q 990 424 954 375 q 1050 501 1026 474 q 1078 378 1078 439 q 1028 189 1078 286 q 974 87 997 131 q 935 15 950 43 q 936 15 929 15 q 961 14 943 15 q 988 21 976 14 q 1033 112 1007 64 q 1090 215 1058 160 l 1213 432 q 1276 547 1249 499 q 1318 628 1303 596 q 1364 701 1344 669 q 1397 754 1383 732 q 1494 851 1439 818 m 1443 838 l 1449 832 q 1243 567 1349 739 q 1158 422 1200 494 q 1074 276 1117 350 q 1090 367 1085 325 q 1096 440 1096 408 q 1081 542 1096 496 l 1164 671 q 1218 740 1192 710 q 1269 789 1244 769 q 1408 840 1333 840 q 1422 840 1414 840 q 1443 838 1431 839 m 917 631 q 1029 542 974 631 q 881 332 996 460 q 819 494 819 413 q 839 581 819 546 q 853 603 847 594 q 868 617 860 613 q 888 625 876 622 q 917 631 900 628 z "},"B":{"ha":1067,"x_min":74,"x_max":1550,"o":"m 742 867 q 288 585 388 813 q 274 499 274 542 q 321 388 274 425 q 410 358 358 358 q 526 379 443 358 q 629 470 590 410 q 668 601 668 531 q 638 638 661 626 q 589 646 615 650 q 561 606 561 633 q 563 596 561 600 q 578 597 569 596 q 599 599 588 597 q 626 588 613 599 q 633 547 633 563 q 567 425 633 483 q 446 388 522 388 q 435 388 442 388 q 421 389 429 388 l 396 389 q 318 511 318 431 q 596 822 339 719 q 771 847 683 847 q 1025 772 935 847 l 914 683 q 715 422 828 614 q 575 190 597 222 q 369 25 489 74 q 296 17 333 17 q 204 31 244 17 q 115 103 115 60 q 142 157 115 139 q 125 168 139 168 l 107 168 q 74 113 74 157 q 74 100 74 107 q 75 85 74 94 q 158 11 89 43 q 211 3 186 6 q 260 0 236 0 q 524 100 408 0 q 629 209 576 146 q 735 356 682 272 q 779 429 736 358 q 908 643 822 500 l 975 715 q 1051 761 1011 753 q 1100 632 1100 696 q 1078 551 1100 590 q 981 474 1054 494 l 849 449 l 849 438 l 932 435 q 1004 303 1004 389 l 1004 282 q 953 129 1004 199 q 825 32 901 58 q 781 28 804 28 q 694 53 725 28 q 669 125 669 92 q 681 164 669 146 l 669 164 q 629 88 629 135 q 654 36 629 58 q 744 3 689 3 q 936 89 825 3 q 1014 194 992 157 q 1050 319 1050 260 q 1032 401 1050 364 q 990 460 1000 436 q 1012 467 1000 461 q 1039 482 1024 472 q 1085 511 1049 488 q 1150 656 1131 549 q 1088 792 1142 729 q 1285 825 1179 825 q 1494 789 1399 825 q 1519 774 1504 789 q 1539 758 1538 758 q 1550 763 1543 758 q 1426 842 1508 808 q 1294 864 1372 864 q 1061 801 1165 864 q 908 861 999 851 q 847 865 889 864 q 742 867 806 867 z "},"C":{"ha":801,"x_min":51,"x_max":1071,"o":"m 819 865 q 492 704 639 824 q 274 414 346 583 q 244 413 267 413 q 175 426 204 413 q 92 563 92 460 q 104 636 92 600 q 165 700 126 674 q 244 742 183 713 q 183 722 213 735 q 128 690 154 708 q 51 556 51 635 q 103 444 51 497 q 183 413 126 424 q 268 392 249 400 q 239 229 239 304 q 315 38 239 106 q 467 0 383 0 q 742 90 597 0 l 742 106 q 599 29 663 43 q 581 28 589 28 q 563 28 572 28 l 525 28 q 343 81 393 28 q 285 236 285 140 q 328 408 285 321 q 493 457 407 408 q 636 560 543 485 q 672 517 650 556 q 713 476 696 478 q 794 460 754 460 q 969 519 876 460 q 1061 704 1061 600 q 1060 729 1061 724 q 1071 747 1071 740 q 1059 763 1071 750 q 1047 786 1047 776 q 857 868 982 868 q 841 867 850 868 q 819 865 832 867 m 754 835 l 800 835 q 978 788 926 835 q 1019 671 1019 718 q 967 550 1019 619 q 888 489 932 506 q 786 476 851 476 l 769 476 q 711 539 728 497 q 707 565 707 553 q 710 594 708 581 q 714 624 711 608 q 661 593 699 628 q 636 570 649 582 q 613 547 624 558 q 339 428 506 457 q 501 681 403 574 q 754 835 618 803 z "},"D":{"ha":932,"x_min":69,"x_max":1467,"o":"m 1467 756 q 1238 867 1429 867 q 915 731 1049 867 q 1243 829 1083 829 q 1403 794 1335 829 q 1435 774 1417 792 q 1467 756 1453 756 m 567 868 q 310 810 440 868 q 119 639 160 742 q 86 511 86 551 q 138 353 86 413 q 265 304 179 304 q 309 307 285 304 q 365 315 333 310 q 496 421 449 353 q 543 576 543 489 q 513 631 538 608 q 456 653 488 653 q 347 578 369 638 q 446 621 407 621 q 490 590 479 600 q 514 517 514 569 q 424 361 514 449 q 306 336 367 336 q 211 354 249 336 q 132 463 171 372 q 131 496 131 469 q 324 813 131 683 q 519 856 447 856 q 863 696 724 856 q 783 609 822 660 q 708 494 744 558 q 627 351 661 411 q 571 251 593 292 q 394 54 499 129 q 344 57 375 54 q 272 65 313 60 q 201 74 232 71 q 151 76 171 76 q 124 76 136 76 q 101 74 111 75 q 69 49 69 67 q 71 40 69 43 q 206 0 115 0 q 317 13 256 0 q 385 5 351 7 q 450 3 418 3 q 893 207 756 3 q 988 481 988 322 q 965 625 988 558 q 804 808 911 743 q 567 868 703 868 m 868 678 q 938 456 938 585 q 885 242 938 344 q 760 92 836 147 q 576 31 674 31 l 500 42 q 421 54 435 50 q 592 203 531 115 q 649 297 615 238 q 728 444 683 357 q 868 678 808 603 m 111 40 q 165 67 133 67 l 304 25 q 208 11 264 11 q 111 40 140 11 z "},"E":{"ha":707,"x_min":42,"x_max":872,"o":"m 678 865 q 457 647 486 806 q 304 604 422 604 l 279 604 q 222 615 249 604 q 174 643 194 625 q 142 687 154 661 q 131 742 131 713 q 171 818 131 793 q 185 826 175 822 q 204 833 194 831 q 222 839 214 836 q 233 844 231 842 q 219 847 222 847 q 197 844 213 847 q 174 842 182 842 q 110 802 136 831 q 85 736 85 774 q 129 644 85 676 q 308 589 203 589 q 444 608 375 589 l 450 567 q 371 547 410 557 q 292 528 332 538 q 150 458 197 499 q 42 225 42 360 q 58 131 42 176 q 185 24 103 46 q 308 0 244 0 q 594 113 461 0 q 707 314 707 189 q 703 360 707 336 q 540 453 671 443 q 403 401 465 446 q 308 289 342 357 q 304 239 304 253 q 335 161 304 183 q 414 138 408 138 q 422 138 417 138 q 435 140 428 139 q 489 207 494 171 q 463 233 490 233 q 447 229 453 233 l 447 199 q 400 182 435 182 l 381 182 q 325 275 315 214 q 372 360 331 318 q 507 432 446 432 q 636 379 547 432 q 668 279 668 331 q 589 125 668 200 q 351 21 482 21 q 132 110 217 21 q 93 239 93 161 q 136 376 93 307 q 299 508 183 456 q 504 554 400 554 q 497 592 497 578 q 551 661 497 649 q 583 682 572 682 q 603 646 590 682 q 638 607 618 608 q 693 593 664 593 q 815 658 750 593 q 872 764 872 715 q 856 815 872 788 q 726 868 824 868 q 707 867 719 868 q 678 865 694 867 m 547 765 q 694 851 596 851 q 789 824 758 851 q 828 750 828 786 q 818 697 828 725 q 787 663 799 675 q 772 649 775 651 q 713 624 743 624 q 671 633 690 624 q 649 682 649 651 q 653 707 649 696 q 669 742 669 733 q 665 751 669 747 q 592 704 649 746 q 511 661 546 668 q 547 765 522 722 z "},"F":{"ha":765,"x_min":-4,"x_max":1432,"o":"m 175 636 q 168 590 168 608 q 222 478 168 519 q 346 439 261 439 q 387 440 360 439 q 428 442 414 442 q 647 610 539 461 q 654 640 654 626 q 646 672 654 657 q 597 697 631 697 l 579 697 q 463 654 511 697 l 497 672 q 538 679 522 679 q 599 658 574 679 q 611 633 611 651 q 606 603 611 618 l 593 610 l 583 589 l 593 599 l 599 594 q 401 449 521 449 q 233 543 275 449 q 222 578 233 549 q 211 619 211 608 q 246 681 211 638 q 415 803 336 790 q 674 835 528 835 q 779 831 717 835 q 926 819 842 826 q 1074 809 1011 813 q 1179 806 1136 806 q 1401 828 1313 806 q 1432 869 1432 842 q 1429 881 1432 872 q 1135 849 1310 849 q 1055 850 1103 849 q 942 854 1007 851 q 828 858 876 857 q 749 860 781 860 q 431 819 556 860 q 175 636 274 768 m 754 467 q 694 433 747 433 q 681 433 689 433 q 664 435 674 433 q 399 122 478 381 q 393 93 393 113 q 393 83 393 90 q 394 71 393 78 l 394 49 q 388 18 394 32 q 258 -11 371 -11 q 50 71 124 -11 q 44 94 44 81 q 56 132 44 110 q 67 156 63 147 q 72 168 71 165 l 39 174 q -4 106 -4 147 q -3 93 -4 97 q 31 32 0 57 l 131 -22 l 156 -22 q 174 -22 163 -22 q 200 -24 185 -22 l 246 -24 q 304 -19 272 -24 q 320 -16 310 -19 q 341 -9 331 -12 q 361 -3 351 -6 q 375 0 371 0 q 408 -51 394 0 q 443 -115 424 -108 q 426 -51 443 -100 q 415 13 411 -7 q 772 376 600 71 q 782 351 782 371 q 782 338 782 344 q 781 321 782 331 q 821 336 806 317 q 825 361 825 349 q 788 429 825 404 q 889 619 815 515 q 960 711 925 669 q 1032 785 996 753 q 865 647 946 735 q 754 467 774 549 m 603 372 q 621 376 610 372 q 644 383 632 379 q 669 391 657 388 q 689 394 681 394 q 706 393 701 394 q 645 274 674 325 q 590 186 617 222 q 415 35 513 76 q 465 228 415 139 q 603 372 514 318 z "},"G":{"ha":772,"x_min":49,"x_max":1050,"o":"m 669 863 q 332 646 449 793 q 264 454 264 560 q 347 279 264 326 q 479 233 424 233 q 563 249 517 233 q 616 269 593 260 q 654 288 639 279 l 779 358 q 644 156 721 243 q 449 28 542 38 q 343 17 385 21 q 282 13 301 13 q 108 101 151 13 q 133 164 100 118 q 115 175 128 165 q 94 182 101 185 q 49 121 49 157 q 93 50 49 74 l 165 21 q 281 0 224 -3 l 318 0 l 356 0 q 626 94 482 0 q 813 311 775 193 q 851 400 832 372 q 883 443 871 428 q 897 464 894 458 q 851 435 879 454 q 782 386 822 417 q 708 334 739 356 q 654 300 676 313 q 529 260 581 260 q 368 339 469 260 q 311 464 311 383 q 469 721 311 581 q 785 869 639 869 q 950 815 881 869 q 990 768 983 788 q 995 741 993 754 q 1000 714 997 728 l 1000 697 q 964 593 1000 629 q 842 539 910 539 q 754 553 801 539 q 699 608 699 567 q 761 656 699 656 q 797 647 781 656 l 797 660 q 793 686 797 675 q 743 706 782 706 q 685 683 711 706 q 658 628 658 660 q 715 549 658 578 q 817 525 763 525 q 969 578 896 525 q 1050 713 1050 633 q 1033 785 1050 739 q 947 865 1013 838 q 828 888 894 888 q 669 863 753 888 z "},"H":{"ha":1454,"x_min":96,"x_max":2001,"o":"m 1594 765 q 1544 711 1579 754 q 1488 665 1514 674 l 1493 663 l 1404 564 q 1317 462 1354 506 q 1253 388 1279 418 q 1124 285 1172 294 q 1026 268 1054 268 q 967 281 985 268 l 1129 546 q 1164 539 1146 546 q 1204 497 1204 518 q 1192 469 1204 488 q 1178 442 1179 450 l 1204 429 q 1253 501 1253 449 q 1210 544 1240 528 q 1151 567 1199 551 l 1221 701 q 1414 863 1246 799 q 1278 832 1358 832 q 1128 850 1226 832 q 976 868 1029 868 q 778 778 851 868 l 778 765 q 799 678 778 703 q 940 643 833 643 q 989 666 971 657 q 1014 681 1007 675 q 1065 742 1053 704 l 994 682 q 958 678 975 679 q 925 676 940 676 q 849 692 882 676 q 808 769 808 711 l 808 786 q 958 850 864 850 q 1097 831 1003 850 q 1179 816 1144 821 q 1238 811 1214 811 q 1283 815 1260 811 q 1278 802 1281 813 q 1271 789 1276 792 q 1186 681 1228 735 q 1103 572 1144 626 l 1051 567 q 921 515 988 561 q 851 411 861 475 q 844 369 844 386 q 897 261 844 299 q 853 190 883 222 q 818 154 833 169 q 793 129 803 139 q 467 7 644 7 q 310 42 381 7 q 193 133 236 64 q 143 276 149 199 q 254 492 143 381 q 446 544 340 544 q 649 394 649 544 q 647 374 649 378 q 578 239 643 304 q 471 207 521 207 q 429 213 446 207 q 371 283 371 243 q 436 349 371 333 q 422 356 429 356 q 405 351 418 356 q 382 349 392 346 q 326 278 326 311 q 336 243 326 263 q 447 192 354 200 q 696 365 628 211 q 698 398 697 383 q 699 424 699 413 q 668 510 699 483 q 468 557 583 557 q 219 486 317 557 q 185 447 200 464 q 157 414 169 429 q 96 267 96 340 q 97 240 96 247 q 154 100 97 165 q 282 15 206 39 q 356 4 321 8 q 426 0 392 0 q 931 233 732 0 l 943 233 q 950 233 946 233 q 963 232 956 233 q 1279 393 1135 232 l 1285 386 l 1201 236 q 1165 169 1179 197 q 1143 126 1150 142 q 1122 58 1122 81 q 1140 22 1122 32 q 1174 18 1157 18 q 1269 49 1233 18 q 1365 136 1350 104 q 1314 92 1333 108 q 1289 71 1294 75 q 1200 33 1239 33 q 1171 76 1171 46 q 1186 119 1171 78 q 1264 263 1206 172 q 1310 332 1288 297 q 1356 401 1332 367 q 1414 499 1389 457 q 1454 569 1439 542 q 1849 842 1614 842 q 1914 838 1881 842 q 1951 808 1926 833 q 1990 782 1981 783 q 2001 807 2001 789 q 1996 838 2001 822 q 1872 868 1943 868 q 1594 765 1743 868 m 1304 821 l 1296 821 l 1296 828 l 1304 828 l 1304 821 m 882 404 q 950 521 882 499 q 1075 546 993 535 q 996 419 1042 514 q 919 296 953 326 q 882 404 882 338 z "},"I":{"ha":858,"x_min":58,"x_max":1222,"o":"m 1115 818 l 1119 814 q 968 628 1044 753 q 918 538 950 597 q 840 389 886 479 q 770 258 801 313 q 714 168 739 203 q 590 57 657 89 q 529 35 568 46 q 432 13 490 24 l 382 13 q 233 42 297 13 q 131 135 168 71 q 96 267 96 194 q 129 383 96 335 q 386 519 204 519 q 496 479 456 501 q 533 435 526 463 q 546 378 540 407 l 546 363 q 496 238 546 292 q 375 183 446 183 q 333 189 350 183 q 272 263 272 221 q 286 304 272 281 q 298 326 293 318 q 304 339 303 335 q 244 282 274 319 q 240 256 240 269 q 270 192 240 214 q 343 169 300 169 q 483 210 379 169 q 586 390 586 300 q 500 513 586 464 q 404 540 457 540 q 219 485 329 540 q 104 374 150 449 q 58 222 58 300 q 171 38 58 96 q 311 0 226 0 q 532 35 367 0 q 771 193 697 89 q 838 306 790 221 q 960 535 885 392 q 1175 844 1074 753 q 1221 868 1222 854 q 1167 849 1208 868 q 1115 818 1126 829 m 675 828 q 725 836 700 836 q 861 801 769 836 q 992 767 953 767 q 1100 808 1050 767 q 1028 794 1067 794 q 899 824 988 794 q 771 854 811 854 q 675 828 718 854 m 665 817 q 594 710 594 763 q 628 643 594 664 l 674 622 q 711 618 692 618 q 876 696 786 618 l 874 707 q 868 694 871 697 q 742 644 826 644 q 665 663 699 644 q 631 729 631 682 q 665 817 631 778 z "},"J":{"ha":1261,"x_min":-19,"x_max":1629,"o":"m 953 804 q 915 735 915 789 q 921 701 915 714 q 986 646 943 660 q 1074 638 1013 638 l 1099 638 q 1204 704 1192 676 q 1174 686 1193 701 q 1144 667 1154 668 q 1131 665 1138 665 q 1117 665 1124 665 l 1088 665 q 1006 676 1039 665 q 946 751 946 694 q 981 822 946 786 q 1065 849 1021 849 q 1190 811 1113 849 q 1310 761 1278 768 q 1351 753 1328 753 q 1419 767 1379 753 q 1486 786 1471 785 q 1386 690 1432 739 q 1301 588 1340 640 q 1228 481 1271 546 q 1129 326 1185 415 q 1031 172 1074 238 q 956 63 988 106 q 901 157 901 104 q 906 182 901 163 q 967 226 914 226 q 985 222 974 226 q 1001 197 997 218 q 1015 175 1006 176 q 1031 219 1035 192 q 990 272 1033 246 q 975 274 986 274 q 906 247 953 274 q 879 168 876 196 q 956 46 879 110 q 849 -100 907 -29 q 724 -239 792 -171 q 361 -400 563 -400 q 293 -396 324 -400 q 97 -286 164 -375 q 19 -85 19 -183 q 139 169 19 50 q -19 -164 -19 67 q 61 -315 -7 -249 q 338 -415 165 -415 q 719 -278 533 -415 q 999 25 871 -165 q 1015 23 1008 24 q 1028 22 1022 22 q 1218 108 1121 22 l 1210 115 q 1158 82 1183 99 q 1106 50 1132 65 q 1074 45 1094 50 q 1043 40 1053 40 q 1014 51 1028 40 q 1164 301 1065 131 q 1247 445 1215 390 q 1292 521 1279 500 q 1370 638 1332 588 q 1443 724 1408 688 q 1488 768 1467 750 q 1528 797 1510 786 q 1629 844 1553 813 q 1524 819 1590 849 q 1415 785 1446 785 q 1253 826 1361 785 q 1092 868 1144 868 q 953 804 1013 868 m 151 183 q 403 264 257 264 q 594 192 539 264 q 633 76 633 139 q 600 -61 633 14 q 346 -199 501 -199 q 236 -164 271 -199 q 201 -86 201 -129 q 222 -19 201 -47 q 296 25 254 14 q 260 -6 293 18 q 233 -51 233 -28 q 232 -64 232 -54 q 265 -136 232 -103 q 372 -190 292 -171 q 493 -150 436 -190 q 600 31 600 -71 q 521 189 600 131 q 347 242 449 242 q 210 210 271 242 q 151 183 172 185 z "},"K":{"ha":1036,"x_min":69,"x_max":1456,"o":"m 1369 868 q 1214 796 1281 854 q 1081 646 1157 747 q 953 492 997 536 l 911 475 q 863 463 882 463 q 833 468 844 463 q 933 669 899 614 q 1082 833 994 772 q 1115 839 1088 839 q 1133 853 1132 839 q 1049 821 1104 853 q 938 779 978 779 q 790 818 890 779 q 639 858 686 858 q 538 813 581 840 q 469 721 469 769 q 483 647 469 681 q 608 596 529 596 q 631 597 625 596 q 765 689 744 635 q 742 671 758 688 q 632 631 706 631 q 535 650 585 631 q 526 664 532 656 q 511 683 519 672 q 501 724 500 704 q 610 832 531 832 q 747 792 643 832 q 896 751 851 751 q 943 758 922 751 q 974 775 960 775 q 986 769 981 775 q 788 486 892 661 l 608 190 q 294 14 463 14 q 193 32 242 14 q 169 51 182 42 q 144 71 157 60 q 115 129 115 93 q 161 211 115 179 l 143 225 q 126 226 139 226 q 69 158 69 226 q 82 92 69 143 q 286 0 129 0 q 403 17 349 0 q 505 65 457 33 q 597 140 553 96 q 682 242 640 185 q 726 304 690 253 q 825 449 761 356 q 839 451 833 451 q 883 433 853 451 q 906 364 906 403 q 850 226 906 319 q 803 143 819 175 q 785 97 788 111 l 779 97 q 778 82 778 93 q 788 50 778 68 q 804 21 801 22 q 844 11 822 11 q 914 38 871 11 q 960 65 943 56 q 981 76 976 75 l 981 101 q 860 35 932 35 q 831 103 825 51 q 935 346 925 285 q 881 453 935 411 l 961 490 q 1111 639 1028 522 q 1219 779 1200 760 q 1378 843 1285 843 q 1403 807 1403 832 q 1397 775 1403 796 l 1428 775 q 1449 819 1456 796 q 1418 856 1443 846 q 1369 868 1407 863 z "},"L":{"ha":783,"x_min":46,"x_max":1033,"o":"m 707 832 q 547 697 572 778 q 510 503 529 642 q 472 292 489 358 q 390 125 440 178 l 347 125 q 50 68 140 125 q 75 15 46 31 q 131 10 99 10 q 289 53 213 10 q 367 89 321 89 q 446 72 397 89 q 494 57 475 63 q 524 50 514 51 q 590 26 542 54 q 647 0 638 0 q 689 36 672 0 q 550 90 628 68 q 496 104 532 96 q 403 125 460 113 q 533 353 500 206 q 554 621 554 446 q 633 761 578 701 q 769 842 693 826 q 819 849 808 849 q 967 776 911 849 q 992 672 992 701 q 981 626 992 651 q 925 513 964 557 q 819 447 883 463 l 799 447 q 742 456 764 447 q 700 511 700 469 q 731 543 700 529 q 765 568 764 558 l 747 588 q 728 592 739 592 q 688 581 707 592 q 660 499 660 557 q 719 436 660 471 q 760 432 740 432 q 939 506 853 432 q 1033 703 1033 607 q 1021 776 1033 739 q 849 868 972 868 q 707 832 772 868 m 124 92 q 224 101 164 101 q 328 90 286 101 q 176 43 250 43 q 108 54 138 43 q 111 73 104 58 q 124 92 118 88 z "},"M":{"ha":1581,"x_min":96,"x_max":2007,"o":"m 2006 868 l 1953 828 q 1938 826 1944 826 q 1928 825 1932 825 q 1874 835 1908 825 q 1817 844 1839 844 q 1731 861 1772 861 q 1463 722 1610 861 q 1478 769 1464 732 q 1489 821 1489 800 q 1419 865 1472 857 q 1131 678 1279 843 q 1125 693 1125 682 q 1078 801 1117 754 q 944 867 1024 867 q 772 794 861 867 q 685 619 685 724 q 697 551 685 585 q 803 472 757 472 q 874 506 840 472 q 900 575 907 539 q 860 611 892 622 q 864 586 864 599 q 804 528 864 528 q 764 533 785 528 q 704 661 704 564 q 760 764 721 717 q 917 842 825 842 q 1039 793 994 842 q 1072 668 1072 735 q 1019 479 1072 585 q 925 303 968 379 q 836 192 901 261 l 733 89 q 868 195 806 136 q 980 323 931 254 q 1065 468 1029 392 q 1122 626 1101 544 q 1414 842 1254 842 q 1446 803 1446 825 q 1418 751 1446 796 l 1271 518 q 1085 217 1163 344 q 960 6 1008 90 l 1011 6 q 1073 104 1035 40 q 1167 261 1111 168 q 1265 424 1222 354 q 1339 538 1307 493 q 1550 785 1443 688 q 1682 824 1606 824 q 1843 790 1756 824 q 1762 744 1796 764 q 1706 708 1728 724 q 1314 71 1344 392 q 1319 61 1315 68 q 1328 40 1322 54 q 1386 7 1340 7 q 1564 115 1469 7 l 1561 119 q 1511 74 1542 108 q 1422 21 1463 21 q 1361 85 1361 21 q 1367 124 1364 104 q 1374 163 1371 143 q 1726 706 1472 451 q 1810 763 1743 711 q 1900 801 1861 801 q 1936 796 1921 801 q 1984 824 1961 803 q 2006 868 2007 844 m 235 497 q 96 265 96 404 q 106 200 96 233 q 222 47 122 133 q 443 0 315 0 q 582 14 532 0 q 628 31 597 18 q 706 63 658 43 q 725 88 719 71 q 672 61 696 72 q 631 40 649 50 q 469 8 563 8 q 179 158 267 8 q 143 294 143 219 q 168 400 143 350 q 444 536 258 536 q 617 401 549 536 q 621 360 621 381 q 610 299 621 328 q 578 248 599 271 q 528 212 558 225 q 461 199 499 199 q 413 203 435 199 q 346 282 346 253 q 347 289 346 285 q 349 300 347 293 q 399 329 361 329 q 414 328 411 329 l 414 344 q 368 365 397 365 q 344 360 351 365 q 301 294 301 350 q 328 231 301 257 q 443 181 374 181 q 610 254 532 181 q 660 372 660 293 q 653 429 660 399 q 438 558 583 558 q 235 497 325 558 z "},"N":{"ha":1246,"x_min":76,"x_max":1607,"o":"m 522 22 q 433 7 481 7 q 324 25 374 7 q 119 299 119 89 q 140 363 125 332 q 174 420 154 394 q 220 466 194 446 q 275 496 246 486 q 386 519 354 519 q 514 468 457 519 q 572 350 572 418 q 564 294 572 332 q 545 251 560 271 q 511 217 531 232 q 468 193 492 201 q 421 185 444 185 q 386 189 407 185 q 360 199 374 190 q 335 220 346 208 q 317 247 324 232 q 310 274 310 261 l 310 281 q 313 296 310 285 q 339 318 317 307 q 349 323 342 319 q 371 332 357 326 q 336 357 364 357 q 310 347 325 357 q 275 263 275 329 q 314 193 275 219 q 394 171 349 171 q 540 231 472 171 q 610 367 610 292 q 590 436 610 390 q 392 532 549 532 q 300 524 363 532 q 175 468 242 518 q 93 360 108 417 q 76 258 76 293 q 135 104 76 171 q 392 -4 231 -4 q 536 18 469 -4 q 799 179 632 49 q 938 365 881 244 q 994 497 969 440 q 1036 592 1019 553 q 1172 783 1089 710 q 1308 819 1229 819 q 1460 794 1378 819 q 1308 675 1376 736 q 1197 535 1242 592 q 1131 449 1153 479 q 1001 82 1001 271 q 1014 46 1001 60 q 1089 21 1031 21 q 1178 61 1140 21 q 1197 88 1183 67 q 1235 146 1211 110 q 1181 75 1224 113 q 1106 39 1138 39 q 1050 69 1071 39 q 1032 131 1032 96 q 1096 300 1032 182 q 1153 408 1128 361 q 1199 492 1179 456 q 1333 675 1258 597 q 1540 807 1421 767 l 1585 831 q 1606 868 1607 843 l 1592 868 q 1513 835 1560 835 q 1479 838 1499 835 q 1432 846 1460 840 q 1353 858 1379 858 q 1326 857 1332 858 q 1043 647 1186 857 q 1000 775 1033 726 q 863 842 951 842 q 686 756 776 842 q 619 593 619 669 q 628 546 619 568 q 651 507 636 524 q 687 480 667 490 q 732 469 707 469 q 777 480 754 469 q 811 510 800 490 q 831 554 821 521 q 826 563 829 557 q 819 581 824 569 q 807 589 813 589 q 797 585 803 589 q 800 561 800 582 q 765 513 800 543 q 742 508 754 508 q 679 531 706 508 q 639 614 639 563 q 799 819 639 769 q 815 822 801 819 l 832 822 q 976 742 938 822 q 993 633 993 685 q 958 481 993 572 q 776 215 915 365 q 522 22 636 67 z "},"O":{"ha":672,"x_min":40,"x_max":1000,"o":"m 704 865 q 332 713 514 847 q 89 396 146 574 q 74 346 82 371 q 57 297 65 321 q 40 196 40 239 q 93 50 40 115 q 229 -17 149 -17 q 510 113 340 -17 q 594 202 558 163 q 653 269 629 242 q 771 557 771 410 q 769 592 771 576 q 765 622 768 608 q 728 672 742 656 q 653 699 706 699 q 447 599 574 699 q 399 528 417 556 q 375 490 382 501 q 339 368 339 425 q 354 300 339 326 q 388 267 369 274 q 433 263 400 263 q 474 301 474 288 q 471 314 474 306 q 446 308 461 315 q 424 301 431 301 q 407 307 413 301 q 380 330 392 313 q 367 379 368 347 q 433 554 364 468 q 585 669 497 633 q 617 674 601 674 q 703 636 665 674 q 726 531 726 582 q 694 399 726 467 q 610 261 654 315 q 549 176 579 213 q 486 113 518 139 q 321 26 411 50 l 308 26 l 299 26 q 283 25 292 25 q 183 42 228 24 q 111 114 138 61 q 89 214 89 160 q 139 396 89 256 q 363 710 206 578 q 715 850 532 850 q 853 818 804 838 q 951 724 924 786 q 956 699 956 711 q 922 629 956 660 q 939 618 929 618 q 988 644 961 618 q 1000 703 1000 669 q 989 758 1000 732 q 753 869 897 869 q 704 865 743 869 z "},"P":{"ha":946,"x_min":58,"x_max":1217,"o":"m 1036 863 q 1001 867 1017 865 q 976 868 986 868 l 935 868 q 351 607 554 868 q 307 461 307 515 q 340 368 307 410 q 456 328 385 328 q 582 351 515 328 q 689 431 688 404 q 501 353 586 353 q 458 358 475 356 q 432 364 440 361 q 376 401 397 374 q 357 469 357 438 q 363 508 357 492 q 779 847 403 763 l 839 847 q 1026 828 960 847 q 1164 710 1126 796 q 1172 663 1172 685 q 1144 579 1172 624 q 1124 552 1138 569 q 1088 508 1110 535 q 969 464 1022 464 q 938 468 954 464 q 999 589 953 518 q 1038 646 1018 617 q 1076 703 1057 675 q 1096 722 1079 710 q 1115 743 1113 735 q 983 624 1049 703 q 938 563 964 600 q 878 478 911 526 l 860 478 q 797 571 797 517 q 819 611 794 597 q 835 618 822 614 q 867 629 847 622 q 836 650 864 650 l 808 650 q 765 582 765 629 q 774 546 765 565 q 815 500 782 526 q 865 463 815 497 q 738 242 810 344 q 346 4 568 4 q 176 39 279 4 q 106 140 96 90 q 133 172 110 157 q 160 194 157 188 q 133 211 153 211 q 122 211 129 211 q 107 210 117 211 q 58 129 58 197 q 106 46 58 79 q 306 0 194 0 q 647 97 483 0 q 763 224 725 182 q 801 265 801 265 q 925 450 893 372 q 1122 507 1038 450 q 1217 682 1217 572 q 1211 733 1217 713 q 1143 819 1192 785 q 1036 863 1094 854 z "},"Q":{"ha":679,"x_min":46,"x_max":969,"o":"m 589 849 q 742 868 679 868 q 967 754 917 868 q 969 738 968 744 q 969 725 969 731 q 926 640 969 663 l 900 640 q 932 711 932 668 q 913 775 932 729 q 813 842 889 822 q 686 863 796 849 l 589 849 m 554 838 q 575 843 563 838 q 569 838 575 838 l 554 838 m 543 835 q 301 704 417 804 q 122 490 190 608 q 46 226 46 358 q 69 89 46 153 q 229 10 117 10 q 258 12 243 10 q 290 17 272 14 q 349 46 319 46 q 415 22 365 46 q 483 0 461 0 q 531 14 504 0 q 654 131 654 54 q 633 111 639 128 q 619 85 628 90 l 603 99 l 603 88 q 608 79 606 81 q 579 54 601 76 q 542 33 558 33 q 511 28 529 28 q 419 69 471 28 q 592 232 521 153 q 746 606 746 403 q 664 708 738 667 q 629 713 644 713 q 490 664 583 713 q 318 367 318 535 q 319 338 318 344 q 344 297 340 304 q 385 275 363 275 q 401 269 390 269 q 450 297 411 269 q 458 328 458 315 q 442 351 458 344 l 422 325 q 407 325 415 325 q 393 326 400 325 q 358 361 371 328 q 349 413 349 385 q 432 599 349 486 q 597 688 525 688 q 633 683 614 688 q 700 592 700 631 l 700 578 l 700 568 q 701 553 701 561 q 408 86 704 300 l 351 144 q 272 168 319 168 q 218 158 239 168 q 175 101 175 133 q 178 89 175 100 q 197 108 189 90 q 211 129 204 125 q 254 143 231 143 q 275 139 264 143 q 357 56 326 111 q 250 31 307 31 q 115 118 149 31 l 90 213 q 225 588 90 414 q 543 835 350 750 z "},"R":{"ha":968,"x_min":72,"x_max":1515,"o":"m 1265 868 q 1113 838 1190 868 q 1053 811 1089 828 q 971 769 1018 794 q 718 853 879 853 q 532 831 647 853 q 344 733 436 813 q 228 564 254 656 q 226 549 226 558 q 226 528 226 540 q 271 414 226 450 q 372 382 324 382 q 410 388 394 382 q 568 479 497 401 q 656 642 635 550 q 647 643 653 643 q 628 635 640 643 q 610 629 615 628 q 579 514 594 556 q 400 404 536 404 q 332 414 360 404 q 267 525 267 471 q 344 703 267 628 q 674 843 492 843 q 940 740 840 843 q 772 529 861 672 l 635 292 q 553 166 592 217 q 481 85 515 115 l 457 64 q 635 232 543 115 l 700 353 q 764 408 731 408 q 824 381 789 408 q 825 356 825 375 q 760 133 825 300 l 757 111 q 756 100 756 106 q 756 88 756 94 q 783 18 756 39 q 881 38 849 18 l 926 75 q 950 115 950 94 q 946 131 950 122 q 910 83 936 110 q 892 66 903 76 q 865 43 881 56 q 840 39 853 39 q 796 68 806 39 q 821 188 796 106 q 847 308 847 267 q 810 408 847 364 q 947 457 883 421 q 1042 619 1042 511 q 988 758 1042 704 q 1263 822 1111 822 q 1443 790 1360 822 q 1471 768 1453 789 q 1500 749 1490 749 q 1515 754 1510 749 q 1407 840 1483 815 q 1361 850 1396 843 q 1265 868 1326 857 m 79 136 q 72 107 72 118 q 106 39 72 72 q 233 0 158 0 q 449 61 324 0 q 279 19 363 19 q 206 29 239 19 q 121 103 121 51 q 149 144 121 132 q 115 161 140 161 q 79 136 83 161 m 957 721 q 983 668 975 701 q 987 651 985 665 q 994 608 989 636 q 962 507 994 554 q 879 439 929 460 q 785 419 810 419 q 763 421 768 419 q 843 583 839 578 q 957 721 896 676 m 824 453 l 824 446 l 832 446 l 832 453 l 824 453 m 938 700 l 940 689 q 946 700 946 699 l 938 700 z "},"S":{"ha":825,"x_min":50,"x_max":1058,"o":"m 826 849 q 713 733 738 807 q 700 658 700 700 q 765 408 700 597 q 774 342 774 375 q 664 101 774 194 q 408 7 554 7 q 232 44 317 7 q 113 165 128 88 q 94 279 94 260 q 232 519 94 436 q 368 553 300 553 q 479 521 431 553 q 579 369 579 451 q 543 265 579 311 q 451 199 507 218 l 426 199 q 303 254 325 199 q 294 281 294 268 q 315 324 294 300 q 347 360 346 357 l 300 367 q 256 267 256 347 q 274 239 263 251 q 299 215 285 226 q 389 185 333 185 q 543 233 478 185 q 615 375 615 288 q 592 469 615 429 q 429 568 526 553 q 104 439 226 568 q 50 274 50 361 q 61 201 50 235 q 188 51 97 106 q 379 1 272 1 l 392 1 l 401 1 q 417 0 408 0 q 624 53 515 0 q 778 197 738 111 q 818 342 818 286 q 772 526 818 406 q 726 713 726 649 q 740 753 729 733 q 765 792 750 774 q 798 823 779 810 q 836 843 817 836 q 888 847 861 847 q 939 840 914 847 q 1005 788 979 826 q 1031 707 1031 750 q 1025 671 1031 682 q 971 599 1017 619 q 939 594 956 594 q 872 631 896 594 q 911 696 867 661 l 900 704 q 888 706 897 706 q 835 672 849 706 q 833 658 833 668 q 865 590 833 606 q 906 579 885 579 q 950 583 925 579 q 1024 639 994 597 q 1058 729 1053 681 q 1006 835 1058 797 q 913 868 968 868 q 826 849 872 868 z "},"T":{"ha":758,"x_min":67,"x_max":1369,"o":"m 1088 838 l 1076 826 l 949 831 q 851 833 894 832 q 772 833 807 833 q 346 753 503 833 q 251 672 288 722 q 210 557 210 615 l 210 540 q 283 442 232 472 q 388 419 332 419 q 506 446 444 419 q 607 514 567 472 q 631 539 621 528 q 645 561 640 550 q 652 585 650 572 q 654 617 654 597 q 653 633 654 624 q 651 657 653 643 q 558 693 632 693 q 489 638 496 653 q 503 646 494 640 q 526 660 513 651 q 572 668 551 672 q 621 582 621 653 q 572 499 611 535 q 417 440 514 440 q 297 481 342 440 q 254 583 254 550 q 265 635 254 606 q 515 807 342 782 q 622 805 558 807 q 771 797 685 803 q 1026 789 942 789 q 1176 794 1104 789 q 1317 811 1249 800 q 1367 868 1369 819 q 1121 838 1288 838 l 1088 838 m 399 26 q 310 18 353 18 q 117 94 185 18 q 114 107 114 106 q 143 153 114 133 l 131 164 q 118 165 126 165 q 71 139 85 165 q 67 114 67 126 q 94 50 67 85 q 283 0 178 0 q 497 56 392 0 q 608 128 564 90 q 679 207 653 167 q 729 303 696 235 q 811 483 763 372 q 963 739 890 661 q 989 754 975 740 l 1018 783 q 803 550 886 710 q 711 367 750 444 q 646 239 672 290 q 399 26 561 83 z "},"U":{"ha":929,"x_min":56,"x_max":1179,"o":"m 535 858 q 447 868 504 868 q 303 839 369 868 q 229 801 264 822 q 164 754 194 781 q 85 658 115 714 q 56 554 56 610 q 69 483 56 521 q 208 399 94 411 q 418 528 315 399 q 443 607 443 567 q 425 665 443 643 q 398 685 418 681 q 360 693 378 689 q 243 613 283 679 l 286 644 q 340 664 314 664 q 381 654 375 654 q 406 619 397 643 q 409 603 407 614 q 414 575 411 593 q 408 553 411 567 q 400 522 406 540 q 365 478 390 496 q 261 438 333 438 q 167 451 214 438 q 92 611 92 472 q 183 763 107 694 q 340 844 257 831 q 590 781 543 844 q 635 656 635 719 q 631 613 635 631 q 560 464 619 569 q 429 244 485 338 q 335 88 374 150 q 333 67 333 76 q 333 46 333 57 q 360 0 333 10 q 536 47 451 0 q 685 158 599 81 q 661 108 682 142 q 639 51 639 74 q 661 10 639 28 q 706 1 683 1 q 807 39 750 1 q 851 71 829 54 q 897 103 874 88 l 899 115 q 832 67 854 83 q 810 51 810 51 q 710 15 757 15 q 694 28 700 17 q 682 51 688 40 q 760 174 719 110 q 843 310 800 238 q 1043 639 960 506 q 1179 846 1126 772 l 1092 832 q 938 565 1060 782 q 832 388 879 464 q 744 261 785 313 q 479 19 624 106 q 446 15 464 15 q 381 46 399 15 q 403 108 390 78 q 433 169 415 139 q 454 203 436 174 q 507 286 472 232 q 585 409 557 365 q 619 464 613 453 q 686 657 686 585 q 657 768 686 719 q 535 858 617 835 z "},"V":{"ha":694,"x_min":76,"x_max":1606,"o":"m 1597 753 q 1433 856 1558 815 q 1310 868 1368 868 q 988 764 1129 868 q 743 517 868 675 q 678 426 728 497 q 540 232 628 354 l 461 119 q 365 25 401 42 q 343 54 343 31 q 476 306 343 57 q 655 611 572 483 q 808 819 738 739 q 835 837 821 828 q 851 856 850 846 q 828 852 839 854 q 803 833 818 850 q 665 781 754 781 q 501 815 614 781 q 332 850 389 850 q 156 786 224 850 q 76 650 76 713 q 117 556 76 621 q 264 507 178 507 q 346 522 308 507 q 500 660 476 578 l 421 585 q 282 542 365 542 q 168 569 217 542 q 103 683 103 622 q 150 768 103 726 q 285 821 200 821 q 525 765 349 821 q 590 750 543 750 l 615 750 q 660 744 643 750 q 754 775 715 775 q 667 659 707 714 q 593 554 626 604 q 360 175 486 397 q 294 40 294 60 q 300 22 294 29 q 335 0 314 0 l 390 22 q 485 136 426 61 q 624 324 543 211 q 879 635 778 540 q 1229 821 1040 783 l 1296 821 q 1461 808 1403 821 q 1606 735 1549 789 l 1606 753 l 1597 753 z "},"W":{"ha":990,"x_min":92,"x_max":1917,"o":"m 615 1 q 701 51 643 -6 q 799 168 744 93 q 885 296 813 188 q 1020 474 946 388 q 1183 643 1094 560 q 1636 847 1401 847 q 1917 744 1818 847 q 1747 854 1861 824 q 1606 871 1685 871 q 1253 739 1433 871 q 868 314 1063 599 q 658 17 667 17 q 638 50 638 17 q 639 60 638 57 q 686 143 653 82 q 775 306 719 204 q 969 642 881 503 q 1132 865 1058 781 l 1118 865 q 874 631 981 781 q 749 451 803 529 q 660 319 696 374 q 558 181 601 236 q 483 96 515 125 q 460 74 472 85 q 438 51 449 63 q 383 25 401 19 q 364 54 364 32 q 481 293 364 90 q 607 501 540 394 q 750 722 674 608 q 851 842 815 819 q 842 857 849 857 q 804 821 832 857 q 689 779 760 779 q 533 819 621 779 q 506 835 519 831 q 375 849 440 849 q 101 721 181 849 q 92 679 92 703 q 106 596 92 665 q 157 544 124 563 q 184 532 167 539 q 228 518 201 525 q 276 514 253 514 q 522 654 415 514 l 515 661 q 407 568 468 596 q 303 554 353 554 q 158 603 211 554 q 121 685 121 636 q 132 740 121 711 q 313 825 204 825 q 504 788 376 825 q 696 750 631 750 q 744 772 724 764 q 779 786 764 781 l 611 556 q 455 331 518 428 q 356 165 392 233 q 307 47 307 71 q 322 12 307 26 q 357 -3 336 -3 q 468 64 399 -3 q 583 188 526 119 q 693 340 639 257 q 864 599 807 515 q 1054 810 950 724 l 1061 804 l 893 571 q 816 461 849 510 q 760 374 783 413 q 686 253 711 294 q 658 208 661 211 q 593 28 606 110 q 615 1 596 8 z "},"X":{"ha":1063,"x_min":57,"x_max":1197,"o":"m 669 822 q 501 868 594 868 q 324 817 396 868 q 222 706 261 774 q 181 561 181 635 q 181 544 181 554 q 183 519 182 533 q 261 425 201 456 q 344 411 307 411 q 422 429 392 411 q 551 610 551 506 q 547 643 551 624 q 488 676 536 676 q 446 672 464 676 q 385 594 386 644 q 410 626 390 607 q 460 653 436 653 q 521 619 497 653 q 529 575 529 599 q 511 518 529 549 q 441 460 489 481 q 346 439 393 439 l 325 439 q 226 525 260 463 q 213 599 213 557 q 271 753 213 686 q 482 844 351 844 q 590 826 542 844 l 672 764 q 725 679 713 725 q 730 630 728 651 q 732 592 732 608 q 661 314 732 457 q 478 96 585 164 q 244 11 343 11 q 122 50 169 11 q 100 99 100 72 q 124 140 100 125 q 135 140 128 142 q 150 135 143 139 q 164 130 157 132 q 175 128 171 128 q 144 178 175 157 q 65 147 94 182 q 57 114 57 131 q 110 25 57 69 q 239 0 176 0 q 635 217 428 0 q 690 33 635 76 q 801 8 744 8 q 904 39 868 8 q 1082 311 1082 183 q 1075 361 1082 331 q 1004 419 1050 419 q 988 415 996 419 q 871 318 918 415 q 878 317 874 317 q 886 332 883 317 q 968 379 908 379 q 982 378 974 379 q 1001 376 990 378 q 1047 321 1032 363 q 1054 272 1054 289 q 942 83 1054 164 q 819 35 874 35 q 763 47 789 35 q 692 113 715 47 q 803 536 692 339 q 1113 838 915 733 q 785 586 899 747 q 775 646 785 613 q 765 685 768 671 q 761 706 763 700 q 742 738 751 721 q 721 769 732 754 q 669 822 693 808 m 1171 856 q 1185 859 1179 858 q 1197 861 1192 860 q 1171 856 1192 863 m 1124 842 q 1160 851 1144 846 q 1124 842 1142 853 z "},"Y":{"ha":793,"x_min":-196,"x_max":1426,"o":"m 178 -365 q 249 -341 219 -351 q 293 -321 278 -331 q 396 -242 329 -301 q 747 289 551 -99 q 839 472 808 410 q 872 536 869 533 q 1050 747 954 678 q 1169 806 1110 790 q 1300 817 1218 817 q 1353 807 1333 817 q 1389 728 1389 788 l 1389 710 q 1426 754 1426 710 q 1414 803 1426 774 q 1276 864 1386 864 q 1079 799 1178 864 q 875 583 969 725 q 769 419 814 490 q 694 300 725 349 q 600 167 647 225 q 506 67 553 110 q 488 83 496 75 q 474 97 481 90 q 408 122 446 122 q 290 99 325 122 q 492 296 397 185 q 642 613 642 472 q 578 778 642 706 q 369 864 500 864 q 150 794 231 864 q 96 742 118 765 q 61 704 74 719 q 19 589 19 647 q 36 514 19 557 q 206 421 69 421 q 342 463 281 421 q 439 613 439 529 q 410 683 439 653 q 340 713 381 713 q 315 711 322 713 l 285 706 q 217 640 242 697 l 228 640 q 300 694 250 694 q 360 671 325 694 q 417 585 417 631 q 360 483 417 524 q 239 444 304 444 q 199 449 221 444 q 85 511 132 457 q 57 613 57 569 q 122 756 57 686 q 342 840 203 840 q 540 749 479 840 q 585 596 585 676 q 453 279 585 449 q 314 135 400 213 q 235 67 269 96 q 178 19 201 39 q 234 60 214 46 q 261 79 254 75 q 357 108 311 108 q 419 96 382 108 q 465 31 465 81 q 531 67 497 38 q 551 85 538 72 q 586 119 564 97 l 592 115 q 521 -12 549 36 q 482 -81 493 -61 q 343 -257 414 -190 q 150 -368 249 -344 q 78 -382 110 -378 q 26 -386 47 -386 q -74 -371 -28 -386 q -154 -296 -154 -340 q -149 -273 -154 -286 q -128 -256 -143 -260 q -100 -250 -126 -254 q -135 -226 -107 -226 q -196 -281 -196 -226 q -183 -322 -196 -301 q -146 -360 -171 -343 q -85 -388 -121 -378 q -4 -399 -50 -399 q 178 -365 71 -399 z "},"Z":{"ha":960,"x_min":56,"x_max":1158,"o":"m 1142 863 l 1125 868 l 1103 868 q 908 742 1018 868 l 736 817 q 531 861 631 861 l 514 861 q 341 812 418 861 q 226 675 264 763 q 219 617 219 640 q 233 553 219 581 q 304 489 251 513 q 400 469 350 469 q 500 494 454 469 q 610 653 610 567 l 594 682 q 576 701 583 699 q 553 711 575 703 l 531 711 q 431 667 468 711 q 469 676 439 665 q 513 689 499 689 q 540 683 524 689 q 572 610 572 672 l 572 582 q 428 492 529 501 q 329 522 374 492 q 302 541 313 532 q 284 559 292 550 q 271 581 276 568 q 258 613 265 593 l 258 635 q 275 706 258 669 q 285 724 276 708 q 313 771 294 740 q 492 856 385 856 q 692 801 575 856 q 786 757 739 779 q 882 713 833 735 q 801 594 842 653 q 719 476 760 536 q 696 481 706 479 q 679 483 686 482 q 653 442 658 468 l 682 442 q 704 432 694 442 l 599 240 q 525 142 558 169 q 411 106 481 106 q 368 108 393 106 q 308 117 343 111 q 250 125 275 122 q 207 128 225 128 q 94 101 139 128 q 56 57 56 93 q 57 44 56 49 q 194 0 114 0 q 417 50 267 0 q 646 13 543 13 q 879 78 785 13 q 978 253 978 185 q 974 288 978 267 q 904 331 964 331 q 872 326 886 331 q 822 285 844 311 q 799 225 799 253 l 842 282 q 883 294 860 294 q 930 274 911 294 q 949 225 949 253 q 910 131 949 174 q 881 99 893 113 q 860 78 868 86 q 710 39 799 39 q 474 89 604 39 q 761 436 619 194 q 764 436 757 436 q 789 435 771 436 q 833 464 825 432 l 776 482 l 893 711 q 904 710 899 710 q 917 710 910 710 l 940 710 q 968 713 954 710 q 1089 761 993 717 q 1158 842 1147 788 l 1142 863 m 117 83 q 140 94 129 92 q 172 96 151 96 q 371 57 221 96 q 243 29 311 29 q 114 64 167 29 q 117 83 103 71 m 928 742 q 1074 825 996 825 q 1115 817 1094 825 q 1044 753 1101 769 l 946 736 q 928 742 944 742 z "},"[":{"ha":347,"x_min":4,"x_max":521,"o":"m 347 743 l 4 -222 l 167 -186 l 181 -150 l 75 -174 l 393 719 l 508 743 l 521 779 l 347 743 z "},"]":{"ha":347,"x_min":4,"x_max":521,"o":"m 178 -186 l 521 779 l 357 744 l 343 708 l 450 731 l 131 -161 l 17 -186 l 4 -222 l 178 -186 z "},"^":{"ha":418,"x_min":307,"x_max":644,"o":"m 454 494 l 476 515 l 497 494 q 556 449 526 468 q 617 417 586 431 l 644 406 l 644 443 l 613 468 q 503 614 532 532 l 497 626 l 456 626 l 449 614 q 339 468 411 524 l 307 443 l 307 406 l 336 417 q 454 494 401 444 z "},"_":{"ha":418,"x_min":186,"x_max":526,"o":"m 186 -182 l 186 -207 l 526 -207 l 526 -182 l 186 -182 z "},"`":{"ha":365,"x_min":92,"x_max":235,"o":"m 108 422 l 214 349 l 224 343 q 231 344 224 342 l 233 346 l 233 349 q 231 357 235 353 l 142 442 l 132 451 q 117 461 124 460 q 94 447 96 464 q 108 422 92 432 z "},"a":{"ha":365,"x_min":-8,"x_max":372,"o":"m 67 129 q 156 243 94 178 q 214 272 182 272 q 231 269 217 272 q 271 236 261 250 q 122 22 193 74 q 138 33 125 24 q 158 39 150 43 q 165 26 164 36 q 201 0 169 0 q 294 29 240 0 q 372 92 350 61 q 229 11 301 26 q 209 19 217 8 q 204 43 201 31 l 328 247 l 328 267 q 301 258 319 265 q 292 265 300 260 q 267 278 283 271 q 233 285 250 285 q 143 254 194 285 q 68 194 97 228 q 33 153 46 168 q 18 133 21 139 q -8 64 -8 94 q 10 10 -8 36 q 44 0 19 0 q 110 19 82 0 q 89 13 99 14 q 69 15 75 10 q 49 38 53 19 q 43 75 46 57 q 56 105 50 92 q 67 129 61 118 z "},"b":{"ha":321,"x_min":-22,"x_max":501,"o":"m 485 663 q 460 664 479 664 q 338 606 397 664 q 305 569 326 596 q 249 499 283 543 q -22 36 119 332 q 35 0 -3 0 q 140 21 54 0 q 243 79 194 33 q 290 181 290 126 q 281 228 290 203 q 200 279 260 279 q 154 272 185 279 l 154 278 l 300 381 q 501 636 467 499 l 485 663 m 321 106 q 306 87 314 96 q 286 71 297 78 q 273 61 283 68 q 244 44 263 54 l 203 24 q 169 0 172 10 q 210 14 193 7 q 238 26 226 21 q 315 89 292 54 l 321 106 m 28 43 q 74 137 58 106 q 90 171 89 168 q 185 258 142 258 q 230 233 211 258 q 249 179 249 207 q 211 96 249 139 q 135 38 174 51 q 67 17 78 17 q 36 29 50 17 l 28 43 m 419 643 q 453 626 440 647 q 338 438 435 536 q 255 365 299 399 q 160 300 211 331 l 269 478 q 419 643 336 586 z "},"c":{"ha":217,"x_min":-4,"x_max":250,"o":"m 89 11 q 171 49 121 11 q 238 111 214 79 q 212 77 226 93 q 178 47 197 61 q 61 1 115 1 q 29 7 46 1 q -4 58 -4 15 q 13 124 -4 79 q 86 229 40 189 q 203 278 142 278 q 246 251 240 278 q 239 226 250 238 q 214 215 228 215 q 203 214 210 214 q 193 215 196 211 q 198 222 196 218 q 203 229 200 226 q 231 258 236 246 q 203 274 224 274 q 124 239 175 274 q 58 154 86 213 q 32 47 32 100 q 53 20 32 32 q 89 11 74 8 z "},"d":{"ha":364,"x_min":0,"x_max":518,"o":"m 467 564 q 289 258 390 418 q 255 263 269 261 q 229 265 240 265 l 211 265 q 99 228 142 265 q 10 103 49 185 q 0 56 0 85 q 57 0 0 0 q 168 43 90 0 q 167 38 167 42 l 167 26 q 171 7 167 15 q 207 0 194 0 q 240 6 225 0 q 360 114 346 50 q 289 35 331 53 q 228 10 231 10 q 200 26 214 10 q 270 153 232 86 q 353 296 308 221 q 413 392 372 326 q 518 558 454 457 q 494 564 511 564 l 467 564 m 206 249 q 224 253 215 253 q 260 224 240 253 l 179 90 q 88 21 135 21 q 36 54 36 21 q 60 117 36 78 q 82 151 72 136 q 99 175 92 165 q 206 249 151 236 z "},"e":{"ha":208,"x_min":-15,"x_max":219,"o":"m 163 272 q 40 197 90 250 q -15 69 -15 140 q -11 32 -15 50 q 42 -1 -1 -1 q 99 11 61 -1 q 210 117 210 53 q 169 56 194 72 q 82 14 113 14 q 29 44 43 14 q 25 76 25 58 q 51 131 25 113 q 115 147 89 139 q 157 163 142 156 q 217 247 211 193 q 183 275 219 275 q 175 274 181 275 q 163 272 169 274 m 158 249 q 170 246 165 250 q 172 235 175 242 q 136 175 172 203 q 71 144 108 153 l 60 150 q 158 249 97 238 z "},"f":{"ha":192,"x_min":-240,"x_max":482,"o":"m 339 592 q 139 319 229 478 q 50 163 94 240 q -39 6 6 85 q -143 -159 -93 -86 q -240 -285 -193 -232 q -228 -290 -235 -290 q -206 -283 -222 -290 q -193 -289 -199 -283 q -102 -172 -149 -240 q -7 -14 -56 -103 q 104 184 64 113 q 156 275 144 256 l 246 276 l 246 289 l 207 289 q 165 301 178 289 q 233 415 204 367 q 282 496 263 464 q 372 596 319 556 q 406 600 389 600 q 467 578 449 600 q 482 599 479 592 q 432 635 467 635 q 339 592 394 635 m 50 14 l 50 4 q 97 25 68 4 q 158 69 126 46 q 200 126 189 92 q 50 14 126 47 z "},"g":{"ha":363,"x_min":-189,"x_max":365,"o":"m 243 292 q 93 226 156 272 q 0 97 21 175 q -4 68 -4 85 q 13 17 -4 38 q 60 -3 31 -3 q 77 -1 67 -3 q 99 5 88 1 q 119 10 110 8 q 135 13 129 13 q 108 -21 135 4 q -6 -64 33 -49 q -49 -81 -46 -79 q -178 -181 -140 -125 q -189 -206 -189 -192 q -139 -262 -189 -262 q -108 -258 -128 -262 q -76 -253 -87 -253 q 64 -165 4 -229 q 160 -28 107 -122 q 294 43 247 4 q 365 133 365 101 l 360 133 q 178 3 307 49 l 249 125 q 303 219 281 181 q 338 282 326 258 q 307 271 322 271 q 276 279 299 271 q 243 292 247 289 m 165 258 q 208 267 215 267 q 258 240 244 267 l 194 125 q 96 25 154 53 q 39 63 40 25 q 165 258 50 158 m -143 -169 q -33 -89 -107 -117 q 41 -63 10 -74 q 94 -46 72 -53 q 49 -115 68 -86 q 15 -164 29 -144 q -93 -232 -31 -232 q -133 -226 -118 -232 q -149 -192 -149 -211 q -143 -169 -149 -179 z "},"h":{"ha":349,"x_min":-47,"x_max":501,"o":"m 442 679 q 285 547 351 631 q 219 457 253 508 q 146 339 185 406 q 54 184 86 238 q 19 124 22 131 q -47 0 -43 21 q 10 17 -6 0 q 76 144 65 128 q 169 251 119 215 q 218 264 200 264 q 258 244 243 264 q 213 150 247 204 q 175 91 189 114 q 157 60 161 68 q 149 32 149 49 q 158 8 149 17 q 193 0 175 0 q 285 40 238 0 q 347 122 326 75 q 207 18 269 18 q 197 36 197 24 q 224 99 197 58 q 249 129 236 114 q 272 160 261 144 q 301 229 301 199 q 289 269 301 249 q 239 282 268 282 q 143 256 190 282 q 154 281 157 274 l 353 431 q 497 647 472 521 q 481 674 501 667 q 442 679 461 682 m 376 629 q 436 649 418 649 q 453 633 456 649 q 203 349 406 468 q 304 525 261 456 q 376 629 347 594 z "},"i":{"ha":146,"x_min":-32,"x_max":197,"o":"m 171 390 q 144 367 144 390 q 147 358 144 364 q 167 343 154 343 q 179 346 171 343 q 196 371 197 356 q 171 390 196 390 m 99 272 l -28 47 q -32 35 -32 43 q -6 1 -32 6 q 8 -1 1 0 q 19 -1 14 -1 q 108 35 64 -1 q 175 110 118 44 l 82 31 q 42 15 49 15 q 19 32 25 15 l 139 271 l 99 272 z "},"j":{"ha":246,"x_min":-236,"x_max":268,"o":"m 240 428 q 206 399 206 428 q 238 375 210 368 q 268 406 268 381 q 240 428 268 428 m 158 300 q 83 149 135 238 q 40 76 61 113 q -3 4 18 40 q -144 -81 -107 -51 q -236 -214 -218 -142 q -199 -242 -229 -242 q -58 -139 -150 -242 q 3 -63 -24 -100 q 53 8 31 -26 q 244 144 183 68 l 235 151 q 67 44 165 56 l 138 163 q 190 251 169 215 q 219 310 210 288 q 207 311 217 311 q 182 306 194 308 q 158 300 169 303 m -6 -14 q -34 -61 -21 -40 q -57 -100 -47 -82 q -171 -215 -110 -185 q -201 -197 -201 -217 q -186 -157 -201 -190 q -107 -72 -165 -118 q -6 -14 -49 -26 z "},"k":{"ha":314,"x_min":-35,"x_max":371,"o":"m 371 617 q 363 617 371 617 q 336 618 354 617 q 261 518 321 618 q 228 458 244 488 q 194 399 211 429 l -26 25 l -35 6 q -22 5 -29 6 q -6 3 -15 4 q 18 10 8 3 l 96 151 q 133 117 124 140 q 143 63 136 108 q 199 0 149 0 q 311 85 272 0 q 228 19 271 42 q 182 78 194 25 q 150 151 167 139 l 240 183 q 311 261 311 208 q 293 289 311 283 l 271 289 q 251 276 256 289 q 260 256 249 269 q 263 243 263 244 q 222 189 263 225 q 144 164 164 164 q 115 172 129 164 l 365 599 l 371 617 z "},"l":{"ha":178,"x_min":-37,"x_max":339,"o":"m 289 578 q 245 497 271 542 q 186 394 219 451 q 42 151 94 243 q -25 25 -10 60 q 1 0 -37 0 q 54 7 22 0 q 142 63 115 26 l 172 107 q 38 13 81 19 q 19 21 26 13 q 18 39 13 29 q 53 99 32 63 q 104 183 75 135 l 193 328 q 238 405 213 361 q 296 504 264 449 q 339 579 333 554 q 325 580 333 579 q 306 582 317 581 q 289 578 294 582 z "},"m":{"ha":511,"x_min":-42,"x_max":522,"o":"m 165 238 q 232 260 192 260 q 258 242 253 260 q 194 120 228 179 q 122 4 161 61 q 147 3 131 4 q 172 1 164 1 l 307 226 l 354 251 q 394 263 376 263 q 432 239 421 263 q 396 167 421 207 q 374 132 385 149 q 351 99 363 115 q 322 31 322 50 q 332 6 322 15 q 363 0 344 0 q 424 17 388 0 q 522 118 482 44 q 492 83 507 100 q 461 49 476 67 q 381 15 424 15 q 371 31 371 17 l 371 51 q 429 140 403 94 q 478 232 456 185 q 394 272 478 272 q 358 258 385 272 q 322 244 335 244 q 301 253 311 244 q 256 275 283 275 q 165 246 232 275 q 150 250 154 239 q 154 269 154 251 l 113 271 q 83 221 103 253 q 33 140 64 189 q -42 7 -17 58 l 4 6 q 56 94 38 64 q 76 129 74 125 q 165 238 124 203 z "},"n":{"ha":367,"x_min":-39,"x_max":372,"o":"m 113 265 l -39 13 q -21 6 -32 6 q 13 14 -3 10 q 72 117 51 81 q 97 160 93 153 q 222 268 149 243 q 160 253 200 272 q 139 274 164 274 q 113 265 121 274 m 226 269 l 239 269 q 275 233 275 258 q 272 225 275 231 q 192 96 219 154 l 169 60 q 161 22 158 40 q 193 0 165 0 q 311 46 242 0 q 372 118 363 81 q 313 53 346 72 q 225 19 258 19 q 207 36 203 19 q 263 140 218 74 q 317 242 308 208 q 261 272 311 272 q 245 272 254 272 q 226 269 236 271 z "},"o":{"ha":325,"x_min":0,"x_max":331,"o":"m 189 274 q 74 208 118 247 q 0 61 0 143 q 7 26 0 43 q 68 -1 22 -1 q 146 28 92 -1 q 242 115 206 61 q 282 240 282 176 q 221 279 276 279 q 189 274 201 279 m 272 57 q 228 24 247 38 q 194 1 208 10 q 331 113 306 39 l 272 57 m 154 243 q 189 253 169 253 q 238 206 238 253 q 201 101 238 154 q 94 17 142 17 q 56 28 65 17 q 47 71 47 40 q 154 243 47 157 z "},"p":{"ha":378,"x_min":-194,"x_max":378,"o":"m 181 281 q 158 290 175 290 l 126 290 l 7 78 q -49 -26 -24 22 q -97 -117 -75 -74 q -151 -219 -128 -176 q -190 -285 -175 -261 q -187 -285 -194 -285 q -165 -286 -182 -285 q -142 -279 -149 -286 q -55 -117 -99 -194 q 36 32 -11 -40 q 99 1 57 1 q 126 6 114 1 q 263 104 208 43 q 326 254 326 174 q 263 297 310 297 q 181 281 236 297 m 378 129 q 226 18 285 36 q 319 60 286 35 q 378 129 353 86 m 60 61 q 77 105 65 75 q 108 183 89 135 q 206 264 150 264 q 272 240 236 264 q 133 32 272 103 q 94 24 108 24 q 60 61 69 24 z "},"q":{"ha":394,"x_min":-8,"x_max":400,"o":"m 247 301 q 108 229 176 285 q 1 78 1 139 q 18 19 1 57 q 67 0 40 0 q 165 36 97 0 q 132 -42 158 4 q 89 -119 108 -82 q 71 -151 83 -129 q 36 -208 58 -172 q 8 -259 18 -236 q -8 -297 -3 -282 q 40 -271 7 -300 q 190 -79 88 -174 l 339 60 q 397 117 385 101 q 394 129 400 124 l 167 -83 l 164 -76 l 371 299 q 336 283 356 283 q 293 293 322 283 q 247 301 261 303 m 221 283 q 261 293 249 293 q 282 283 274 293 q 229 146 271 213 q 129 42 188 79 q 106 38 118 38 q 50 79 50 38 q 111 199 50 133 q 221 283 163 254 z "},"r":{"ha":236,"x_min":0,"x_max":243,"o":"m 128 272 l 0 89 l 1 82 q 15 99 3 83 q 50 144 26 114 q 90 195 74 176 q 115 221 107 214 q 125 225 119 225 q 161 211 132 225 q 144 185 156 200 q 118 150 133 169 q 76 90 86 111 q 60 40 60 58 q 100 0 60 0 q 143 15 119 0 q 243 117 188 47 q 119 14 136 14 q 93 57 93 14 q 124 133 93 76 q 179 203 139 163 q 216 241 201 225 q 238 267 231 257 q 229 268 235 268 q 196 250 215 268 q 164 232 178 232 q 146 238 156 232 q 147 243 147 240 q 149 251 147 247 q 147 263 150 257 q 133 274 140 274 q 128 272 129 274 z "},"s":{"ha":208,"x_min":4,"x_max":247,"o":"m 4 85 l 25 94 q 17 57 17 71 q 64 1 17 1 q 110 13 79 1 q 163 72 150 36 q 174 154 174 101 q 172 169 172 161 q 172 186 172 178 l 172 217 q 174 255 172 236 q 178 289 175 274 q 79 180 122 231 q 4 85 36 129 m 189 53 q 135 7 153 21 q 187 45 158 21 q 247 106 215 69 l 189 53 m 117 203 q 140 106 140 149 q 135 68 140 85 q 74 11 118 11 q 35 44 35 11 q 38 60 35 53 q 61 69 40 67 q 89 94 89 74 q 69 118 89 110 l 38 108 l 117 203 z "},"t":{"ha":190,"x_min":-35,"x_max":242,"o":"m 185 417 q 85 228 136 321 q -25 43 33 135 q -25 17 -35 25 q 24 0 -3 0 q 114 39 65 0 q 159 74 140 58 q 190 100 178 89 l 190 111 q 150 76 168 92 q 118 49 132 61 q 36 15 78 15 q 18 39 18 25 q 28 64 18 50 l 100 178 q 123 215 115 203 q 131 228 131 228 q 176 260 154 260 l 190 260 q 201 258 197 258 q 213 258 207 258 l 231 258 l 231 264 l 154 269 l 242 421 q 228 425 235 425 q 206 421 221 425 q 185 417 192 417 z "},"u":{"ha":358,"x_min":-11,"x_max":365,"o":"m 129 274 q 76 199 99 233 q 35 135 53 164 q -11 33 -11 57 q 29 -1 -11 -1 q 158 43 58 -1 l 176 11 q 215 -3 192 -3 q 246 1 233 -3 q 365 99 346 44 q 301 42 342 69 q 224 15 251 8 q 214 32 217 17 q 213 43 213 38 q 213 54 213 49 q 301 197 269 143 q 342 268 333 250 l 297 269 l 242 175 q 158 54 200 106 q 54 14 75 14 q 38 33 35 14 q 92 151 43 76 q 128 210 110 181 q 164 268 146 239 q 149 274 160 274 l 129 274 z "},"v":{"ha":283,"x_min":-3,"x_max":307,"o":"m 201 257 q 215 254 208 256 q 228 251 221 253 q 260 232 253 244 q 135 28 260 121 q 86 17 104 17 q 38 42 56 17 q 93 158 56 96 q 165 267 93 158 q 142 274 154 274 q 119 268 125 274 q 98 233 117 261 q 43 153 79 204 q -3 25 -3 83 q 57 1 17 1 q 165 33 107 1 q 264 118 224 64 q 307 238 307 178 q 253 272 293 272 q 201 257 225 272 m 203 0 q 249 23 229 13 q 283 43 269 33 q 203 0 217 26 z "},"w":{"ha":488,"x_min":-21,"x_max":488,"o":"m 372 268 q 336 235 336 247 q 339 228 336 231 l 344 228 q 354 222 350 222 q 360 226 357 222 q 369 236 363 231 q 385 246 375 242 q 413 250 396 250 q 453 207 453 250 q 406 117 453 169 q 339 44 356 58 q 250 11 299 11 q 229 13 233 11 q 203 53 203 26 q 204 67 203 63 l 328 263 l 299 269 l 189 121 q 108 39 140 54 q 43 18 67 18 q 25 32 19 18 q 167 263 64 122 q 142 268 157 268 l 114 268 q 68 199 89 229 q 31 144 47 168 q -18 18 -11 79 q 10 -1 -21 -1 q 92 17 46 -1 q 157 61 140 36 q 188 3 167 17 q 217 1 194 1 q 426 108 344 1 q 479 214 479 181 q 459 258 479 240 q 411 275 439 275 q 372 268 396 275 m 488 88 q 458 63 472 75 q 428 38 443 50 q 392 16 410 24 q 360 6 375 8 q 425 25 389 3 q 483 67 431 29 l 488 88 z "},"x":{"ha":379,"x_min":-4,"x_max":414,"o":"m 258 224 q 228 257 229 257 q 188 274 208 274 q 106 226 139 274 q 99 189 99 196 q 110 156 99 167 q 131 150 119 150 q 176 181 160 150 l 138 172 q 114 197 114 172 q 118 233 114 214 q 178 251 131 251 l 201 228 q 213 200 213 213 q 210 186 213 200 q 182 131 196 158 q 154 76 168 104 q 54 19 114 19 q 33 38 33 29 q 54 60 33 40 q 76 94 76 78 q 74 108 76 94 q 42 121 67 121 q -4 57 -4 104 q 1 31 -4 43 q 44 0 14 0 q 100 18 64 0 q 151 38 139 38 q 189 11 175 38 q 221 1 199 1 q 286 15 257 1 q 319 40 304 29 q 347 60 335 50 q 383 115 383 88 q 257 26 308 26 q 206 71 206 26 q 218 121 206 85 q 344 258 256 240 q 363 236 363 253 q 353 210 363 224 q 372 207 364 207 q 401 217 388 207 q 407 242 414 228 q 360 272 390 272 q 258 224 322 272 z "},"y":{"ha":361,"x_min":-194,"x_max":368,"o":"m -157 -240 q -161 -224 -161 -232 q -76 -122 -161 -199 l 71 -29 q -112 -143 -35 -76 q -152 -178 -139 -167 q -167 -190 -165 -189 q -194 -253 -194 -222 q -174 -279 -194 -275 q -135 -287 -154 -283 q 43 -181 -36 -260 q 168 -8 103 -119 q 364 96 247 10 q 364 101 364 99 q 365 111 364 106 q 361 122 368 122 q 190 11 300 46 q 346 274 239 131 q 331 286 339 286 q 316 283 326 286 q 300 281 306 281 q 292 282 293 281 q 206 129 229 163 q 75 19 151 53 q 51 24 63 15 q 28 40 39 32 l 161 276 q 148 278 154 278 q 136 279 142 279 q 114 272 121 279 l -10 69 q -14 40 -14 61 q 28 0 -14 0 q 131 29 57 0 q 107 -4 131 11 q 75 -28 76 -24 l 115 -17 q 40 -144 42 -143 q -50 -247 -15 -236 q -119 -261 -104 -261 q -157 -240 -149 -261 z "},"z":{"ha":267,"x_min":-4,"x_max":288,"o":"m 219 231 q 194 229 214 229 q 126 263 144 229 q 57 177 86 214 q 8 114 28 140 l 11 108 l 101 221 q 199 201 144 201 l 199 196 q 146 160 186 171 q 89 136 97 144 q 92 126 88 129 q 102 122 96 124 q 114 119 108 119 q 119 117 119 118 q -4 6 44 38 l 6 -3 q 57 29 31 29 q 101 14 67 29 q 151 0 135 0 q 189 14 167 0 q 265 119 242 46 l 251 114 q 204 47 251 86 q 167 38 186 38 l 75 58 l 133 122 q 147 126 139 126 q 158 126 151 126 q 176 124 165 125 q 206 147 199 124 l 179 158 l 288 265 q 272 274 279 274 q 249 251 265 274 q 219 231 233 231 z "},"~":{"ha":718,"x_min":265,"x_max":711,"o":"m 711 229 l 700 242 l 686 228 q 615 196 651 196 q 555 207 581 201 q 514 218 529 213 l 465 232 q 388 244 421 244 q 313 215 346 244 q 282 183 289 196 l 265 160 l 276 147 l 288 157 q 368 192 331 193 q 432 179 390 192 l 482 167 l 539 151 q 597 144 574 144 q 711 229 674 144 z "},"":{"ha":119,"x_min":39,"x_max":118,"o":"m 85 72 q 118 39 118 72 q 99 0 118 31 q 39 -67 64 -56 q 71 -24 60 -51 q 69 10 82 4 q 51 39 51 18 q 85 72 51 72 z "},"":{"ha":197,"x_min":-231,"x_max":886,"o":"m 694 804 q 329 583 458 738 q 50 144 226 457 q -231 -275 -111 -147 l -176 -278 q -2 -24 -79 -149 q 133 224 75 101 q 217 290 151 290 q 253 282 233 290 l 253 293 q 240 297 246 297 q 221 293 233 297 q 203 289 208 289 q 183 304 190 289 l 256 431 q 335 560 311 528 q 718 776 497 776 q 753 774 733 776 q 794 769 772 772 l 836 744 q 856 703 858 729 q 881 713 867 700 q 886 733 886 722 q 876 768 886 747 q 790 803 850 801 q 742 803 767 803 q 694 804 718 803 m 214 131 q 78 18 165 71 q 157 61 114 26 q 214 131 201 97 z "},"":{"ha":171,"x_min":15,"x_max":169,"o":"m 61 72 q 94 39 94 72 q 75 0 94 31 q 15 -67 40 -56 q 53 -1 53 -40 q 47 10 53 8 q 28 39 28 18 q 61 72 28 72 m 136 72 q 169 39 169 72 q 150 0 169 31 q 90 -67 115 -56 q 122 -18 121 -43 q 121 10 124 7 q 103 39 103 19 q 136 72 103 72 z "},"":{"ha":367,"x_min":33,"x_max":339,"o":"m 307 72 q 274 39 274 72 q 307 6 274 6 q 339 39 339 6 q 307 72 339 72 m 67 72 q 33 39 33 72 q 67 6 33 6 q 99 39 99 6 q 67 72 99 72 m 185 72 q 151 39 151 72 q 185 6 151 6 q 217 39 217 6 q 185 72 217 72 z "},"":{"ha":296,"x_min":31,"x_max":267,"o":"m 125 349 l 128 328 q 136 247 136 263 l 138 -46 l 161 -46 l 161 186 l 163 247 q 171 328 167 303 l 174 349 q 161 383 165 368 l 157 400 l 174 399 l 199 394 l 225 389 q 237 387 232 388 q 246 386 242 386 q 267 408 267 386 q 244 431 267 431 q 225 428 236 432 l 199 422 l 174 418 l 157 417 l 157 456 l 158 467 q 160 488 160 479 q 161 501 161 496 l 167 529 q 171 560 171 558 q 150 583 171 583 q 128 560 128 583 q 132 529 128 558 l 138 501 q 140 488 139 496 q 140 467 140 479 l 140 456 l 140 417 l 125 418 q 112 420 118 419 q 99 422 106 421 l 74 428 q 54 431 60 431 q 31 407 31 431 q 53 386 32 385 q 74 389 60 386 l 99 394 l 125 399 l 140 400 l 138 383 q 125 349 132 365 z "},"":{"ha":296,"x_min":33,"x_max":279,"o":"m 131 351 l 142 285 l 103 290 l 76 296 q 65 298 69 297 q 54 299 60 299 q 33 276 33 299 q 56 254 33 253 q 76 257 63 254 l 103 263 l 131 267 l 142 267 l 144 -46 l 167 -46 l 167 186 l 168 249 l 169 267 l 179 267 l 208 263 l 235 257 q 247 255 242 256 q 254 254 251 254 q 279 276 279 254 q 257 299 276 300 q 247 297 253 297 q 235 296 242 297 l 208 290 l 179 286 l 169 285 l 176 329 l 181 351 q 168 383 171 369 l 164 400 l 179 399 l 206 394 l 231 389 q 242 387 238 388 q 251 386 247 386 q 274 408 274 386 q 250 431 274 431 q 231 428 242 432 l 206 422 q 192 420 199 421 q 179 418 186 419 l 164 417 l 164 467 l 168 501 l 174 529 q 178 560 178 556 q 156 583 178 585 q 133 558 132 581 l 138 529 l 143 501 l 147 467 l 147 417 l 131 418 q 106 422 119 418 l 79 428 q 60 431 65 431 q 38 407 38 432 q 60 385 38 385 q 79 389 68 385 l 106 394 l 131 399 l 147 400 l 143 383 q 139 373 142 381 q 131 351 136 365 z "},"":{"ha":365,"x_min":169,"x_max":357,"o":"m 176 346 q 290 390 181 346 q 350 346 342 349 l 354 347 l 357 353 q 336 388 354 361 q 320 410 326 401 q 310 422 314 419 q 286 424 308 424 q 264 415 278 424 q 171 356 172 360 l 169 353 q 176 346 169 346 z "},"":{"ha":731,"x_min":42,"x_max":885,"o":"m 644 860 q 497 678 497 800 q 551 472 497 615 q 607 260 607 331 q 597 193 607 222 q 574 152 583 169 q 557 124 564 135 q 508 75 540 99 q 450 38 493 64 q 318 10 392 10 q 174 51 238 10 q 104 136 128 82 q 81 244 81 190 q 97 298 85 272 q 126 344 108 324 q 167 376 144 364 q 218 388 190 388 q 290 353 260 388 q 292 342 292 349 q 285 314 292 332 q 279 289 279 296 q 317 282 303 281 q 339 326 339 294 q 326 385 339 353 q 217 428 308 428 q 197 428 210 428 q 171 426 186 428 q 92 376 125 417 q 50 285 60 335 q 42 233 42 257 q 107 79 42 160 q 315 0 171 0 q 433 15 372 0 q 511 52 475 31 q 578 101 547 74 q 661 283 661 178 q 601 481 661 351 q 542 672 542 610 q 608 824 542 754 q 708 860 656 860 q 843 765 803 860 q 847 735 847 750 q 832 681 847 704 q 788 657 817 657 q 757 676 779 657 q 726 697 736 696 q 713 657 708 685 q 746 613 713 638 q 775 607 757 607 q 863 650 829 607 q 885 731 885 686 q 868 794 885 758 q 801 850 851 831 q 713 868 761 868 q 644 860 678 868 m 650 1032 q 643 1025 643 1032 l 643 1022 q 738 963 647 1018 q 760 954 750 954 q 783 956 782 954 q 810 990 790 963 q 831 1025 828 1017 l 826 1031 l 824 1032 q 806 1020 821 1031 q 764 988 790 1010 q 650 1032 654 1032 z "},"":{"ha":169,"x_min":38,"x_max":131,"o":"m 99 244 l 38 147 l 69 33 l 99 33 l 68 147 l 131 244 l 99 244 z "},"":{"ha":1310,"x_min":40,"x_max":1472,"o":"m 760 467 q 768 511 765 489 q 771 557 771 533 q 769 591 771 575 q 765 621 768 607 q 908 589 826 589 q 1044 608 975 589 l 1050 567 q 974 549 1011 557 q 899 531 936 540 q 760 467 807 503 m 676 361 q 610 261 647 304 q 486 113 540 157 q 321 26 411 50 l 308 26 l 299 26 q 283 25 292 25 q 183 42 228 24 q 111 114 138 61 q 89 214 89 160 q 139 396 89 256 q 363 710 206 578 q 715 850 532 850 q 744 845 731 847 q 771 840 757 843 q 685 736 685 813 q 692 693 685 714 q 653 699 671 699 q 447 599 574 699 q 399 528 417 556 q 375 490 382 501 q 339 368 339 425 q 354 300 339 326 q 388 267 369 274 q 433 263 400 263 q 474 301 474 288 q 471 314 474 306 q 446 308 461 315 q 424 301 431 301 q 407 307 413 301 q 380 330 392 313 q 367 379 368 347 q 433 554 364 468 q 585 669 497 633 q 617 674 601 674 q 703 636 665 674 q 726 531 726 582 q 679 368 726 457 l 676 361 m 1278 865 q 1057 647 1086 806 q 904 604 1022 604 l 879 604 q 822 615 849 604 q 774 643 794 625 q 742 687 754 661 q 731 742 731 713 q 771 818 731 793 q 803 833 779 826 q 951 724 917 804 q 956 699 956 711 q 922 629 956 660 q 939 618 929 618 q 988 644 961 618 q 1000 703 1000 669 q 989 758 1000 732 q 753 869 897 869 q 704 865 743 869 q 332 713 514 847 q 89 396 146 574 q 74 346 82 371 q 57 297 65 321 q 40 196 40 239 q 93 50 40 115 q 229 -17 149 -17 q 510 113 340 -17 q 643 258 597 201 q 642 242 642 250 q 642 225 642 233 q 658 131 642 176 q 785 24 703 46 q 908 0 844 0 q 1194 113 1061 0 q 1307 314 1307 189 q 1303 360 1307 336 q 1140 453 1271 443 q 1003 401 1065 446 q 908 289 942 357 l 906 265 q 904 251 904 258 q 904 239 904 246 q 935 161 904 183 q 1014 138 1008 138 q 1022 138 1017 138 q 1035 140 1028 139 q 1089 207 1094 171 q 1063 233 1090 233 q 1047 229 1053 233 l 1047 199 q 1000 182 1035 182 l 981 182 q 925 275 915 214 q 972 360 931 318 q 1107 432 1046 432 q 1236 379 1147 432 q 1268 279 1268 331 q 1189 125 1268 200 q 951 21 1082 21 q 732 110 817 21 q 693 239 693 161 q 736 376 693 307 q 899 508 783 456 q 1104 554 1000 554 q 1097 592 1097 578 q 1151 661 1097 649 q 1183 682 1172 682 q 1203 646 1190 682 q 1238 607 1218 608 q 1293 593 1264 593 q 1415 658 1350 593 q 1472 764 1472 715 q 1456 815 1472 788 q 1326 868 1424 868 q 1307 867 1319 868 q 1278 865 1294 867 m 1147 765 q 1294 851 1196 851 q 1389 824 1358 851 q 1428 750 1428 786 q 1418 697 1428 725 q 1387 663 1399 675 q 1372 649 1375 651 q 1313 624 1343 624 q 1271 633 1290 624 q 1249 682 1249 651 q 1253 707 1249 696 q 1269 742 1269 733 q 1265 751 1269 747 q 1192 704 1249 746 q 1111 661 1146 668 q 1147 765 1122 722 z "},"":{"ha":107,"x_min":39,"x_max":118,"o":"m 72 635 q 39 601 39 635 q 58 561 39 593 q 118 494 93 506 q 86 539 97 510 q 88 572 75 567 q 106 601 106 581 q 72 635 106 635 z "},"":{"ha":119,"x_min":39,"x_max":118,"o":"m 85 635 q 118 601 118 635 q 99 561 118 593 q 39 494 64 506 q 71 539 60 510 q 69 572 82 567 q 51 601 51 581 q 85 635 51 635 z "},"":{"ha":171,"x_min":15,"x_max":169,"o":"m 124 635 q 90 601 90 635 q 110 561 90 593 q 169 494 144 506 q 132 560 132 521 q 138 572 132 568 q 157 601 157 581 q 124 635 157 635 m 49 635 q 15 601 15 635 q 35 561 15 593 q 94 494 69 506 q 64 544 67 517 q 64 572 63 571 q 82 601 82 582 q 49 635 82 635 z "},"":{"ha":171,"x_min":15,"x_max":169,"o":"m 61 635 q 94 601 94 635 q 75 561 94 593 q 15 494 40 506 q 53 560 53 521 q 47 572 53 571 q 28 601 28 581 q 61 635 28 635 m 136 635 q 169 601 169 635 q 150 561 169 593 q 90 494 115 506 q 122 544 121 518 q 121 572 124 569 q 103 601 103 582 q 136 635 103 635 z "},"":{"ha":265,"x_min":-24,"x_max":172,"o":"m 163 150 q 172 182 169 181 l -14 182 q -19 163 -17 171 q -24 150 -22 156 l 163 150 z "},"":{"ha":367,"x_min":-24,"x_max":265,"o":"m 256 150 q 265 182 263 181 l -14 182 q -19 163 -17 171 q -24 150 -22 156 l 256 150 z "},"":{"ha":365,"x_min":174,"x_max":399,"o":"m 176 363 l 174 357 l 174 356 l 175 353 l 179 351 l 185 354 l 196 364 q 235 383 219 383 q 261 374 243 383 l 296 357 l 314 349 q 329 346 322 346 q 374 369 350 346 l 396 392 l 399 396 l 397 401 l 392 403 l 388 401 q 344 379 364 379 l 335 382 q 324 385 331 383 q 311 393 318 388 q 251 415 275 415 q 200 389 226 417 l 185 374 l 176 363 z "},"":{"ha":574,"x_min":38,"x_max":539,"o":"m 43 635 l 38 544 l 54 544 l 63 565 q 119 619 82 615 l 119 450 q 96 410 119 414 l 82 410 l 82 393 l 199 393 l 199 410 l 185 410 q 165 425 169 413 q 164 450 164 429 l 164 619 q 218 568 204 613 l 226 544 l 242 544 l 238 635 l 43 635 m 256 410 l 256 393 l 347 393 l 347 410 l 333 413 q 311 449 311 417 l 311 607 l 375 393 l 386 393 l 458 614 l 458 449 q 457 425 458 428 q 436 411 453 413 l 422 410 l 422 393 l 539 393 l 539 410 l 526 410 q 506 422 508 415 q 503 449 503 429 l 503 583 q 526 617 503 614 l 539 619 l 539 635 l 447 635 l 394 475 l 347 635 l 256 635 l 256 619 l 274 617 q 292 586 292 615 l 292 449 q 267 411 292 417 l 256 410 z "},"":{"ha":213,"x_min":11,"x_max":239,"o":"m 11 89 q 18 92 14 90 q 26 94 22 93 q 18 57 18 71 q 65 1 18 1 q 110 13 79 1 q 163 76 150 36 q 171 161 171 103 l 171 194 q 182 297 171 256 q 11 89 117 228 m 117 203 q 142 106 142 146 q 123 40 142 68 q 68 13 104 13 q 54 15 63 13 q 38 58 32 25 q 68 69 40 63 q 89 93 89 74 q 71 118 89 108 l 39 108 l 117 203 m 60 422 q 51 415 51 422 l 53 413 q 77 396 54 411 q 147 353 100 381 q 168 344 160 344 q 193 346 192 344 q 202 358 196 350 q 218 381 208 367 q 239 415 236 407 l 236 421 l 232 422 q 174 378 224 419 q 60 422 64 422 z "},"":{"ha":169,"x_min":38,"x_max":131,"o":"m 69 244 l 131 147 l 99 33 l 69 33 l 100 147 l 38 244 l 69 244 z "},"":{"ha":433,"x_min":0,"x_max":442,"o":"m 213 119 q 207 110 210 114 q 201 101 204 106 q 94 17 142 17 q 56 28 65 17 q 47 71 47 40 q 154 243 47 157 q 189 253 169 253 q 238 206 238 253 q 231 160 238 185 q 213 119 219 143 m 385 275 q 281 218 324 256 q 282 229 282 224 q 282 240 282 235 q 221 279 276 279 q 189 274 201 279 q 74 208 118 247 q 0 61 0 143 q 7 26 0 43 q 68 -1 22 -1 q 146 28 92 -1 q 176 48 161 38 q 206 72 192 58 q 211 35 206 51 q 264 0 219 0 q 321 14 285 0 q 432 119 432 56 q 392 58 417 75 q 304 17 335 17 q 251 47 265 17 q 247 79 247 61 q 274 133 247 115 q 338 150 311 142 q 379 165 364 158 q 439 250 433 196 q 406 278 442 278 q 397 277 403 278 q 385 275 392 276 m 381 251 q 392 249 388 253 q 394 238 397 244 q 358 178 394 206 q 293 147 331 156 l 282 153 q 381 251 319 240 z "},"":{"ha":793,"x_min":-196,"x_max":1426,"o":"m 178 -365 q 249 -341 219 -351 q 293 -321 278 -331 q 396 -242 329 -301 q 747 289 551 -99 q 839 472 808 410 q 872 536 869 533 q 1050 747 954 678 q 1169 806 1110 790 q 1300 817 1218 817 q 1353 807 1333 817 q 1389 728 1389 788 l 1389 710 q 1426 754 1426 710 q 1414 803 1426 774 q 1276 864 1386 864 q 1079 799 1178 864 q 875 583 969 725 q 769 419 814 490 q 694 300 725 349 q 600 167 647 225 q 506 67 553 110 q 488 83 496 75 q 474 97 481 90 q 408 122 446 122 q 290 99 325 122 q 492 296 397 185 q 642 613 642 472 q 578 778 642 706 q 369 864 500 864 q 150 794 231 864 q 96 742 118 765 q 61 704 74 719 q 19 589 19 647 q 36 514 19 557 q 206 421 69 421 q 342 463 281 421 q 439 613 439 529 q 410 683 439 653 q 340 713 381 713 q 315 711 322 713 l 285 706 q 217 640 242 697 l 228 640 q 300 694 250 694 q 360 671 325 694 q 417 585 417 631 q 360 483 417 524 q 239 444 304 444 q 199 449 221 444 q 85 511 132 457 q 57 613 57 569 q 122 756 57 686 q 342 840 203 840 q 540 749 479 840 q 585 596 585 676 q 453 279 585 449 q 314 135 400 213 q 235 67 269 96 q 178 19 201 39 q 234 60 214 46 q 261 79 254 75 q 357 108 311 108 q 419 96 382 108 q 465 31 465 81 q 531 67 497 38 q 551 85 538 72 q 586 119 564 97 l 592 115 q 521 -12 549 36 q 482 -81 493 -61 q 343 -257 414 -190 q 150 -368 249 -344 q 78 -382 110 -378 q 26 -386 47 -386 q -74 -371 -28 -386 q -154 -296 -154 -340 q -149 -273 -154 -286 q -128 -256 -143 -260 q -100 -250 -126 -254 q -135 -226 -107 -226 q -196 -281 -196 -226 q -183 -322 -196 -301 q -146 -360 -171 -343 q -85 -388 -121 -378 q -4 -399 -50 -399 q 178 -365 71 -399 m 892 1000 q 865 976 865 1000 q 868 968 865 974 q 888 953 875 953 q 900 956 892 953 q 917 981 918 965 q 892 1000 917 1000 m 794 1000 q 768 976 768 1000 q 771 968 768 974 q 790 953 778 953 q 803 956 794 953 q 819 981 821 965 q 794 1000 819 1000 z "},"":{"ha":272,"x_min":57,"x_max":404,"o":"m 57 13 q 96 -6 57 -6 q 154 46 133 -6 l 218 231 q 301 450 275 396 l 293 450 q 214 308 254 375 q 131 178 174 240 q 57 13 57 71 m 346 543 q 399 589 392 543 q 361 635 404 635 q 308 589 314 635 q 346 543 301 543 z "},"":{"ha":472,"x_min":38,"x_max":436,"o":"m 65 456 l 38 429 l 96 374 q 56 258 56 314 q 96 142 56 194 l 39 86 l 64 60 l 121 115 q 238 76 181 76 q 354 115 294 76 l 410 60 l 436 86 l 381 142 q 419 258 419 190 q 381 374 419 321 l 436 429 l 410 456 l 354 400 q 238 439 299 439 q 121 400 176 439 l 65 456 m 96 257 q 135 359 96 319 q 238 399 175 399 q 292 388 267 399 q 338 357 318 376 q 368 312 357 338 q 379 257 379 286 q 368 201 379 228 q 338 156 357 175 q 292 126 318 138 q 238 115 267 115 q 137 156 178 115 q 96 257 96 197 z "},"":{"ha":278,"x_min":39,"x_max":238,"o":"m 76 376 l 89 364 l 79 356 q 47 282 50 333 q 111 183 47 214 l 153 163 q 208 86 208 136 q 188 14 208 44 q 128 -21 164 -22 q 74 6 83 -21 l 68 21 l 86 21 q 106 49 108 25 q 78 79 106 79 q 40 31 43 79 q 118 -39 39 -37 q 160 -29 140 -39 q 235 72 218 -4 q 237 91 236 82 q 238 111 238 100 q 208 183 238 160 l 183 203 l 189 210 q 219 290 221 247 q 186 364 219 339 l 167 378 l 125 404 q 85 438 99 422 q 71 481 72 453 q 93 544 69 515 q 151 572 117 572 q 206 533 197 572 l 206 526 l 193 526 q 167 497 164 526 q 196 468 168 468 q 235 518 235 469 q 213 568 235 547 q 160 589 190 589 q 111 577 133 589 q 74 546 89 565 q 49 501 58 526 q 40 449 40 475 q 76 376 40 417 m 79 311 q 113 347 76 347 q 167 319 146 347 q 189 257 189 290 q 161 219 189 219 q 144 224 153 219 q 79 311 79 251 z "},"":{"ha":365,"x_min":199,"x_max":349,"o":"m 322 390 q 296 367 296 390 q 299 358 296 364 q 318 343 306 343 q 331 346 322 343 q 347 371 349 356 q 322 390 347 390 m 225 390 q 199 367 199 390 q 201 358 199 364 q 221 343 208 343 q 233 346 225 343 q 250 371 251 356 q 225 390 250 390 z "},"":{"ha":272,"x_min":43,"x_max":435,"o":"m 43 439 q 99 299 43 354 q 239 243 154 243 q 378 300 321 243 q 435 439 435 357 q 378 578 435 521 q 239 635 321 635 q 99 578 156 635 q 43 439 43 522 m 72 439 q 121 557 72 508 q 239 606 169 606 q 357 557 308 606 q 406 439 406 508 q 357 321 406 369 q 239 272 308 272 q 173 285 203 272 q 120 320 143 297 q 85 373 97 343 q 72 439 72 403 m 329 407 l 313 407 q 254 340 301 340 q 192 442 192 340 q 247 547 192 547 q 289 522 274 547 q 298 503 293 515 q 308 475 303 492 l 325 476 l 325 565 l 308 565 q 294 553 297 553 q 269 560 288 553 q 240 567 250 567 q 199 556 218 567 q 167 528 181 546 q 147 488 154 510 q 139 442 139 465 q 167 356 139 392 q 244 321 196 321 q 329 407 321 321 z "},"":{"ha":239,"x_min":38,"x_max":211,"o":"m 100 244 l 38 147 l 69 33 l 100 33 l 68 147 l 131 244 l 100 244 m 179 244 l 118 147 l 150 33 l 179 33 l 149 147 l 211 244 l 179 244 z "},"":{"ha":1389,"x_min":0,"x_max":0,"o":""},"":{"ha":465,"x_min":33,"x_max":425,"o":"m 33 439 q 89 299 33 354 q 229 243 144 243 q 368 300 311 243 q 425 439 425 357 q 368 578 425 521 q 229 635 311 635 q 89 578 146 635 q 33 439 33 522 m 63 439 q 111 557 63 508 q 229 606 160 606 q 347 557 299 606 q 396 439 396 508 q 347 321 396 369 q 229 272 299 272 q 163 285 193 272 q 110 320 133 297 q 75 373 88 343 q 63 439 63 403 m 165 382 q 129 347 165 351 l 129 331 l 246 331 l 246 347 q 217 353 224 349 q 208 381 208 358 l 208 440 q 242 433 235 440 q 256 396 249 428 q 263 370 258 381 q 269 353 267 360 q 307 331 283 331 q 351 392 349 331 l 336 392 q 321 363 333 363 q 303 393 313 363 q 267 443 290 428 q 325 500 325 457 q 236 557 325 557 l 129 557 l 129 540 q 147 538 140 539 q 157 535 154 536 q 165 510 165 528 l 165 382 m 208 457 l 208 507 q 239 540 208 540 q 275 500 275 540 q 228 457 275 457 l 208 457 z "},"":{"ha":365,"x_min":236,"x_max":381,"o":"m 364 424 q 378 449 381 433 q 356 463 376 467 q 340 454 347 461 l 242 358 q 239 351 236 353 l 239 347 l 242 346 q 249 344 246 344 l 364 424 z "},"":{"ha":401,"x_min":44,"x_max":390,"o":"m 390 590 l 390 625 l 314 625 q 267 623 290 625 q 225 618 244 621 q 97 556 144 606 q 44 426 44 503 q 89 305 46 354 q 203 240 132 256 l 229 235 l 229 -129 l 261 -129 l 261 590 l 303 590 l 303 -129 l 335 -129 l 335 590 l 390 590 z "},"":{"ha":217,"x_min":-53,"x_max":111,"o":"m 53 -43 l 39 -47 l 68 10 l 50 6 l 15 -62 l 15 -68 l 15 -71 l 17 -72 l 19 -72 l 28 -69 l 38 -68 l 49 -65 q 74 -87 74 -61 q 26 -124 74 -118 q -39 -124 -3 -131 l -46 -124 q -50 -132 -53 -126 q -8 -146 -46 -144 q 36 -143 11 -147 q 85 -119 65 -137 q 104 -71 111 -99 q 65 -42 97 -42 q 53 -43 57 -42 z "},"":{"ha":239,"x_min":38,"x_max":211,"o":"m 149 244 l 211 147 l 179 33 l 149 33 l 181 147 l 118 244 l 149 244 m 69 244 l 131 147 l 99 33 l 69 33 l 100 147 l 38 244 l 69 244 z "},"":{"ha":447,"x_min":129,"x_max":542,"o":"m 133 93 q 192 24 150 49 q 282 0 233 0 q 369 19 322 0 q 450 72 417 38 q 489 160 489 111 q 485 217 489 197 q 435 247 479 247 q 374 197 374 247 q 386 169 374 182 q 414 156 399 156 q 454 172 429 156 q 456 160 456 165 q 457 151 457 154 q 406 53 457 99 q 301 7 353 7 q 251 15 276 7 q 185 86 185 36 q 258 257 185 179 q 301 292 267 265 q 396 367 335 319 q 468 468 471 424 q 431 501 465 501 q 388 482 408 501 q 361 440 367 463 q 389 472 369 449 q 422 489 406 489 q 438 486 424 489 q 450 463 450 479 q 433 425 450 447 q 322 354 419 403 q 243 308 275 331 q 194 264 211 286 q 129 122 129 178 q 133 93 129 107 m 483 542 q 519 556 503 542 q 539 588 536 569 q 531 621 542 607 q 500 635 519 635 q 465 621 481 635 q 446 588 449 607 q 483 542 439 542 z "},"":{"ha":1160,"x_min":71,"x_max":1494,"o":"m 1494 851 q 1461 867 1475 865 q 1432 868 1447 868 q 1301 828 1354 868 q 1244 778 1275 808 q 1178 706 1214 747 q 1109 627 1138 658 q 1061 579 1081 596 q 1015 631 1032 613 q 992 656 997 650 q 924 676 963 676 q 840 638 879 676 q 810 500 810 578 q 863 307 810 389 q 604 53 810 154 q 439 26 525 26 q 210 108 292 26 q 114 310 114 204 q 126 397 114 339 q 206 522 140 456 q 332 610 272 589 q 439 624 386 624 q 635 549 574 624 q 676 431 676 496 l 676 415 q 621 301 676 363 q 479 240 564 240 q 404 256 442 240 q 335 329 335 283 q 349 366 335 349 q 382 388 363 383 q 338 406 364 410 q 290 340 290 392 q 300 301 290 321 q 331 265 310 282 q 383 238 351 249 q 457 228 414 228 q 675 325 582 228 q 721 460 721 381 q 703 536 721 501 q 644 594 675 571 q 479 643 579 643 q 178 518 340 643 q 71 290 71 411 q 73 269 71 285 q 78 226 75 253 q 151 97 86 163 q 276 15 210 39 q 397 0 325 0 q 888 279 656 0 q 1007 226 953 226 l 1008 261 q 906 304 935 261 q 990 424 954 375 q 1050 501 1026 474 q 1078 378 1078 439 q 1028 189 1078 286 q 974 87 997 131 q 935 15 950 43 q 936 15 929 15 q 961 14 943 15 q 988 21 976 14 q 1033 112 1007 64 q 1090 215 1058 160 l 1213 432 q 1276 547 1249 499 q 1318 628 1303 596 q 1364 701 1344 669 q 1397 754 1383 732 q 1494 851 1439 818 m 1443 838 l 1449 832 q 1243 567 1349 739 q 1158 422 1200 494 q 1074 276 1117 350 q 1090 367 1085 325 q 1096 440 1096 408 q 1081 542 1096 496 l 1164 671 q 1218 740 1192 710 q 1269 789 1244 769 q 1408 840 1333 840 q 1422 840 1414 840 q 1443 838 1431 839 m 917 631 q 1029 542 974 631 q 881 332 996 460 q 819 494 819 413 q 839 581 819 546 q 853 603 847 594 q 868 617 860 613 q 888 625 876 622 q 917 631 900 628 m 1254 1032 l 1360 958 l 1369 953 q 1376 954 1369 951 l 1379 956 l 1379 958 q 1376 967 1381 963 l 1288 1051 l 1278 1061 q 1263 1071 1269 1069 q 1240 1057 1242 1074 q 1254 1032 1238 1042 z "},"":{"ha":1160,"x_min":71,"x_max":1624,"o":"m 1494 851 q 1461 867 1475 865 q 1432 868 1447 868 q 1301 828 1354 868 q 1244 778 1275 808 q 1178 706 1214 747 q 1109 627 1138 658 q 1061 579 1081 596 q 1015 631 1032 613 q 992 656 997 650 q 924 676 963 676 q 840 638 879 676 q 810 500 810 578 q 863 307 810 389 q 604 53 810 154 q 439 26 525 26 q 210 108 292 26 q 114 310 114 204 q 126 397 114 339 q 206 522 140 456 q 332 610 272 589 q 439 624 386 624 q 635 549 574 624 q 676 431 676 496 l 676 415 q 621 301 676 363 q 479 240 564 240 q 404 256 442 240 q 335 329 335 283 q 349 366 335 349 q 382 388 363 383 q 338 406 364 410 q 290 340 290 392 q 300 301 290 321 q 331 265 310 282 q 383 238 351 249 q 457 228 414 228 q 675 325 582 228 q 721 460 721 381 q 703 536 721 501 q 644 594 675 571 q 479 643 579 643 q 178 518 340 643 q 71 290 71 411 q 73 269 71 285 q 78 226 75 253 q 151 97 86 163 q 276 15 210 39 q 397 0 325 0 q 888 279 656 0 q 1007 226 953 226 l 1008 261 q 906 304 935 261 q 990 424 954 375 q 1050 501 1026 474 q 1078 378 1078 439 q 1028 189 1078 286 q 974 87 997 131 q 935 15 950 43 q 936 15 929 15 q 961 14 943 15 q 988 21 976 14 q 1033 112 1007 64 q 1090 215 1058 160 l 1213 432 q 1276 547 1249 499 q 1318 628 1303 596 q 1364 701 1344 669 q 1397 754 1383 732 q 1494 851 1439 818 m 1443 838 l 1449 832 q 1243 567 1349 739 q 1158 422 1200 494 q 1074 276 1117 350 q 1090 367 1085 325 q 1096 440 1096 408 q 1081 542 1096 496 l 1164 671 q 1218 740 1192 710 q 1269 789 1244 769 q 1408 840 1333 840 q 1422 840 1414 840 q 1443 838 1431 839 m 917 631 q 1029 542 974 631 q 881 332 996 460 q 819 494 819 413 q 839 581 819 546 q 853 603 847 594 q 868 617 860 613 q 888 625 876 622 q 917 631 900 628 m 1607 1033 q 1621 1058 1624 1043 q 1599 1072 1619 1076 q 1583 1064 1590 1071 l 1485 968 q 1482 961 1479 963 l 1482 957 l 1485 956 q 1493 957 1492 958 q 1493 956 1494 957 l 1492 954 l 1607 1033 z "},"":{"ha":1160,"x_min":71,"x_max":1561,"o":"m 1494 851 q 1461 867 1475 865 q 1432 868 1447 868 q 1301 828 1354 868 q 1244 778 1275 808 q 1178 706 1214 747 q 1109 627 1138 658 q 1061 579 1081 596 q 1015 631 1032 613 q 992 656 997 650 q 924 676 963 676 q 840 638 879 676 q 810 500 810 578 q 863 307 810 389 q 604 53 810 154 q 439 26 525 26 q 210 108 292 26 q 114 310 114 204 q 126 397 114 339 q 206 522 140 456 q 332 610 272 589 q 439 624 386 624 q 635 549 574 624 q 676 431 676 496 l 676 415 q 621 301 676 363 q 479 240 564 240 q 404 256 442 240 q 335 329 335 283 q 349 366 335 349 q 382 388 363 383 q 338 406 364 410 q 290 340 290 392 q 300 301 290 321 q 331 265 310 282 q 383 238 351 249 q 457 228 414 228 q 675 325 582 228 q 721 460 721 381 q 703 536 721 501 q 644 594 675 571 q 479 643 579 643 q 178 518 340 643 q 71 290 71 411 q 73 269 71 285 q 78 226 75 253 q 151 97 86 163 q 276 15 210 39 q 397 0 325 0 q 888 279 656 0 q 1007 226 953 226 l 1008 261 q 906 304 935 261 q 990 424 954 375 q 1050 501 1026 474 q 1078 378 1078 439 q 1028 189 1078 286 q 974 87 997 131 q 935 15 950 43 q 936 15 929 15 q 961 14 943 15 q 988 21 976 14 q 1033 112 1007 64 q 1090 215 1058 160 l 1213 432 q 1276 547 1249 499 q 1318 628 1303 596 q 1364 701 1344 669 q 1397 754 1383 732 q 1494 851 1439 818 m 1443 838 l 1449 832 q 1243 567 1349 739 q 1158 422 1200 494 q 1074 276 1117 350 q 1090 367 1085 325 q 1096 440 1096 408 q 1081 542 1096 496 l 1164 671 q 1218 740 1192 710 q 1269 789 1244 769 q 1408 840 1333 840 q 1422 840 1414 840 q 1443 838 1431 839 m 917 631 q 1029 542 974 631 q 881 332 996 460 q 819 494 819 413 q 839 581 819 546 q 853 603 847 594 q 868 617 860 613 q 888 625 876 622 q 917 631 900 628 m 1382 954 q 1496 999 1386 954 q 1554 954 1546 957 l 1558 956 l 1561 961 q 1540 994 1558 967 q 1524 1017 1531 1008 q 1515 1031 1518 1026 q 1490 1032 1513 1032 q 1469 1024 1482 1032 q 1399 981 1422 996 q 1375 964 1376 965 l 1374 961 q 1382 954 1374 954 z "},"":{"ha":1160,"x_min":71,"x_max":1582,"o":"m 1494 851 q 1461 867 1475 865 q 1432 868 1447 868 q 1301 828 1354 868 q 1244 778 1275 808 q 1178 706 1214 747 q 1109 627 1138 658 q 1061 579 1081 596 q 1015 631 1032 613 q 992 656 997 650 q 924 676 963 676 q 840 638 879 676 q 810 500 810 578 q 863 307 810 389 q 604 53 810 154 q 439 26 525 26 q 210 108 292 26 q 114 310 114 204 q 126 397 114 339 q 206 522 140 456 q 332 610 272 589 q 439 624 386 624 q 635 549 574 624 q 676 431 676 496 l 676 415 q 621 301 676 363 q 479 240 564 240 q 404 256 442 240 q 335 329 335 283 q 349 366 335 349 q 382 388 363 383 q 338 406 364 410 q 290 340 290 392 q 300 301 290 321 q 331 265 310 282 q 383 238 351 249 q 457 228 414 228 q 675 325 582 228 q 721 460 721 381 q 703 536 721 501 q 644 594 675 571 q 479 643 579 643 q 178 518 340 643 q 71 290 71 411 q 73 269 71 285 q 78 226 75 253 q 151 97 86 163 q 276 15 210 39 q 397 0 325 0 q 888 279 656 0 q 1007 226 953 226 l 1008 261 q 906 304 935 261 q 990 424 954 375 q 1050 501 1026 474 q 1078 378 1078 439 q 1028 189 1078 286 q 974 87 997 131 q 935 15 950 43 q 936 15 929 15 q 961 14 943 15 q 988 21 976 14 q 1033 112 1007 64 q 1090 215 1058 160 l 1213 432 q 1276 547 1249 499 q 1318 628 1303 596 q 1364 701 1344 669 q 1397 754 1383 732 q 1494 851 1439 818 m 1443 838 l 1449 832 q 1243 567 1349 739 q 1158 422 1200 494 q 1074 276 1117 350 q 1090 367 1085 325 q 1096 440 1096 408 q 1081 542 1096 496 l 1164 671 q 1218 740 1192 710 q 1269 789 1244 769 q 1408 840 1333 840 q 1422 840 1414 840 q 1443 838 1431 839 m 917 631 q 1029 542 974 631 q 881 332 996 460 q 819 494 819 413 q 839 581 819 546 q 853 603 847 594 q 868 617 860 613 q 888 625 876 622 q 917 631 900 628 m 1360 972 l 1357 967 l 1357 965 l 1358 963 l 1363 961 l 1368 964 l 1379 974 q 1418 993 1403 993 q 1444 983 1426 993 l 1479 967 l 1497 958 q 1513 956 1506 956 q 1557 979 1533 956 l 1579 1001 l 1582 1006 l 1581 1011 l 1575 1013 l 1571 1011 q 1528 989 1547 989 l 1518 992 q 1508 995 1514 993 q 1494 1003 1501 997 q 1435 1025 1458 1025 q 1383 999 1410 1026 l 1368 983 l 1360 972 z "},"":{"ha":1160,"x_min":71,"x_max":1564,"o":"m 1494 851 q 1461 867 1475 865 q 1432 868 1447 868 q 1301 828 1354 868 q 1244 778 1275 808 q 1178 706 1214 747 q 1109 627 1138 658 q 1061 579 1081 596 q 1015 631 1032 613 q 992 656 997 650 q 924 676 963 676 q 840 638 879 676 q 810 500 810 578 q 863 307 810 389 q 604 53 810 154 q 439 26 525 26 q 210 108 292 26 q 114 310 114 204 q 126 397 114 339 q 206 522 140 456 q 332 610 272 589 q 439 624 386 624 q 635 549 574 624 q 676 431 676 496 l 676 415 q 621 301 676 363 q 479 240 564 240 q 404 256 442 240 q 335 329 335 283 q 349 366 335 349 q 382 388 363 383 q 338 406 364 410 q 290 340 290 392 q 300 301 290 321 q 331 265 310 282 q 383 238 351 249 q 457 228 414 228 q 675 325 582 228 q 721 460 721 381 q 703 536 721 501 q 644 594 675 571 q 479 643 579 643 q 178 518 340 643 q 71 290 71 411 q 73 269 71 285 q 78 226 75 253 q 151 97 86 163 q 276 15 210 39 q 397 0 325 0 q 888 279 656 0 q 1007 226 953 226 l 1008 261 q 906 304 935 261 q 990 424 954 375 q 1050 501 1026 474 q 1078 378 1078 439 q 1028 189 1078 286 q 974 87 997 131 q 935 15 950 43 q 936 15 929 15 q 961 14 943 15 q 988 21 976 14 q 1033 112 1007 64 q 1090 215 1058 160 l 1213 432 q 1276 547 1249 499 q 1318 628 1303 596 q 1364 701 1344 669 q 1397 754 1383 732 q 1494 851 1439 818 m 1443 838 l 1449 832 q 1243 567 1349 739 q 1158 422 1200 494 q 1074 276 1117 350 q 1090 367 1085 325 q 1096 440 1096 408 q 1081 542 1096 496 l 1164 671 q 1218 740 1192 710 q 1269 789 1244 769 q 1408 840 1333 840 q 1422 840 1414 840 q 1443 838 1431 839 m 917 631 q 1029 542 974 631 q 881 332 996 460 q 819 494 819 413 q 839 581 819 546 q 853 603 847 594 q 868 617 860 613 q 888 625 876 622 q 917 631 900 628 m 1538 1000 q 1511 976 1511 1000 q 1514 968 1511 974 q 1533 953 1521 953 q 1546 956 1538 953 q 1563 981 1564 965 q 1538 1000 1563 1000 m 1440 1000 q 1414 976 1414 1000 q 1417 968 1414 974 q 1436 953 1424 953 q 1449 956 1440 953 q 1465 981 1467 965 q 1440 1000 1465 1000 z "},"":{"ha":1160,"x_min":71,"x_max":1543,"o":"m 1494 851 q 1461 867 1475 865 q 1432 868 1447 868 q 1301 828 1354 868 q 1244 778 1275 808 q 1178 706 1214 747 q 1109 627 1138 658 q 1061 579 1081 596 q 1015 631 1032 613 q 992 656 997 650 q 924 676 963 676 q 840 638 879 676 q 810 500 810 578 q 863 307 810 389 q 604 53 810 154 q 439 26 525 26 q 210 108 292 26 q 114 310 114 204 q 126 397 114 339 q 206 522 140 456 q 332 610 272 589 q 439 624 386 624 q 635 549 574 624 q 676 431 676 496 l 676 415 q 621 301 676 363 q 479 240 564 240 q 404 256 442 240 q 335 329 335 283 q 349 366 335 349 q 382 388 363 383 q 338 406 364 410 q 290 340 290 392 q 300 301 290 321 q 331 265 310 282 q 383 238 351 249 q 457 228 414 228 q 675 325 582 228 q 721 460 721 381 q 703 536 721 501 q 644 594 675 571 q 479 643 579 643 q 178 518 340 643 q 71 290 71 411 q 73 269 71 285 q 78 226 75 253 q 151 97 86 163 q 276 15 210 39 q 397 0 325 0 q 888 279 656 0 q 1007 226 953 226 l 1008 261 q 906 304 935 261 q 990 424 954 375 q 1050 501 1026 474 q 1078 378 1078 439 q 1028 189 1078 286 q 974 87 997 131 q 935 15 950 43 q 936 15 929 15 q 961 14 943 15 q 988 21 976 14 q 1033 112 1007 64 q 1090 215 1058 160 l 1213 432 q 1276 547 1249 499 q 1318 628 1303 596 q 1364 701 1344 669 q 1397 754 1383 732 q 1494 851 1439 818 m 1443 838 l 1449 832 q 1243 567 1349 739 q 1158 422 1200 494 q 1074 276 1117 350 q 1090 367 1085 325 q 1096 440 1096 408 q 1081 542 1096 496 l 1164 671 q 1218 740 1192 710 q 1269 789 1244 769 q 1408 840 1333 840 q 1422 840 1414 840 q 1443 838 1431 839 m 917 631 q 1029 542 974 631 q 881 332 996 460 q 819 494 819 413 q 839 581 819 546 q 853 603 847 594 q 868 617 860 613 q 888 625 876 622 q 917 631 900 628 m 1438 1008 q 1490 956 1438 956 q 1543 1008 1543 956 q 1527 1045 1543 1029 q 1490 1061 1511 1061 q 1453 1045 1468 1061 q 1438 1008 1438 1029 m 1454 1008 q 1490 1043 1453 1043 q 1525 1008 1525 1043 q 1490 974 1525 975 q 1454 1008 1456 972 z "},"":{"ha":2006,"x_min":71,"x_max":2167,"o":"m 917 631 q 1029 542 974 631 q 881 332 996 460 q 819 494 819 413 q 839 581 819 546 q 853 603 847 594 q 868 617 860 613 q 888 625 876 622 q 917 631 900 628 m 1383 764 q 1218 526 1304 672 q 1146 401 1182 464 q 1074 276 1110 339 q 1090 367 1085 325 q 1096 440 1096 408 q 1081 542 1096 496 l 1164 671 q 1218 740 1192 710 q 1269 789 1244 769 q 1408 840 1333 840 q 1422 840 1414 840 q 1443 838 1431 839 l 1447 833 q 1383 764 1397 811 m 1972 865 q 1751 647 1781 806 q 1599 604 1717 604 l 1574 604 q 1516 615 1543 604 q 1469 643 1489 625 q 1437 687 1449 661 q 1425 742 1425 713 q 1465 818 1425 793 q 1479 826 1469 822 q 1499 833 1489 831 q 1517 839 1508 836 q 1528 844 1525 842 q 1514 847 1517 847 q 1481 843 1518 847 q 1488 847 1483 846 q 1494 851 1492 849 q 1461 867 1475 865 q 1432 868 1447 868 q 1301 828 1354 868 q 1244 778 1275 808 q 1178 706 1214 747 q 1109 627 1138 658 q 1061 579 1081 596 q 1015 631 1032 613 q 992 656 997 650 q 924 676 963 676 q 840 638 879 676 q 810 500 810 578 q 863 307 810 389 q 604 53 810 154 q 439 26 525 26 q 210 108 292 26 q 114 310 114 204 q 114 324 114 317 q 115 338 114 331 q 199 514 124 424 q 332 610 258 585 q 439 624 386 624 q 635 549 574 624 q 676 431 676 496 l 676 415 q 621 301 676 363 q 479 240 564 240 q 404 256 442 240 q 335 329 335 283 q 349 366 335 349 q 382 388 363 383 q 338 406 364 410 q 290 340 290 392 q 300 301 290 321 q 331 265 310 282 q 383 238 351 249 q 457 228 414 228 q 675 325 582 228 q 721 460 721 381 q 703 536 721 501 q 644 594 675 571 q 479 643 579 643 q 178 518 340 643 q 71 290 71 411 q 73 269 71 285 q 78 226 75 253 q 151 97 86 163 q 276 15 210 39 q 397 0 325 0 q 888 279 656 0 q 1007 226 953 226 l 1008 261 q 906 304 935 261 q 990 424 954 375 q 1050 501 1026 474 q 1078 378 1078 439 q 1028 189 1078 286 q 974 87 997 131 q 935 15 950 43 q 936 15 929 15 q 961 14 943 15 q 988 21 976 14 q 1033 112 1007 64 q 1090 215 1058 160 l 1213 432 q 1276 547 1249 499 q 1318 628 1303 596 q 1353 685 1338 660 q 1379 726 1368 710 q 1424 644 1383 674 q 1603 589 1497 589 q 1739 608 1669 589 l 1744 567 q 1665 547 1704 557 q 1586 528 1626 538 q 1444 458 1492 499 q 1336 225 1336 360 q 1353 131 1336 176 q 1479 24 1397 46 q 1603 0 1539 0 q 1889 113 1756 0 q 2001 314 2001 189 q 1997 360 2001 336 q 1835 453 1965 443 q 1698 401 1760 446 q 1603 289 1636 357 l 1600 265 q 1599 251 1599 258 q 1599 239 1599 246 q 1629 161 1599 183 q 1708 138 1703 138 q 1717 138 1711 138 q 1729 140 1722 139 q 1783 207 1789 171 q 1757 233 1785 233 q 1742 229 1747 233 l 1742 199 q 1694 182 1729 182 l 1675 182 q 1619 275 1610 214 q 1667 360 1625 318 q 1801 432 1740 432 q 1931 379 1842 432 q 1963 279 1963 331 q 1883 125 1963 200 q 1646 21 1776 21 q 1426 110 1511 21 q 1388 239 1388 161 q 1431 376 1388 307 q 1593 508 1478 456 q 1799 554 1694 554 q 1792 592 1792 578 q 1846 661 1792 649 q 1878 682 1867 682 q 1897 646 1885 682 q 1932 607 1913 608 q 1988 593 1958 593 q 2110 658 2044 593 q 2167 764 2167 715 q 2150 815 2167 788 q 2021 868 2118 868 q 2001 867 2014 868 q 1972 865 1989 867 m 1842 765 q 1989 851 1890 851 q 2083 824 2053 851 q 2122 750 2122 786 q 2113 697 2122 725 q 2081 663 2093 675 q 2067 649 2069 651 q 2007 624 2038 624 q 1965 633 1985 624 q 1943 682 1943 651 q 1947 707 1943 696 q 1964 742 1964 733 q 1960 751 1964 747 q 1886 704 1943 746 q 1806 661 1840 668 q 1842 765 1817 722 z "},"":{"ha":801,"x_min":51,"x_max":1071,"o":"m 754 835 l 800 835 q 978 788 926 835 q 1019 671 1019 718 q 967 550 1019 619 q 888 489 932 506 q 786 476 851 476 l 769 476 q 711 539 728 497 q 707 565 707 553 q 710 594 708 581 q 714 624 711 608 q 661 593 699 628 q 636 570 649 582 q 613 547 624 558 q 339 428 506 457 q 501 681 403 574 q 754 835 618 803 m 456 -39 l 442 -43 l 464 0 l 467 0 q 742 90 597 0 l 742 106 q 599 29 663 43 q 581 28 589 28 q 563 28 572 28 l 525 28 q 343 81 393 28 q 285 236 285 140 q 328 408 285 321 q 493 457 407 408 q 636 560 543 485 q 672 517 650 556 q 713 476 696 478 q 794 460 754 460 q 969 519 876 460 q 1061 704 1061 600 q 1060 729 1061 724 q 1071 747 1071 740 q 1059 763 1071 750 q 1047 786 1047 776 q 857 868 982 868 q 841 867 850 868 q 819 865 832 867 q 492 704 639 824 q 274 414 346 583 q 244 413 267 413 q 175 426 204 413 q 92 563 92 460 q 104 636 92 600 q 165 700 126 674 q 244 742 183 713 q 183 722 213 735 q 128 690 154 708 q 51 556 51 635 q 103 444 51 497 q 183 413 126 424 q 268 392 249 400 q 239 229 239 304 q 315 38 239 106 q 449 0 375 4 l 418 -58 l 418 -64 l 418 -67 l 419 -68 l 422 -68 l 431 -65 l 440 -64 l 451 -61 q 476 -83 476 -57 q 429 -119 476 -114 q 363 -119 397 -126 l 356 -119 q 351 -128 349 -122 q 393 -142 356 -140 q 439 -139 414 -143 q 488 -115 468 -133 q 507 -67 514 -94 q 468 -37 500 -37 q 456 -39 460 -37 z "},"":{"ha":707,"x_min":42,"x_max":872,"o":"m 678 865 q 457 647 486 806 q 304 604 422 604 l 279 604 q 222 615 249 604 q 174 643 194 625 q 142 687 154 661 q 131 742 131 713 q 171 818 131 793 q 185 826 175 822 q 204 833 194 831 q 222 839 214 836 q 233 844 231 842 q 219 847 222 847 q 197 844 213 847 q 174 842 182 842 q 110 802 136 831 q 85 736 85 774 q 129 644 85 676 q 308 589 203 589 q 444 608 375 589 l 450 567 q 371 547 410 557 q 292 528 332 538 q 150 458 197 499 q 42 225 42 360 q 58 131 42 176 q 185 24 103 46 q 308 0 244 0 q 594 113 461 0 q 707 314 707 189 q 703 360 707 336 q 540 453 671 443 q 403 401 465 446 q 308 289 342 357 q 304 239 304 253 q 335 161 304 183 q 414 138 408 138 q 422 138 417 138 q 435 140 428 139 q 489 207 494 171 q 463 233 490 233 q 447 229 453 233 l 447 199 q 400 182 435 182 l 381 182 q 325 275 315 214 q 372 360 331 318 q 507 432 446 432 q 636 379 547 432 q 668 279 668 331 q 589 125 668 200 q 351 21 482 21 q 132 110 217 21 q 93 239 93 161 q 136 376 93 307 q 299 508 183 456 q 504 554 400 554 q 497 592 497 578 q 551 661 497 649 q 583 682 572 682 q 603 646 590 682 q 638 607 618 608 q 693 593 664 593 q 815 658 750 593 q 872 764 872 715 q 856 815 872 788 q 726 868 824 868 q 707 867 719 868 q 678 865 694 867 m 547 765 q 694 851 596 851 q 789 824 758 851 q 828 750 828 786 q 818 697 828 725 q 787 663 799 675 q 772 649 775 651 q 713 624 743 624 q 671 633 690 624 q 649 682 649 651 q 653 707 649 696 q 669 742 669 733 q 665 751 669 747 q 592 704 649 746 q 511 661 546 668 q 547 765 522 722 m 640 1032 l 746 958 l 756 953 q 763 954 756 951 l 765 956 l 765 958 q 763 967 767 963 l 674 1051 l 664 1061 q 649 1071 656 1069 q 626 1057 628 1074 q 640 1032 624 1042 z "},"":{"ha":707,"x_min":42,"x_max":917,"o":"m 678 865 q 457 647 486 806 q 304 604 422 604 l 279 604 q 222 615 249 604 q 174 643 194 625 q 142 687 154 661 q 131 742 131 713 q 171 818 131 793 q 185 826 175 822 q 204 833 194 831 q 222 839 214 836 q 233 844 231 842 q 219 847 222 847 q 197 844 213 847 q 174 842 182 842 q 110 802 136 831 q 85 736 85 774 q 129 644 85 676 q 308 589 203 589 q 444 608 375 589 l 450 567 q 371 547 410 557 q 292 528 332 538 q 150 458 197 499 q 42 225 42 360 q 58 131 42 176 q 185 24 103 46 q 308 0 244 0 q 594 113 461 0 q 707 314 707 189 q 703 360 707 336 q 540 453 671 443 q 403 401 465 446 q 308 289 342 357 q 304 239 304 253 q 335 161 304 183 q 414 138 408 138 q 422 138 417 138 q 435 140 428 139 q 489 207 494 171 q 463 233 490 233 q 447 229 453 233 l 447 199 q 400 182 435 182 l 381 182 q 325 275 315 214 q 372 360 331 318 q 507 432 446 432 q 636 379 547 432 q 668 279 668 331 q 589 125 668 200 q 351 21 482 21 q 132 110 217 21 q 93 239 93 161 q 136 376 93 307 q 299 508 183 456 q 504 554 400 554 q 497 592 497 578 q 551 661 497 649 q 583 682 572 682 q 603 646 590 682 q 638 607 618 608 q 693 593 664 593 q 815 658 750 593 q 872 764 872 715 q 856 815 872 788 q 726 868 824 868 q 707 867 719 868 q 678 865 694 867 m 547 765 q 694 851 596 851 q 789 824 758 851 q 828 750 828 786 q 818 697 828 725 q 787 663 799 675 q 772 649 775 651 q 713 624 743 624 q 671 633 690 624 q 649 682 649 651 q 653 707 649 696 q 669 742 669 733 q 665 751 669 747 q 592 704 649 746 q 511 661 546 668 q 547 765 522 722 m 900 1035 q 914 1060 917 1044 q 892 1074 913 1078 q 876 1064 885 1072 l 778 969 q 775 961 774 965 l 775 958 l 778 957 q 786 958 782 958 q 786 957 788 958 l 785 956 l 900 1035 z "},"":{"ha":707,"x_min":42,"x_max":904,"o":"m 678 865 q 457 647 486 806 q 304 604 422 604 l 279 604 q 222 615 249 604 q 174 643 194 625 q 142 687 154 661 q 131 742 131 713 q 171 818 131 793 q 185 826 175 822 q 204 833 194 831 q 222 839 214 836 q 233 844 231 842 q 219 847 222 847 q 197 844 213 847 q 174 842 182 842 q 110 802 136 831 q 85 736 85 774 q 129 644 85 676 q 308 589 203 589 q 444 608 375 589 l 450 567 q 371 547 410 557 q 292 528 332 538 q 150 458 197 499 q 42 225 42 360 q 58 131 42 176 q 185 24 103 46 q 308 0 244 0 q 594 113 461 0 q 707 314 707 189 q 703 360 707 336 q 540 453 671 443 q 403 401 465 446 q 308 289 342 357 q 304 239 304 253 q 335 161 304 183 q 414 138 408 138 q 422 138 417 138 q 435 140 428 139 q 489 207 494 171 q 463 233 490 233 q 447 229 453 233 l 447 199 q 400 182 435 182 l 381 182 q 325 275 315 214 q 372 360 331 318 q 507 432 446 432 q 636 379 547 432 q 668 279 668 331 q 589 125 668 200 q 351 21 482 21 q 132 110 217 21 q 93 239 93 161 q 136 376 93 307 q 299 508 183 456 q 504 554 400 554 q 497 592 497 578 q 551 661 497 649 q 583 682 572 682 q 603 646 590 682 q 638 607 618 608 q 693 593 664 593 q 815 658 750 593 q 872 764 872 715 q 856 815 872 788 q 726 868 824 868 q 707 867 719 868 q 678 865 694 867 m 547 765 q 694 851 596 851 q 789 824 758 851 q 828 750 828 786 q 818 697 828 725 q 787 663 799 675 q 772 649 775 651 q 713 624 743 624 q 671 633 690 624 q 649 682 649 651 q 653 707 649 696 q 669 742 669 733 q 665 751 669 747 q 592 704 649 746 q 511 661 546 668 q 547 765 522 722 m 724 956 q 838 1000 728 956 q 897 956 889 958 l 901 957 l 904 963 q 883 997 901 971 q 867 1020 874 1011 q 857 1032 861 1029 q 833 1033 856 1033 q 811 1025 825 1033 q 718 965 719 969 l 717 963 q 724 956 717 956 z "},"":{"ha":707,"x_min":42,"x_max":886,"o":"m 678 865 q 457 647 486 806 q 304 604 422 604 l 279 604 q 222 615 249 604 q 174 643 194 625 q 142 687 154 661 q 131 742 131 713 q 171 818 131 793 q 185 826 175 822 q 204 833 194 831 q 222 839 214 836 q 233 844 231 842 q 219 847 222 847 q 197 844 213 847 q 174 842 182 842 q 110 802 136 831 q 85 736 85 774 q 129 644 85 676 q 308 589 203 589 q 444 608 375 589 l 450 567 q 371 547 410 557 q 292 528 332 538 q 150 458 197 499 q 42 225 42 360 q 58 131 42 176 q 185 24 103 46 q 308 0 244 0 q 594 113 461 0 q 707 314 707 189 q 703 360 707 336 q 540 453 671 443 q 403 401 465 446 q 308 289 342 357 q 304 239 304 253 q 335 161 304 183 q 414 138 408 138 q 422 138 417 138 q 435 140 428 139 q 489 207 494 171 q 463 233 490 233 q 447 229 453 233 l 447 199 q 400 182 435 182 l 381 182 q 325 275 315 214 q 372 360 331 318 q 507 432 446 432 q 636 379 547 432 q 668 279 668 331 q 589 125 668 200 q 351 21 482 21 q 132 110 217 21 q 93 239 93 161 q 136 376 93 307 q 299 508 183 456 q 504 554 400 554 q 497 592 497 578 q 551 661 497 649 q 583 682 572 682 q 603 646 590 682 q 638 607 618 608 q 693 593 664 593 q 815 658 750 593 q 872 764 872 715 q 856 815 872 788 q 726 868 824 868 q 707 867 719 868 q 678 865 694 867 m 547 765 q 694 851 596 851 q 789 824 758 851 q 828 750 828 786 q 818 697 828 725 q 787 663 799 675 q 772 649 775 651 q 713 624 743 624 q 671 633 690 624 q 649 682 649 651 q 653 707 649 696 q 669 742 669 733 q 665 751 669 747 q 592 704 649 746 q 511 661 546 668 q 547 765 522 722 m 860 1000 q 833 976 833 1000 q 836 968 833 974 q 856 953 843 953 q 868 956 860 953 q 885 981 886 965 q 860 1000 885 1000 m 763 1000 q 736 976 736 1000 q 739 968 736 974 q 758 953 746 953 q 771 956 763 953 q 788 981 789 965 q 763 1000 788 1000 z "},"":{"ha":858,"x_min":58,"x_max":1222,"o":"m 1115 818 l 1119 814 q 968 628 1044 753 q 918 538 950 597 q 840 389 886 479 q 770 258 801 313 q 714 168 739 203 q 590 57 657 89 q 529 35 568 46 q 432 13 490 24 l 382 13 q 233 42 297 13 q 131 135 168 71 q 96 267 96 194 q 129 383 96 335 q 386 519 204 519 q 496 479 456 501 q 533 435 526 463 q 546 378 540 407 l 546 363 q 496 238 546 292 q 375 183 446 183 q 333 189 350 183 q 272 263 272 221 q 286 304 272 281 q 298 326 293 318 q 304 339 303 335 q 244 282 274 319 q 240 256 240 269 q 270 192 240 214 q 343 169 300 169 q 483 210 379 169 q 586 390 586 300 q 500 513 586 464 q 404 540 457 540 q 219 485 329 540 q 104 374 150 449 q 58 222 58 300 q 171 38 58 96 q 311 0 226 0 q 532 35 367 0 q 771 193 697 89 q 838 306 790 221 q 960 535 885 392 q 1175 844 1074 753 q 1221 868 1222 854 q 1167 849 1208 868 q 1115 818 1126 829 m 675 828 q 725 836 700 836 q 861 801 769 836 q 992 767 953 767 q 1100 808 1050 767 q 1028 794 1067 794 q 899 824 988 794 q 771 854 811 854 q 675 828 718 854 m 665 817 q 594 710 594 763 q 628 643 594 664 l 674 622 q 711 618 692 618 q 876 696 786 618 l 874 707 q 868 694 871 697 q 742 644 826 644 q 665 663 699 644 q 631 729 631 682 q 665 817 631 778 m 867 1032 l 972 958 l 982 953 q 989 954 982 951 l 992 956 l 992 958 q 989 967 993 963 l 900 1051 l 890 1061 q 875 1071 882 1069 q 853 1057 854 1074 q 867 1032 850 1042 z "},"":{"ha":858,"x_min":58,"x_max":1222,"o":"m 1115 818 l 1119 814 q 968 628 1044 753 q 918 538 950 597 q 840 389 886 479 q 770 258 801 313 q 714 168 739 203 q 590 57 657 89 q 529 35 568 46 q 432 13 490 24 l 382 13 q 233 42 297 13 q 131 135 168 71 q 96 267 96 194 q 129 383 96 335 q 386 519 204 519 q 496 479 456 501 q 533 435 526 463 q 546 378 540 407 l 546 363 q 496 238 546 292 q 375 183 446 183 q 333 189 350 183 q 272 263 272 221 q 286 304 272 281 q 298 326 293 318 q 304 339 303 335 q 244 282 274 319 q 240 256 240 269 q 270 192 240 214 q 343 169 300 169 q 483 210 379 169 q 586 390 586 300 q 500 513 586 464 q 404 540 457 540 q 219 485 329 540 q 104 374 150 449 q 58 222 58 300 q 171 38 58 96 q 311 0 226 0 q 532 35 367 0 q 771 193 697 89 q 838 306 790 221 q 960 535 885 392 q 1175 844 1074 753 q 1221 868 1222 854 q 1167 849 1208 868 q 1115 818 1126 829 m 675 828 q 725 836 700 836 q 861 801 769 836 q 992 767 953 767 q 1100 808 1050 767 q 1028 794 1067 794 q 899 824 988 794 q 771 854 811 854 q 675 828 718 854 m 665 817 q 594 710 594 763 q 628 643 594 664 l 674 622 q 711 618 692 618 q 876 696 786 618 l 874 707 q 868 694 871 697 q 742 644 826 644 q 665 663 699 644 q 631 729 631 682 q 665 817 631 778 m 1086 1033 q 1100 1058 1103 1043 q 1078 1072 1099 1076 q 1063 1064 1069 1071 l 964 968 q 961 961 958 963 l 961 957 l 964 956 q 972 957 971 958 q 972 956 974 957 l 971 954 l 1086 1033 z "},"":{"ha":858,"x_min":58,"x_max":1222,"o":"m 1115 818 l 1119 814 q 968 628 1044 753 q 918 538 950 597 q 840 389 886 479 q 770 258 801 313 q 714 168 739 203 q 590 57 657 89 q 529 35 568 46 q 432 13 490 24 l 382 13 q 233 42 297 13 q 131 135 168 71 q 96 267 96 194 q 129 383 96 335 q 386 519 204 519 q 496 479 456 501 q 533 435 526 463 q 546 378 540 407 l 546 363 q 496 238 546 292 q 375 183 446 183 q 333 189 350 183 q 272 263 272 221 q 286 304 272 281 q 298 326 293 318 q 304 339 303 335 q 244 282 274 319 q 240 256 240 269 q 270 192 240 214 q 343 169 300 169 q 483 210 379 169 q 586 390 586 300 q 500 513 586 464 q 404 540 457 540 q 219 485 329 540 q 104 374 150 449 q 58 222 58 300 q 171 38 58 96 q 311 0 226 0 q 532 35 367 0 q 771 193 697 89 q 838 306 790 221 q 960 535 885 392 q 1175 844 1074 753 q 1221 868 1222 854 q 1167 849 1208 868 q 1115 818 1126 829 m 675 828 q 725 836 700 836 q 861 801 769 836 q 992 767 953 767 q 1100 808 1050 767 q 1028 794 1067 794 q 899 824 988 794 q 771 854 811 854 q 675 828 718 854 m 665 817 q 594 710 594 763 q 628 643 594 664 l 674 622 q 711 618 692 618 q 876 696 786 618 l 874 707 q 868 694 871 697 q 742 644 826 644 q 665 663 699 644 q 631 729 631 682 q 665 817 631 778 m 901 956 q 1015 1000 906 956 q 1075 956 1067 958 l 1079 957 l 1082 963 q 1061 997 1079 971 q 1045 1020 1051 1011 q 1035 1032 1039 1029 q 1011 1033 1033 1033 q 989 1025 1003 1033 q 896 965 897 969 l 894 963 q 901 956 894 956 z "},"":{"ha":858,"x_min":58,"x_max":1222,"o":"m 1115 818 l 1119 814 q 968 628 1044 753 q 918 538 950 597 q 840 389 886 479 q 770 258 801 313 q 714 168 739 203 q 590 57 657 89 q 529 35 568 46 q 432 13 490 24 l 382 13 q 233 42 297 13 q 131 135 168 71 q 96 267 96 194 q 129 383 96 335 q 386 519 204 519 q 496 479 456 501 q 533 435 526 463 q 546 378 540 407 l 546 363 q 496 238 546 292 q 375 183 446 183 q 333 189 350 183 q 272 263 272 221 q 286 304 272 281 q 298 326 293 318 q 304 339 303 335 q 244 282 274 319 q 240 256 240 269 q 270 192 240 214 q 343 169 300 169 q 483 210 379 169 q 586 390 586 300 q 500 513 586 464 q 404 540 457 540 q 219 485 329 540 q 104 374 150 449 q 58 222 58 300 q 171 38 58 96 q 311 0 226 0 q 532 35 367 0 q 771 193 697 89 q 838 306 790 221 q 960 535 885 392 q 1175 844 1074 753 q 1221 868 1222 854 q 1167 849 1208 868 q 1115 818 1126 829 m 675 828 q 725 836 700 836 q 861 801 769 836 q 992 767 953 767 q 1100 808 1050 767 q 1028 794 1067 794 q 899 824 988 794 q 771 854 811 854 q 675 828 718 854 m 665 817 q 594 710 594 763 q 628 643 594 664 l 674 622 q 711 618 692 618 q 876 696 786 618 l 874 707 q 868 694 871 697 q 742 644 826 644 q 665 663 699 644 q 631 729 631 682 q 665 817 631 778 m 1063 1000 q 1036 976 1036 1000 q 1039 968 1036 974 q 1058 953 1046 953 q 1071 956 1063 953 q 1088 981 1089 965 q 1063 1000 1088 1000 m 965 1000 q 939 976 939 1000 q 942 968 939 974 q 961 953 949 953 q 974 956 965 953 q 990 981 992 965 q 965 1000 990 1000 z "},"":{"ha":932,"x_min":69,"x_max":1467,"o":"m 1467 756 q 1238 867 1429 867 q 915 731 1049 867 q 1243 829 1083 829 q 1403 794 1335 829 q 1435 774 1417 792 q 1467 756 1453 756 m 111 40 q 165 67 133 67 l 304 25 q 208 11 264 11 q 111 40 140 11 m 664 417 q 606 312 629 353 q 571 251 582 271 q 394 54 499 129 q 344 57 375 54 q 272 65 313 60 q 201 74 232 71 q 151 76 171 76 q 124 76 136 76 q 101 74 111 75 q 69 49 69 67 q 71 40 69 43 q 206 0 115 0 q 317 13 256 0 q 385 5 351 7 q 450 3 418 3 q 893 207 756 3 q 988 481 988 322 q 965 625 988 558 q 804 808 911 743 q 567 868 703 868 q 310 810 440 868 q 119 639 160 742 q 86 511 86 551 q 138 353 86 413 q 265 304 179 304 q 309 307 285 304 q 365 315 333 310 q 493 417 446 351 l 664 417 m 728 438 l 733 450 q 807 586 774 529 q 868 678 840 643 q 938 456 938 585 q 885 242 938 344 q 760 92 836 147 q 576 31 674 31 l 500 42 q 421 54 435 50 q 597 211 525 111 q 717 417 640 271 l 864 417 l 864 438 l 728 438 m 250 438 l 250 417 l 475 417 q 424 361 451 389 q 306 336 367 336 q 211 354 249 336 q 132 463 171 372 q 131 496 131 469 q 324 813 131 683 q 519 856 447 856 q 863 696 724 856 q 783 609 822 660 q 708 494 744 558 q 693 467 701 482 q 675 438 685 453 l 507 438 q 543 576 543 499 q 513 631 538 608 q 456 653 488 653 q 347 578 369 638 q 446 621 407 621 q 490 590 479 600 q 514 517 514 569 q 490 438 514 474 l 250 438 z "},"":{"ha":1246,"x_min":76,"x_max":1607,"o":"m 522 22 q 433 7 481 7 q 324 25 374 7 q 119 299 119 89 q 140 363 125 332 q 174 420 154 394 q 220 466 194 446 q 275 496 246 486 q 386 519 354 519 q 514 468 457 519 q 572 350 572 418 q 564 294 572 332 q 545 251 560 271 q 511 217 531 232 q 468 193 492 201 q 421 185 444 185 q 386 189 407 185 q 360 199 374 190 q 335 220 346 208 q 317 247 324 232 q 310 274 310 261 l 310 281 q 313 296 310 285 q 339 318 317 307 q 349 323 342 319 q 371 332 357 326 q 336 357 364 357 q 310 347 325 357 q 275 263 275 329 q 314 193 275 219 q 394 171 349 171 q 540 231 472 171 q 610 367 610 292 q 590 436 610 390 q 392 532 549 532 q 300 524 363 532 q 175 468 242 518 q 93 360 108 417 q 76 258 76 293 q 135 104 76 171 q 392 -4 231 -4 q 536 18 469 -4 q 799 179 632 49 q 938 365 881 244 q 994 497 969 440 q 1036 592 1019 553 q 1172 783 1089 710 q 1308 819 1229 819 q 1460 794 1378 819 q 1308 675 1376 736 q 1197 535 1242 592 q 1131 449 1153 479 q 1001 82 1001 271 q 1014 46 1001 60 q 1089 21 1031 21 q 1178 61 1140 21 q 1197 88 1183 67 q 1235 146 1211 110 q 1181 75 1224 113 q 1106 39 1138 39 q 1050 69 1071 39 q 1032 131 1032 96 q 1096 300 1032 182 q 1153 408 1128 361 q 1199 492 1179 456 q 1260 588 1226 543 q 1329 671 1293 632 q 1540 807 1419 767 l 1585 831 q 1606 868 1607 843 l 1592 868 q 1513 835 1560 835 q 1479 838 1499 835 q 1432 846 1460 840 q 1353 858 1379 858 q 1326 857 1332 858 q 1043 647 1186 857 q 1000 775 1033 726 q 863 842 951 842 q 686 756 776 842 q 619 593 619 669 q 628 546 619 568 q 651 507 636 524 q 687 480 667 490 q 732 469 707 469 q 777 480 754 469 q 811 510 800 490 q 831 554 821 521 q 826 563 829 557 q 819 581 824 569 q 807 589 813 589 q 797 585 803 589 q 800 561 800 582 q 765 513 800 543 q 742 508 754 508 q 679 531 706 508 q 639 614 639 563 q 799 819 639 769 q 815 822 801 819 l 832 822 q 976 742 938 822 q 993 633 993 685 q 958 481 993 572 q 776 215 915 365 q 522 22 636 67 m 1093 972 l 1090 967 l 1090 965 l 1092 963 l 1096 961 l 1101 964 l 1113 974 q 1151 993 1136 993 q 1178 983 1160 993 l 1213 967 l 1231 958 q 1246 956 1239 956 q 1290 979 1267 956 l 1313 1001 l 1315 1006 l 1314 1011 l 1308 1013 l 1304 1011 q 1261 989 1281 989 l 1251 992 q 1241 995 1247 993 q 1228 1003 1235 997 q 1168 1025 1192 1025 q 1117 999 1143 1026 l 1101 983 l 1093 972 z "},"":{"ha":672,"x_min":40,"x_max":1000,"o":"m 704 865 q 332 713 514 847 q 89 396 146 574 q 74 346 82 371 q 57 297 65 321 q 40 196 40 239 q 93 50 40 115 q 229 -17 149 -17 q 510 113 340 -17 q 594 202 558 163 q 653 269 629 242 q 771 557 771 410 q 769 592 771 576 q 765 622 768 608 q 728 672 742 656 q 653 699 706 699 q 447 599 574 699 q 399 528 417 556 q 375 490 382 501 q 339 368 339 425 q 354 300 339 326 q 388 267 369 274 q 433 263 400 263 q 474 301 474 288 q 471 314 474 306 q 446 308 461 315 q 424 301 431 301 q 407 307 413 301 q 380 330 392 313 q 367 379 368 347 q 433 554 364 468 q 585 669 497 633 q 617 674 601 674 q 703 636 665 674 q 726 531 726 582 q 694 399 726 467 q 610 261 654 315 q 549 176 579 213 q 486 113 518 139 q 321 26 411 50 l 308 26 l 299 26 q 283 25 292 25 q 183 42 228 24 q 111 114 138 61 q 89 214 89 160 q 139 396 89 256 q 363 710 206 578 q 715 850 532 850 q 853 818 804 838 q 951 724 924 786 q 956 699 956 711 q 922 629 956 660 q 939 618 929 618 q 988 644 961 618 q 1000 703 1000 669 q 989 758 1000 732 q 753 869 897 869 q 704 865 743 869 m 547 1032 l 653 958 l 663 953 q 669 954 663 951 l 672 956 l 672 958 q 669 967 674 963 l 581 1051 l 571 1061 q 556 1071 563 1069 q 533 1057 535 1074 q 547 1032 531 1042 z "},"":{"ha":672,"x_min":40,"x_max":1000,"o":"m 704 865 q 332 713 514 847 q 89 396 146 574 q 74 346 82 371 q 57 297 65 321 q 40 196 40 239 q 93 50 40 115 q 229 -17 149 -17 q 510 113 340 -17 q 594 202 558 163 q 653 269 629 242 q 771 557 771 410 q 769 592 771 576 q 765 622 768 608 q 728 672 742 656 q 653 699 706 699 q 447 599 574 699 q 399 528 417 556 q 375 490 382 501 q 339 368 339 425 q 354 300 339 326 q 388 267 369 274 q 433 263 400 263 q 474 301 474 288 q 471 314 474 306 q 446 308 461 315 q 424 301 431 301 q 407 307 413 301 q 380 330 392 313 q 367 379 368 347 q 433 554 364 468 q 585 669 497 633 q 617 674 601 674 q 703 636 665 674 q 726 531 726 582 q 694 399 726 467 q 610 261 654 315 q 549 176 579 213 q 486 113 518 139 q 321 26 411 50 l 308 26 l 299 26 q 283 25 292 25 q 183 42 228 24 q 111 114 138 61 q 89 214 89 160 q 139 396 89 256 q 363 710 206 578 q 715 850 532 850 q 853 818 804 838 q 951 724 924 786 q 956 699 956 711 q 922 629 956 660 q 939 618 929 618 q 988 644 961 618 q 1000 703 1000 669 q 989 758 1000 732 q 753 869 897 869 q 704 865 743 869 m 911 1032 q 925 1057 928 1042 q 903 1071 924 1074 q 888 1061 896 1069 l 789 967 q 786 958 785 963 l 786 956 l 789 954 q 797 956 793 956 q 797 954 799 956 l 796 953 l 911 1032 z "},"":{"ha":672,"x_min":40,"x_max":1000,"o":"m 704 865 q 332 713 514 847 q 89 396 146 574 q 74 346 82 371 q 57 297 65 321 q 40 196 40 239 q 93 50 40 115 q 229 -17 149 -17 q 510 113 340 -17 q 594 202 558 163 q 653 269 629 242 q 771 557 771 410 q 769 592 771 576 q 765 622 768 608 q 728 672 742 656 q 653 699 706 699 q 447 599 574 699 q 399 528 417 556 q 375 490 382 501 q 339 368 339 425 q 354 300 339 326 q 388 267 369 274 q 433 263 400 263 q 474 301 474 288 q 471 314 474 306 q 446 308 461 315 q 424 301 431 301 q 407 307 413 301 q 380 330 392 313 q 367 379 368 347 q 433 554 364 468 q 585 669 497 633 q 617 674 601 674 q 703 636 665 674 q 726 531 726 582 q 694 399 726 467 q 610 261 654 315 q 549 176 579 213 q 486 113 518 139 q 321 26 411 50 l 308 26 l 299 26 q 283 25 292 25 q 183 42 228 24 q 111 114 138 61 q 89 214 89 160 q 139 396 89 256 q 363 710 206 578 q 715 850 532 850 q 853 818 804 838 q 951 724 924 786 q 956 699 956 711 q 922 629 956 660 q 939 618 929 618 q 988 644 961 618 q 1000 703 1000 669 q 989 758 1000 732 q 753 869 897 869 q 704 865 743 869 m 797 949 q 911 993 801 949 q 971 949 963 951 l 975 950 l 978 956 q 957 990 975 964 q 941 1013 947 1004 q 931 1025 935 1022 q 907 1026 929 1026 q 885 1018 899 1026 q 792 958 793 963 l 790 956 q 797 949 790 949 z "},"":{"ha":672,"x_min":40,"x_max":1000,"o":"m 704 865 q 332 713 514 847 q 89 396 146 574 q 74 346 82 371 q 57 297 65 321 q 40 196 40 239 q 93 50 40 115 q 229 -17 149 -17 q 510 113 340 -17 q 594 202 558 163 q 653 269 629 242 q 771 557 771 410 q 769 592 771 576 q 765 622 768 608 q 728 672 742 656 q 653 699 706 699 q 447 599 574 699 q 399 528 417 556 q 375 490 382 501 q 339 368 339 425 q 354 300 339 326 q 388 267 369 274 q 433 263 400 263 q 474 301 474 288 q 471 314 474 306 q 446 308 461 315 q 424 301 431 301 q 407 307 413 301 q 380 330 392 313 q 367 379 368 347 q 433 554 364 468 q 585 669 497 633 q 617 674 601 674 q 703 636 665 674 q 726 531 726 582 q 694 399 726 467 q 610 261 654 315 q 549 176 579 213 q 486 113 518 139 q 321 26 411 50 l 308 26 l 299 26 q 283 25 292 25 q 183 42 228 24 q 111 114 138 61 q 89 214 89 160 q 139 396 89 256 q 363 710 206 578 q 715 850 532 850 q 853 818 804 838 q 951 724 924 786 q 956 699 956 711 q 922 629 956 660 q 939 618 929 618 q 988 644 961 618 q 1000 703 1000 669 q 989 758 1000 732 q 753 869 897 869 q 704 865 743 869 m 768 972 l 765 967 l 765 965 l 767 963 l 771 961 l 776 964 l 788 974 q 826 993 811 993 q 853 983 835 993 l 888 967 l 906 958 q 921 956 914 956 q 965 979 942 956 l 988 1001 l 990 1006 l 989 1011 l 983 1013 l 979 1011 q 936 989 956 989 l 926 992 q 916 995 922 993 q 903 1003 910 997 q 843 1025 867 1025 q 792 999 818 1026 l 776 983 l 768 972 z "},"":{"ha":672,"x_min":40,"x_max":1000,"o":"m 704 865 q 332 713 514 847 q 89 396 146 574 q 74 346 82 371 q 57 297 65 321 q 40 196 40 239 q 93 50 40 115 q 229 -17 149 -17 q 510 113 340 -17 q 594 202 558 163 q 653 269 629 242 q 771 557 771 410 q 769 592 771 576 q 765 622 768 608 q 728 672 742 656 q 653 699 706 699 q 447 599 574 699 q 399 528 417 556 q 375 490 382 501 q 339 368 339 425 q 354 300 339 326 q 388 267 369 274 q 433 263 400 263 q 474 301 474 288 q 471 314 474 306 q 446 308 461 315 q 424 301 431 301 q 407 307 413 301 q 380 330 392 313 q 367 379 368 347 q 433 554 364 468 q 585 669 497 633 q 617 674 601 674 q 703 636 665 674 q 726 531 726 582 q 694 399 726 467 q 610 261 654 315 q 549 176 579 213 q 486 113 518 139 q 321 26 411 50 l 308 26 l 299 26 q 283 25 292 25 q 183 42 228 24 q 111 114 138 61 q 89 214 89 160 q 139 396 89 256 q 363 710 206 578 q 715 850 532 850 q 853 818 804 838 q 951 724 924 786 q 956 699 956 711 q 922 629 956 660 q 939 618 929 618 q 988 644 961 618 q 1000 703 1000 669 q 989 758 1000 732 q 753 869 897 869 q 704 865 743 869 m 888 1000 q 861 976 861 1000 q 864 968 861 974 q 883 953 871 953 q 896 956 888 953 q 913 981 914 965 q 888 1000 913 1000 m 790 1000 q 764 976 764 1000 q 767 968 764 974 q 786 953 774 953 q 799 956 790 953 q 815 981 817 965 q 790 1000 815 1000 z "},"":{"ha":471,"x_min":85,"x_max":386,"o":"m 85 68 l 106 47 l 236 176 l 365 47 l 386 68 l 257 197 l 386 326 l 365 349 l 236 219 l 107 347 l 86 326 l 214 197 l 85 68 z "},"":{"ha":672,"x_min":40,"x_max":1000,"o":"m 704 865 q 332 713 514 847 q 89 396 146 574 q 74 346 82 371 q 57 297 65 321 q 40 196 40 239 q 93 50 40 115 q 229 -17 149 -17 q 510 113 340 -17 q 594 202 558 163 q 653 269 629 242 q 771 557 771 410 q 769 592 771 576 q 765 622 768 608 q 728 672 742 656 q 653 699 706 699 q 447 599 574 699 q 399 528 417 556 q 375 490 382 501 q 339 368 339 425 q 354 300 339 326 q 388 267 369 274 q 433 263 400 263 q 474 301 474 288 q 471 314 474 306 q 446 308 461 315 q 424 301 431 301 q 407 307 413 301 q 380 330 392 313 q 367 379 368 347 q 433 554 364 468 q 585 669 497 633 q 617 674 601 674 q 703 636 665 674 q 726 531 726 582 q 694 399 726 467 q 610 261 654 315 q 549 176 579 213 q 486 113 518 139 q 321 26 411 50 l 308 26 l 299 26 q 283 25 292 25 q 183 42 228 24 q 111 114 138 61 q 89 214 89 160 q 139 396 89 256 q 363 710 206 578 q 715 850 532 850 q 853 818 804 838 q 951 724 924 786 q 956 699 956 711 q 922 629 956 660 q 939 618 929 618 q 988 644 961 618 q 1000 703 1000 669 q 989 758 1000 732 q 753 869 897 869 q 704 865 743 869 z "},"":{"ha":929,"x_min":56,"x_max":1179,"o":"m 535 858 q 447 868 504 868 q 303 839 369 868 q 229 801 264 822 q 164 754 194 781 q 85 658 115 714 q 56 554 56 610 q 69 483 56 521 q 208 399 94 411 q 418 528 315 399 q 443 607 443 567 q 425 665 443 643 q 398 685 418 681 q 360 693 378 689 q 243 613 283 679 l 286 644 q 340 664 314 664 q 381 654 375 654 q 406 619 397 643 q 409 603 407 614 q 414 575 411 593 q 408 553 411 567 q 400 522 406 540 q 365 478 390 496 q 261 438 333 438 q 167 451 214 438 q 92 611 92 472 q 183 763 107 694 q 340 844 257 831 q 590 781 543 844 q 635 656 635 719 q 631 613 635 631 q 560 464 619 569 q 429 244 485 338 q 335 88 374 150 q 333 67 333 76 q 333 46 333 57 q 360 0 333 10 q 536 47 451 0 q 685 158 599 81 q 661 108 682 142 q 639 51 639 74 q 661 10 639 28 q 706 1 683 1 q 807 39 750 1 q 851 71 829 54 q 897 103 874 88 l 899 115 q 832 67 854 83 q 810 51 810 51 q 710 15 757 15 q 694 28 700 17 q 682 51 688 40 q 760 174 719 110 q 843 310 800 238 q 1043 639 960 506 q 1179 846 1126 772 l 1092 832 q 938 565 1060 782 q 832 388 879 464 q 744 261 785 313 q 479 19 624 106 q 446 15 464 15 q 381 46 399 15 q 403 108 390 78 q 433 169 415 139 q 454 203 436 174 q 507 286 472 232 q 585 409 557 365 q 619 464 613 453 q 686 657 686 585 q 657 768 686 719 q 535 858 617 835 m 757 1032 l 863 958 l 872 953 q 879 954 872 951 l 882 956 l 882 958 q 879 967 883 963 l 790 1051 l 781 1061 q 765 1071 772 1069 q 743 1057 744 1074 q 757 1032 740 1042 z "},"":{"ha":929,"x_min":56,"x_max":1179,"o":"m 535 858 q 447 868 504 868 q 303 839 369 868 q 229 801 264 822 q 164 754 194 781 q 85 658 115 714 q 56 554 56 610 q 69 483 56 521 q 208 399 94 411 q 418 528 315 399 q 443 607 443 567 q 425 665 443 643 q 398 685 418 681 q 360 693 378 689 q 243 613 283 679 l 286 644 q 340 664 314 664 q 381 654 375 654 q 406 619 397 643 q 409 603 407 614 q 414 575 411 593 q 408 553 411 567 q 400 522 406 540 q 365 478 390 496 q 261 438 333 438 q 167 451 214 438 q 92 611 92 472 q 183 763 107 694 q 340 844 257 831 q 590 781 543 844 q 635 656 635 719 q 631 613 635 631 q 560 464 619 569 q 429 244 485 338 q 335 88 374 150 q 333 67 333 76 q 333 46 333 57 q 360 0 333 10 q 536 47 451 0 q 685 158 599 81 q 661 108 682 142 q 639 51 639 74 q 661 10 639 28 q 706 1 683 1 q 807 39 750 1 q 851 71 829 54 q 897 103 874 88 l 899 115 q 832 67 854 83 q 810 51 810 51 q 710 15 757 15 q 694 28 700 17 q 682 51 688 40 q 760 174 719 110 q 843 310 800 238 q 1043 639 960 506 q 1179 846 1126 772 l 1092 832 q 938 565 1060 782 q 832 388 879 464 q 744 261 785 313 q 479 19 624 106 q 446 15 464 15 q 381 46 399 15 q 403 108 390 78 q 433 169 415 139 q 454 203 436 174 q 507 286 472 232 q 585 409 557 365 q 619 464 613 453 q 686 657 686 585 q 657 768 686 719 q 535 858 617 835 m 1051 1033 q 1065 1058 1068 1043 q 1043 1072 1064 1076 q 1028 1064 1035 1071 l 929 968 q 926 961 924 963 l 926 957 l 929 956 q 938 957 936 958 q 938 956 939 957 l 936 954 l 1051 1033 z "},"":{"ha":929,"x_min":56,"x_max":1179,"o":"m 535 858 q 447 868 504 868 q 303 839 369 868 q 229 801 264 822 q 164 754 194 781 q 85 658 115 714 q 56 554 56 610 q 69 483 56 521 q 208 399 94 411 q 418 528 315 399 q 443 607 443 567 q 425 665 443 643 q 398 685 418 681 q 360 693 378 689 q 243 613 283 679 l 286 644 q 340 664 314 664 q 381 654 375 654 q 406 619 397 643 q 409 603 407 614 q 414 575 411 593 q 408 553 411 567 q 400 522 406 540 q 365 478 390 496 q 261 438 333 438 q 167 451 214 438 q 92 611 92 472 q 183 763 107 694 q 340 844 257 831 q 590 781 543 844 q 635 656 635 719 q 631 613 635 631 q 560 464 619 569 q 429 244 485 338 q 335 88 374 150 q 333 67 333 76 q 333 46 333 57 q 360 0 333 10 q 536 47 451 0 q 685 158 599 81 q 661 108 682 142 q 639 51 639 74 q 661 10 639 28 q 706 1 683 1 q 807 39 750 1 q 851 71 829 54 q 897 103 874 88 l 899 115 q 832 67 854 83 q 810 51 810 51 q 710 15 757 15 q 694 28 700 17 q 682 51 688 40 q 760 174 719 110 q 843 310 800 238 q 1043 639 960 506 q 1179 846 1126 772 l 1092 832 q 938 565 1060 782 q 832 388 879 464 q 744 261 785 313 q 479 19 624 106 q 446 15 464 15 q 381 46 399 15 q 403 108 390 78 q 433 169 415 139 q 454 203 436 174 q 507 286 472 232 q 585 409 557 365 q 619 464 613 453 q 686 657 686 585 q 657 768 686 719 q 535 858 617 835 m 815 956 q 929 1000 819 956 q 989 956 981 958 l 993 957 l 996 963 q 975 997 993 971 q 959 1020 965 1011 q 949 1032 953 1029 q 925 1033 947 1033 q 903 1025 917 1033 q 810 965 811 969 l 808 963 q 815 956 808 956 z "},"":{"ha":929,"x_min":56,"x_max":1179,"o":"m 535 858 q 447 868 504 868 q 303 839 369 868 q 229 801 264 822 q 164 754 194 781 q 85 658 115 714 q 56 554 56 610 q 69 483 56 521 q 208 399 94 411 q 418 528 315 399 q 443 607 443 567 q 425 665 443 643 q 398 685 418 681 q 360 693 378 689 q 243 613 283 679 l 286 644 q 340 664 314 664 q 381 654 375 654 q 406 619 397 643 q 409 603 407 614 q 414 575 411 593 q 408 553 411 567 q 400 522 406 540 q 365 478 390 496 q 261 438 333 438 q 167 451 214 438 q 92 611 92 472 q 183 763 107 694 q 340 844 257 831 q 590 781 543 844 q 635 656 635 719 q 631 613 635 631 q 560 464 619 569 q 429 244 485 338 q 335 88 374 150 q 333 67 333 76 q 333 46 333 57 q 360 0 333 10 q 536 47 451 0 q 685 158 599 81 q 661 108 682 142 q 639 51 639 74 q 661 10 639 28 q 706 1 683 1 q 807 39 750 1 q 851 71 829 54 q 897 103 874 88 l 899 115 q 832 67 854 83 q 810 51 810 51 q 710 15 757 15 q 694 28 700 17 q 682 51 688 40 q 760 174 719 110 q 843 310 800 238 q 1043 639 960 506 q 1179 846 1126 772 l 1092 832 q 938 565 1060 782 q 832 388 879 464 q 744 261 785 313 q 479 19 624 106 q 446 15 464 15 q 381 46 399 15 q 403 108 390 78 q 433 169 415 139 q 454 203 436 174 q 507 286 472 232 q 585 409 557 365 q 619 464 613 453 q 686 657 686 585 q 657 768 686 719 q 535 858 617 835 m 976 1000 q 950 976 950 1000 q 953 968 950 974 q 972 953 960 953 q 985 956 976 953 q 1001 981 1003 965 q 976 1000 1001 1000 m 879 1000 q 853 976 853 1000 q 856 968 853 974 q 875 953 863 953 q 888 956 879 953 q 904 981 906 965 q 879 1000 904 1000 z "},"":{"ha":793,"x_min":-196,"x_max":1426,"o":"m 178 -365 q 249 -341 219 -351 q 293 -321 278 -331 q 396 -242 329 -301 q 747 289 551 -99 q 839 472 808 410 q 872 536 869 533 q 1050 747 954 678 q 1169 806 1110 790 q 1300 817 1218 817 q 1353 807 1333 817 q 1389 728 1389 788 l 1389 710 q 1426 754 1426 710 q 1414 803 1426 774 q 1276 864 1386 864 q 1079 799 1178 864 q 875 583 969 725 q 769 419 814 490 q 694 300 725 349 q 600 167 647 225 q 506 67 553 110 q 488 83 496 75 q 474 97 481 90 q 408 122 446 122 q 290 99 325 122 q 492 296 397 185 q 642 613 642 472 q 578 778 642 706 q 369 864 500 864 q 150 794 231 864 q 96 742 118 765 q 61 704 74 719 q 19 589 19 647 q 36 514 19 557 q 206 421 69 421 q 342 463 281 421 q 439 613 439 529 q 410 683 439 653 q 340 713 381 713 q 315 711 322 713 l 285 706 q 217 640 242 697 l 228 640 q 300 694 250 694 q 360 671 325 694 q 417 585 417 631 q 360 483 417 524 q 239 444 304 444 q 199 449 221 444 q 85 511 132 457 q 57 613 57 569 q 122 756 57 686 q 342 840 203 840 q 540 749 479 840 q 585 596 585 676 q 453 279 585 449 q 314 135 400 213 q 235 67 269 96 q 178 19 201 39 q 234 60 214 46 q 261 79 254 75 q 357 108 311 108 q 419 96 382 108 q 465 31 465 81 q 531 67 497 38 q 551 85 538 72 q 586 119 564 97 l 592 115 q 521 -12 549 36 q 482 -81 493 -61 q 343 -257 414 -190 q 150 -368 249 -344 q 78 -382 110 -378 q 26 -386 47 -386 q -74 -371 -28 -386 q -154 -296 -154 -340 q -149 -273 -154 -286 q -128 -256 -143 -260 q -100 -250 -126 -254 q -135 -226 -107 -226 q -196 -281 -196 -226 q -183 -322 -196 -301 q -146 -360 -171 -343 q -85 -388 -121 -378 q -4 -399 -50 -399 q 178 -365 71 -399 m 975 1033 q 989 1058 992 1043 q 967 1072 988 1076 q 951 1064 958 1071 l 853 968 q 850 961 847 963 l 850 957 l 853 956 q 861 957 860 958 q 861 956 863 957 l 860 954 l 975 1033 z "},"":{"ha":1389,"x_min":0,"x_max":0,"o":""},"":{"ha":258,"x_min":-231,"x_max":886,"o":"m 86 128 q 114 184 101 160 q 133 224 126 208 q 199 335 168 283 q 256 431 229 386 q 335 560 311 528 q 718 776 497 776 q 753 774 733 776 q 794 769 772 772 l 836 744 q 856 703 858 729 q 881 713 867 700 q 886 733 886 722 q 876 768 886 747 q 790 803 850 801 q 742 803 767 803 q 694 804 718 803 q 329 583 458 738 q 50 144 226 457 q -231 -275 -111 -147 l -176 -278 q 65 90 -29 -85 l 72 93 q 64 56 64 69 q 111 0 64 0 q 157 11 126 0 q 210 71 197 35 q 221 153 221 100 q 219 168 219 160 q 219 185 219 176 l 219 215 q 221 253 219 235 q 225 288 222 272 q 150 204 185 244 q 86 128 115 164 m 164 201 q 188 104 188 147 q 182 67 188 83 q 121 10 165 10 q 82 43 82 10 q 85 58 82 51 q 108 68 88 65 q 136 93 136 72 q 117 117 136 108 l 85 107 l 164 201 m 236 51 q 182 6 200 19 q 234 44 206 19 q 294 104 263 68 l 236 51 z "},"":{"ha":365,"x_min":-8,"x_max":372,"o":"m 67 129 q 156 243 94 178 q 214 272 182 272 q 231 269 217 272 q 271 236 261 250 q 122 22 193 74 q 138 33 125 24 q 158 39 150 43 q 165 26 164 36 q 201 0 169 0 q 294 29 240 0 q 372 92 350 61 q 229 11 301 26 q 209 19 217 8 q 204 43 201 31 l 328 247 l 328 267 q 301 258 319 265 q 292 265 300 260 q 267 278 283 271 q 233 285 250 285 q 143 254 194 285 q 68 194 97 228 q 33 153 46 168 q 18 133 21 139 q -8 64 -8 94 q 10 10 -8 36 q 44 0 19 0 q 110 19 82 0 q 89 13 99 14 q 69 15 75 10 q 49 38 53 19 q 43 75 46 57 q 56 105 50 92 q 67 129 61 118 m 108 422 l 214 349 l 224 343 q 231 344 224 342 l 233 346 l 233 349 q 231 357 235 353 l 142 442 l 132 451 q 117 461 124 460 q 94 447 96 464 q 108 422 92 432 z "},"":{"ha":365,"x_min":-8,"x_max":381,"o":"m 67 129 q 156 243 94 178 q 214 272 182 272 q 231 269 217 272 q 271 236 261 250 q 122 22 193 74 q 138 33 125 24 q 158 39 150 43 q 165 26 164 36 q 201 0 169 0 q 294 29 240 0 q 372 92 350 61 q 229 11 301 26 q 209 19 217 8 q 204 43 201 31 l 328 247 l 328 267 q 301 258 319 265 q 292 265 300 260 q 267 278 283 271 q 233 285 250 285 q 143 254 194 285 q 68 194 97 228 q 33 153 46 168 q 18 133 21 139 q -8 64 -8 94 q 10 10 -8 36 q 44 0 19 0 q 110 19 82 0 q 89 13 99 14 q 69 15 75 10 q 49 38 53 19 q 43 75 46 57 q 56 105 50 92 q 67 129 61 118 m 364 424 q 378 449 381 433 q 356 463 376 467 q 340 454 347 461 l 242 358 q 239 351 236 353 l 239 347 l 242 346 q 249 344 246 344 l 364 424 z "},"":{"ha":365,"x_min":-8,"x_max":372,"o":"m 67 129 q 156 243 94 178 q 214 272 182 272 q 231 269 217 272 q 271 236 261 250 q 122 22 193 74 q 138 33 125 24 q 158 39 150 43 q 165 26 164 36 q 201 0 169 0 q 294 29 240 0 q 372 92 350 61 q 229 11 301 26 q 209 19 217 8 q 204 43 201 31 l 328 247 l 328 267 q 301 258 319 265 q 292 265 300 260 q 267 278 283 271 q 233 285 250 285 q 143 254 194 285 q 68 194 97 228 q 33 153 46 168 q 18 133 21 139 q -8 64 -8 94 q 10 10 -8 36 q 44 0 19 0 q 110 19 82 0 q 89 13 99 14 q 69 15 75 10 q 49 38 53 19 q 43 75 46 57 q 56 105 50 92 q 67 129 61 118 m 176 346 q 290 390 181 346 q 350 346 342 349 l 354 347 l 357 353 q 336 388 354 361 q 320 410 326 401 q 310 422 314 419 q 286 424 308 424 q 264 415 278 424 q 171 356 172 360 l 169 353 q 176 346 169 346 z "},"":{"ha":365,"x_min":-8,"x_max":399,"o":"m 67 129 q 156 243 94 178 q 214 272 182 272 q 231 269 217 272 q 271 236 261 250 q 122 22 193 74 q 138 33 125 24 q 158 39 150 43 q 165 26 164 36 q 201 0 169 0 q 294 29 240 0 q 372 92 350 61 q 229 11 301 26 q 209 19 217 8 q 204 43 201 31 l 328 247 l 328 267 q 301 258 319 265 q 292 265 300 260 q 267 278 283 271 q 233 285 250 285 q 143 254 194 285 q 68 194 97 228 q 33 153 46 168 q 18 133 21 139 q -8 64 -8 94 q 10 10 -8 36 q 44 0 19 0 q 110 19 82 0 q 89 13 99 14 q 69 15 75 10 q 49 38 53 19 q 43 75 46 57 q 56 105 50 92 q 67 129 61 118 m 176 363 l 174 357 l 174 356 l 175 353 l 179 351 l 185 354 l 196 364 q 235 383 219 383 q 261 374 243 383 l 296 357 l 314 349 q 329 346 322 346 q 374 369 350 346 l 396 392 l 399 396 l 397 401 l 392 403 l 388 401 q 344 379 364 379 l 335 382 q 324 385 331 383 q 311 393 318 388 q 251 415 275 415 q 200 389 226 417 l 185 374 l 176 363 z "},"":{"ha":365,"x_min":-8,"x_max":372,"o":"m 67 129 q 156 243 94 178 q 214 272 182 272 q 231 269 217 272 q 271 236 261 250 q 122 22 193 74 q 138 33 125 24 q 158 39 150 43 q 165 26 164 36 q 201 0 169 0 q 294 29 240 0 q 372 92 350 61 q 229 11 301 26 q 209 19 217 8 q 204 43 201 31 l 328 247 l 328 267 q 301 258 319 265 q 292 265 300 260 q 267 278 283 271 q 233 285 250 285 q 143 254 194 285 q 68 194 97 228 q 33 153 46 168 q 18 133 21 139 q -8 64 -8 94 q 10 10 -8 36 q 44 0 19 0 q 110 19 82 0 q 89 13 99 14 q 69 15 75 10 q 49 38 53 19 q 43 75 46 57 q 56 105 50 92 q 67 129 61 118 m 322 390 q 296 367 296 390 q 299 358 296 364 q 318 343 306 343 q 331 346 322 343 q 347 371 349 356 q 322 390 347 390 m 225 390 q 199 367 199 390 q 201 358 199 364 q 221 343 208 343 q 233 346 225 343 q 250 371 251 356 q 225 390 250 390 z "},"":{"ha":365,"x_min":-8,"x_max":372,"o":"m 67 129 q 156 243 94 178 q 214 272 182 272 q 231 269 217 272 q 271 236 261 250 q 122 22 193 74 q 138 33 125 24 q 158 39 150 43 q 165 26 164 36 q 201 0 169 0 q 294 29 240 0 q 372 92 350 61 q 229 11 301 26 q 209 19 217 8 q 204 43 201 31 l 328 247 l 328 267 q 301 258 319 265 q 292 265 300 260 q 267 278 283 271 q 233 285 250 285 q 143 254 194 285 q 68 194 97 228 q 33 153 46 168 q 18 133 21 139 q -8 64 -8 94 q 10 10 -8 36 q 44 0 19 0 q 110 19 82 0 q 89 13 99 14 q 69 15 75 10 q 49 38 53 19 q 43 75 46 57 q 56 105 50 92 q 67 129 61 118 m 249 399 q 301 346 249 346 q 354 399 354 346 q 338 435 354 419 q 301 451 322 451 q 264 435 279 451 q 249 399 249 419 m 265 399 q 301 433 264 433 q 336 399 336 433 q 301 364 336 365 q 265 399 267 363 z "},"":{"ha":532,"x_min":-8,"x_max":540,"o":"m 406 17 q 349 79 349 17 q 375 133 349 115 q 482 168 451 151 q 540 254 540 199 q 507 278 540 278 q 374 210 440 278 q 307 72 307 140 q 308 58 307 65 q 310 43 308 50 q 225 11 261 11 q 203 38 203 11 q 328 247 203 40 l 328 267 q 301 258 319 265 q 272 276 286 268 q 233 285 257 285 q 81 204 169 285 q -8 64 -8 125 q 44 0 -8 0 q 110 19 82 0 q 81 11 94 11 q 69 15 74 11 q 49 38 53 19 q 43 75 46 57 q 111 194 65 135 q 214 272 169 272 q 271 236 239 272 q 122 22 193 74 q 145 36 138 32 q 153 40 153 40 q 165 19 158 40 q 201 0 172 0 q 311 39 247 0 q 365 0 319 0 q 469 36 410 0 q 533 119 533 75 q 440 28 513 58 q 406 17 411 17 m 383 153 q 486 251 424 251 q 496 239 496 251 q 461 178 496 204 q 394 147 433 156 l 383 153 z "},"":{"ha":217,"x_min":-50,"x_max":247,"o":"m 49 3 l 50 6 l 68 10 l 64 1 l 61 1 l 58 1 q 49 3 53 1 m 65 -42 q 39 -47 56 -42 l 64 1 q 115 13 89 3 q 163 37 140 22 q 206 71 186 51 q 238 111 225 90 q 168 46 211 76 q 82 11 119 11 q 50 22 68 11 q 32 47 32 33 q 58 154 32 100 q 124 239 86 213 q 203 274 175 274 q 232 256 232 274 q 203 229 232 243 q 198 222 200 226 q 193 215 196 218 q 203 214 196 214 q 247 244 247 214 q 203 278 247 278 q 147 268 182 278 q 46 183 97 256 q -4 58 -4 110 q 49 3 -4 10 q 15 -68 15 -67 l 15 -71 l 17 -72 l 19 -72 q 56 -65 36 -65 q 74 -87 74 -65 q -4 -126 74 -126 q -50 -128 -50 -126 q 3 -146 -50 -146 q 68 -131 35 -146 q 106 -82 106 -112 q 65 -42 106 -42 z "},"":{"ha":208,"x_min":-15,"x_max":219,"o":"m 163 272 q 40 197 90 250 q -15 69 -15 140 q -11 32 -15 50 q 42 -1 -1 -1 q 99 11 61 -1 q 210 117 210 53 q 169 56 194 72 q 82 14 113 14 q 29 44 43 14 q 25 76 25 58 q 51 131 25 113 q 115 147 89 139 q 157 163 142 156 q 217 247 211 193 q 183 275 219 275 q 175 274 181 275 q 163 272 169 274 m 158 249 q 170 246 165 250 q 172 235 175 242 q 136 175 172 203 q 71 144 108 153 l 60 150 q 158 249 97 238 m 15 422 l 121 349 l 131 343 q 138 344 131 342 l 140 346 l 140 349 q 138 357 142 353 l 49 442 l 39 451 q 24 461 31 460 q 1 447 3 464 q 15 422 0 433 z "},"":{"ha":208,"x_min":-15,"x_max":306,"o":"m 163 272 q 40 197 90 250 q -15 69 -15 140 q -11 32 -15 50 q 42 -1 -1 -1 q 99 11 61 -1 q 210 117 210 53 q 169 56 194 72 q 82 14 113 14 q 29 44 43 14 q 25 76 25 58 q 51 131 25 113 q 115 147 89 139 q 157 163 142 156 q 217 247 211 193 q 183 275 219 275 q 175 274 181 275 q 163 272 169 274 m 158 249 q 170 246 165 250 q 172 235 175 242 q 136 175 172 203 q 71 144 108 153 l 60 150 q 158 249 97 238 m 289 424 q 303 449 306 433 q 281 463 301 467 q 265 454 272 461 l 167 358 q 164 351 161 353 l 164 347 l 167 346 q 174 344 171 344 l 289 424 z "},"":{"ha":208,"x_min":-15,"x_max":264,"o":"m 163 272 q 40 197 90 250 q -15 69 -15 140 q -11 32 -15 50 q 42 -1 -1 -1 q 99 11 61 -1 q 210 117 210 53 q 169 56 194 72 q 82 14 113 14 q 29 44 43 14 q 25 76 25 58 q 51 131 25 113 q 115 147 89 139 q 157 163 142 156 q 217 247 211 193 q 183 275 219 275 q 175 274 181 275 q 163 272 169 274 m 158 249 q 170 246 165 250 q 172 235 175 242 q 136 175 172 203 q 71 144 108 153 l 60 150 q 158 249 97 238 m 83 346 q 197 390 88 346 q 257 346 249 349 l 261 347 l 264 353 q 243 388 261 361 q 227 410 233 401 q 217 422 221 419 q 193 424 215 424 q 171 415 185 424 q 78 356 79 360 l 76 353 q 83 346 76 346 z "},"":{"ha":208,"x_min":-15,"x_max":267,"o":"m 163 272 q 40 197 90 250 q -15 69 -15 140 q -11 32 -15 50 q 42 -1 -1 -1 q 99 11 61 -1 q 210 117 210 53 q 169 56 194 72 q 82 14 113 14 q 29 44 43 14 q 25 76 25 58 q 51 131 25 113 q 115 147 89 139 q 157 163 142 156 q 217 247 211 193 q 183 275 219 275 q 175 274 181 275 q 163 272 169 274 m 158 249 q 170 246 165 250 q 172 235 175 242 q 136 175 172 203 q 71 144 108 153 l 60 150 q 158 249 97 238 m 240 390 q 214 367 214 390 q 217 358 214 364 q 236 343 224 343 q 249 346 240 343 q 265 371 267 356 q 240 390 265 390 m 143 390 q 117 367 117 390 q 119 358 117 364 q 139 343 126 343 q 151 346 143 343 q 168 371 169 356 q 143 390 168 390 z "},"":{"ha":146,"x_min":-32,"x_max":175,"o":"m 99 272 l -28 47 q -32 35 -32 43 q -6 1 -32 6 q 8 -1 1 0 q 19 -1 14 -1 q 108 35 64 -1 q 175 110 118 44 l 82 31 q 42 15 49 15 q 19 32 25 15 l 139 271 l 99 272 m 3 422 l 108 349 l 118 343 q 125 344 118 342 l 128 346 l 128 349 q 125 357 129 353 l 36 442 l 26 451 q 11 461 18 460 q -10 447 -8 464 q 3 422 -12 432 z "},"":{"ha":146,"x_min":-32,"x_max":288,"o":"m 99 272 l -28 47 q -32 35 -32 43 q -6 1 -32 6 q 8 -1 1 0 q 19 -1 14 -1 q 108 35 64 -1 q 175 110 118 44 l 82 31 q 42 15 49 15 q 19 32 25 15 l 139 271 l 99 272 m 271 422 q 285 447 288 432 q 263 461 283 464 q 247 451 256 460 l 149 357 q 146 349 144 353 l 146 346 l 149 344 q 156 343 154 342 l 271 422 z "},"":{"ha":146,"x_min":-32,"x_max":235,"o":"m 99 272 l -28 47 q -32 35 -32 43 q -6 1 -32 6 q 8 -1 1 0 q 19 -1 14 -1 q 108 35 64 -1 q 175 110 118 44 l 82 31 q 42 15 49 15 q 19 32 25 15 l 139 271 l 99 272 m 54 346 q 168 390 58 346 q 228 346 219 349 l 232 347 l 235 353 q 214 388 232 361 q 198 410 204 401 q 188 422 192 419 q 164 424 186 424 q 142 415 156 424 q 49 356 50 360 l 47 353 q 54 346 47 346 z "},"":{"ha":146,"x_min":-32,"x_max":225,"o":"m 99 272 l -28 47 q -32 35 -32 43 q -6 1 -32 6 q 8 -1 1 0 q 19 -1 14 -1 q 108 35 64 -1 q 175 110 118 44 l 82 31 q 42 15 49 15 q 19 32 25 15 l 139 271 l 99 272 m 199 390 q 172 367 172 390 q 175 358 172 364 q 194 343 182 343 q 207 346 199 343 q 224 371 225 356 q 199 390 224 390 m 101 390 q 75 367 75 390 q 78 358 75 364 q 97 343 85 343 q 110 346 101 343 q 126 371 128 356 q 101 390 126 390 z "},"":{"ha":342,"x_min":3,"x_max":426,"o":"m 213 329 l 222 313 l 317 367 q 318 354 318 360 q 318 342 318 349 q 311 290 318 321 q 267 190 285 228 q 243 138 250 153 q 129 19 196 54 q 117 17 122 18 q 104 17 111 17 q 46 39 68 17 q 44 58 44 43 q 85 158 44 110 q 126 204 108 185 q 157 236 144 224 q 229 265 207 258 q 11 106 83 250 l 3 56 q 69 6 3 6 q 128 19 101 6 l 129 19 l 133 21 q 163 38 149 29 q 193 57 178 47 q 354 357 354 203 q 354 371 354 364 q 353 388 354 379 l 426 431 l 417 447 l 349 410 q 347 417 347 413 q 346 425 347 421 q 272 468 324 468 q 221 449 240 468 q 278 443 257 449 q 311 388 300 421 l 213 329 m 339 110 q 300 74 319 92 q 261 39 281 57 q 185 0 189 7 q 328 81 267 26 l 339 110 z "},"":{"ha":367,"x_min":-39,"x_max":399,"o":"m 113 265 l -39 13 q -21 6 -32 6 q 13 14 -3 10 q 72 117 51 81 q 97 160 93 153 q 222 268 149 243 q 160 253 200 272 q 139 274 164 274 q 113 265 121 274 m 226 269 l 239 269 q 275 233 275 258 q 272 225 275 231 q 192 96 219 154 l 169 60 q 161 22 158 40 q 193 0 165 0 q 311 46 242 0 q 372 118 363 81 q 313 53 346 72 q 225 19 258 19 q 207 36 203 19 q 263 140 218 74 q 317 242 308 208 q 261 272 311 272 q 245 272 254 272 q 226 269 236 271 m 176 363 l 174 357 l 174 356 l 175 353 l 179 351 l 185 354 l 196 364 q 235 383 219 383 q 261 374 243 383 l 296 357 l 314 349 q 329 346 322 346 q 374 369 350 346 l 396 392 l 399 396 l 397 401 l 392 403 l 388 401 q 344 379 364 379 l 335 382 q 324 385 331 383 q 311 393 318 388 q 251 415 275 415 q 200 389 226 417 l 185 374 l 176 363 z "},"":{"ha":325,"x_min":0,"x_max":331,"o":"m 189 274 q 74 208 118 247 q 0 61 0 143 q 7 26 0 43 q 68 -1 22 -1 q 146 28 92 -1 q 242 115 206 61 q 282 240 282 176 q 221 279 276 279 q 189 274 201 279 m 272 57 q 228 24 247 38 q 194 1 208 10 q 331 113 306 39 l 272 57 m 154 243 q 189 253 169 253 q 238 206 238 253 q 201 101 238 154 q 94 17 142 17 q 56 28 65 17 q 47 71 47 40 q 154 243 47 157 m 65 422 l 171 349 l 181 343 q 188 344 181 342 l 190 346 l 190 349 q 188 357 192 353 l 99 442 l 89 451 q 74 461 81 460 q 51 447 53 464 q 65 422 49 432 z "},"":{"ha":325,"x_min":0,"x_max":410,"o":"m 189 274 q 74 208 118 247 q 0 61 0 143 q 7 26 0 43 q 68 -1 22 -1 q 146 28 92 -1 q 242 115 206 61 q 282 240 282 176 q 221 279 276 279 q 189 274 201 279 m 272 57 q 228 24 247 38 q 194 1 208 10 q 331 113 306 39 l 272 57 m 154 243 q 189 253 169 253 q 238 206 238 253 q 201 101 238 154 q 94 17 142 17 q 56 28 65 17 q 47 71 47 40 q 154 243 47 157 m 393 422 q 407 447 410 432 q 385 461 406 464 q 369 451 378 460 l 271 357 q 268 349 267 353 l 268 346 l 271 344 q 278 343 276 342 l 393 422 z "},"":{"ha":325,"x_min":0,"x_max":357,"o":"m 189 274 q 74 208 118 247 q 0 61 0 143 q 7 26 0 43 q 68 -1 22 -1 q 146 28 92 -1 q 242 115 206 61 q 282 240 282 176 q 221 279 276 279 q 189 274 201 279 m 272 57 q 228 24 247 38 q 194 1 208 10 q 331 113 306 39 l 272 57 m 154 243 q 189 253 169 253 q 238 206 238 253 q 201 101 238 154 q 94 17 142 17 q 56 28 65 17 q 47 71 47 40 q 154 243 47 157 m 176 346 q 290 390 181 346 q 350 346 342 349 l 354 347 l 357 353 q 336 388 354 361 q 320 410 326 401 q 310 422 314 419 q 286 424 308 424 q 264 415 278 424 q 171 356 172 360 l 169 353 q 176 346 169 346 z "},"":{"ha":325,"x_min":0,"x_max":372,"o":"m 189 274 q 74 208 118 247 q 0 61 0 143 q 7 26 0 43 q 68 -1 22 -1 q 146 28 92 -1 q 242 115 206 61 q 282 240 282 176 q 221 279 276 279 q 189 274 201 279 m 272 57 q 228 24 247 38 q 194 1 208 10 q 331 113 306 39 l 272 57 m 154 243 q 189 253 169 253 q 238 206 238 253 q 201 101 238 154 q 94 17 142 17 q 56 28 65 17 q 47 71 47 40 q 154 243 47 157 m 150 363 l 147 357 l 147 356 l 149 353 l 153 351 l 158 354 l 169 364 q 208 383 193 383 q 235 374 217 383 l 269 357 l 288 349 q 303 346 296 346 q 347 369 324 346 l 369 392 l 372 396 l 371 401 l 365 403 l 361 401 q 318 379 338 379 l 308 382 q 298 385 304 383 q 285 393 292 388 q 225 415 249 415 q 174 389 200 417 l 158 374 l 150 363 z "},"":{"ha":325,"x_min":0,"x_max":333,"o":"m 189 274 q 74 208 118 247 q 0 61 0 143 q 7 26 0 43 q 68 -1 22 -1 q 146 28 92 -1 q 242 115 206 61 q 282 240 282 176 q 221 279 276 279 q 189 274 201 279 m 272 57 q 228 24 247 38 q 194 1 208 10 q 331 113 306 39 l 272 57 m 154 243 q 189 253 169 253 q 238 206 238 253 q 201 101 238 154 q 94 17 142 17 q 56 28 65 17 q 47 71 47 40 q 154 243 47 157 m 307 390 q 281 367 281 390 q 283 358 281 364 q 303 343 290 343 q 315 346 307 343 q 332 371 333 356 q 307 390 332 390 m 210 390 q 183 367 183 390 q 186 358 183 364 q 206 343 193 343 q 218 346 210 343 q 235 371 236 356 q 210 390 235 390 z "},"":{"ha":325,"x_min":0,"x_max":331,"o":"m 189 274 q 74 208 118 247 q 0 61 0 143 q 7 26 0 43 q 68 -1 22 -1 q 146 28 92 -1 q 242 115 206 61 q 282 240 282 176 q 221 279 276 279 q 189 274 201 279 m 272 57 q 228 24 247 38 q 194 1 208 10 q 331 113 306 39 l 272 57 m 154 243 q 189 253 169 253 q 238 206 238 253 q 201 101 238 154 q 94 17 142 17 q 56 28 65 17 q 47 71 47 40 q 154 243 47 157 z "},"":{"ha":358,"x_min":-11,"x_max":365,"o":"m 129 274 q 76 199 99 233 q 35 135 53 164 q -11 33 -11 57 q 29 -1 -11 -1 q 158 43 58 -1 l 176 11 q 215 -3 192 -3 q 246 1 233 -3 q 365 99 346 44 q 301 42 342 69 q 224 15 251 8 q 214 32 217 17 q 213 43 213 38 q 213 54 213 49 q 301 197 269 143 q 342 268 333 250 l 297 269 l 242 175 q 158 54 200 106 q 54 14 75 14 q 38 33 35 14 q 92 151 43 76 q 128 210 110 181 q 164 268 146 239 q 149 274 160 274 l 129 274 m 108 422 l 214 349 l 224 343 q 231 344 224 342 l 233 346 l 233 349 q 231 357 235 353 l 142 442 l 132 451 q 117 461 124 460 q 94 447 96 464 q 108 422 92 432 z "},"":{"ha":358,"x_min":-11,"x_max":408,"o":"m 129 274 q 76 199 99 233 q 35 135 53 164 q -11 33 -11 57 q 29 -1 -11 -1 q 158 43 58 -1 l 176 11 q 215 -3 192 -3 q 246 1 233 -3 q 365 99 346 44 q 301 42 342 69 q 224 15 251 8 q 214 32 217 17 q 213 43 213 38 q 213 54 213 49 q 301 197 269 143 q 342 268 333 250 l 297 269 l 242 175 q 158 54 200 106 q 54 14 75 14 q 38 33 35 14 q 92 151 43 76 q 128 210 110 181 q 164 268 146 239 q 149 274 160 274 l 129 274 m 392 424 q 406 449 408 433 q 383 463 404 467 q 368 454 375 461 l 269 358 q 267 351 264 353 l 267 347 l 269 346 q 276 344 274 344 l 392 424 z "},"":{"ha":358,"x_min":-11,"x_max":365,"o":"m 129 274 q 76 199 99 233 q 35 135 53 164 q -11 33 -11 57 q 29 -1 -11 -1 q 158 43 58 -1 l 176 11 q 215 -3 192 -3 q 246 1 233 -3 q 365 99 346 44 q 301 42 342 69 q 224 15 251 8 q 214 32 217 17 q 213 43 213 38 q 213 54 213 49 q 301 197 269 143 q 342 268 333 250 l 297 269 l 242 175 q 158 54 200 106 q 54 14 75 14 q 38 33 35 14 q 92 151 43 76 q 128 210 110 181 q 164 268 146 239 q 149 274 160 274 l 129 274 m 176 346 q 290 390 181 346 q 350 346 342 349 l 354 347 l 357 353 q 336 388 354 361 q 320 410 326 401 q 310 422 314 419 q 286 424 308 424 q 264 415 278 424 q 171 356 172 360 l 169 353 q 176 346 169 346 z "},"":{"ha":358,"x_min":-11,"x_max":365,"o":"m 129 274 q 76 199 99 233 q 35 135 53 164 q -11 33 -11 57 q 29 -1 -11 -1 q 158 43 58 -1 l 176 11 q 215 -3 192 -3 q 246 1 233 -3 q 365 99 346 44 q 301 42 342 69 q 224 15 251 8 q 214 32 217 17 q 213 43 213 38 q 213 54 213 49 q 301 197 269 143 q 342 268 333 250 l 297 269 l 242 175 q 158 54 200 106 q 54 14 75 14 q 38 33 35 14 q 92 151 43 76 q 128 210 110 181 q 164 268 146 239 q 149 274 160 274 l 129 274 m 322 390 q 296 367 296 390 q 299 358 296 364 q 318 343 306 343 q 331 346 322 343 q 347 371 349 356 q 322 390 347 390 m 225 390 q 199 367 199 390 q 201 358 199 364 q 221 343 208 343 q 233 346 225 343 q 250 371 251 356 q 225 390 250 390 z "},"":{"ha":361,"x_min":-194,"x_max":408,"o":"m -157 -240 q -161 -224 -161 -232 q -76 -122 -161 -199 l 71 -29 q -112 -143 -35 -76 q -152 -178 -139 -167 q -167 -190 -165 -189 q -194 -253 -194 -222 q -174 -279 -194 -275 q -135 -287 -154 -283 q 43 -181 -36 -260 q 168 -8 103 -119 q 364 96 247 10 q 364 101 364 99 q 365 111 364 106 q 361 122 368 122 q 190 11 300 46 q 346 274 239 131 q 331 286 339 286 q 316 283 326 286 q 300 279 306 279 q 292 282 297 279 q 206 129 229 163 q 75 19 151 53 q 51 24 63 15 q 28 40 39 32 l 161 276 q 148 278 154 278 q 136 279 142 279 q 114 272 121 279 l -10 69 q -14 40 -14 61 q 28 0 -14 0 q 131 29 57 0 q 107 -4 131 11 q 75 -28 76 -24 l 115 -17 q 40 -144 42 -143 q -50 -247 -15 -236 q -119 -261 -104 -261 q -157 -240 -149 -261 m 392 424 q 406 449 408 433 q 383 463 404 467 q 368 454 375 461 l 269 358 q 267 351 264 353 l 267 347 l 269 346 q 276 344 274 344 l 392 424 z "},"":{"ha":361,"x_min":-194,"x_max":368,"o":"m -157 -240 q -161 -224 -161 -232 q -76 -122 -161 -199 l 71 -29 q -112 -143 -35 -76 q -152 -178 -139 -167 q -167 -190 -165 -189 q -194 -253 -194 -222 q -174 -279 -194 -275 q -135 -287 -154 -283 q 43 -181 -36 -260 q 168 -8 103 -119 q 364 96 247 10 q 364 101 364 99 q 365 111 364 106 q 361 122 368 122 q 190 11 300 46 q 346 274 239 131 q 331 286 339 286 q 316 283 326 286 q 300 279 306 279 q 292 282 297 279 q 206 129 229 163 q 75 19 151 53 q 51 24 63 15 q 28 40 39 32 l 161 276 q 148 278 154 278 q 136 279 142 279 q 114 272 121 279 l -10 69 q -14 40 -14 61 q 28 0 -14 0 q 131 29 57 0 q 107 -4 131 11 q 75 -28 76 -24 l 115 -17 q 40 -144 42 -143 q -50 -247 -15 -236 q -119 -261 -104 -261 q -157 -240 -149 -261 m 308 390 q 282 367 282 390 q 285 358 282 364 q 304 343 292 343 q 317 346 308 343 q 333 371 335 356 q 308 390 333 390 m 211 390 q 185 367 185 390 q 188 358 185 364 q 207 343 194 343 q 219 346 211 343 q 236 371 238 356 q 211 390 236 390 z "},"":{"ha":0,"x_min":0,"x_max":0,"o":""},"":{"ha":344,"x_min":0,"x_max":0,"o":""},"":{"ha":344,"x_min":0,"x_max":0,"o":""},"":{"ha":197,"x_min":-231,"x_max":886,"o":"m -176 -278 q -2 -24 -79 -149 q 133 224 75 101 q 199 335 168 283 q 256 431 229 386 q 335 560 311 528 q 718 776 497 776 q 753 774 733 776 q 794 769 772 772 l 836 744 q 856 703 858 729 q 881 713 867 700 q 886 733 886 722 q 876 768 886 747 q 790 803 850 801 q 742 803 767 803 q 694 804 718 803 q 329 583 458 738 q 50 144 226 457 q -231 -275 -111 -147 l -176 -278 z "},"":{"ha":342,"x_min":3,"x_max":354,"o":"m 221 449 q 278 443 257 449 q 318 342 318 403 q 311 290 318 321 q 243 139 258 167 q 133 21 196 56 q 104 17 118 17 q 46 39 68 17 q 44 58 44 43 q 85 158 44 110 q 126 204 108 185 q 157 236 144 224 q 229 265 207 258 q 11 106 83 250 l 3 56 q 69 6 3 6 q 193 57 113 6 q 354 357 354 203 q 346 425 354 389 q 272 468 324 468 q 221 449 240 468 m 339 110 q 300 74 319 92 q 261 39 281 57 q 185 0 189 7 q 328 81 267 26 l 339 110 z "},"":{"ha":317,"x_min":-14,"x_max":335,"o":"m 335 583 q 322 585 332 585 q 276 571 296 585 q 166 378 214 460 q 85 243 118 296 q -14 47 -14 75 q 0 8 -14 26 q 38 1 17 1 q 70 4 49 1 q 103 7 92 7 q 279 233 279 83 q 231 274 279 274 l 182 269 q 163 267 171 268 q 150 268 156 267 q 333 564 275 464 l 335 583 m 319 99 q 285 74 307 93 q 251 46 260 51 q 210 25 240 39 q 172 0 178 13 q 256 38 256 35 q 319 99 307 64 m 47 85 q 101 193 86 168 q 175 254 135 254 q 233 226 201 254 q 94 19 218 81 l 81 19 q 31 49 31 19 q 47 85 31 60 z "}}}
